<svg width="24" height="25" viewBox="0 0 24 25" fill="none" xmlns="http://www.w3.org/2000/svg">
<path fill-rule="evenodd" clip-rule="evenodd" d="M15.7071 2.79289C15.3166 2.40237 14.6834 2.40237 14.2929 2.79289L10.9188 6.16701C9.95497 7.13081 9.18845 7.89732 8.62055 8.56627C8.03901 9.2513 7.60724 9.89953 7.36473 10.6459C6.97318 11.851 6.97318 13.149 7.36473 14.3541C7.60724 15.1005 8.03901 15.7487 8.62055 16.4337C9.18845 17.1027 9.95499 17.8692 10.9188 18.833L14.2929 22.2071C14.6834 22.5976 15.3166 22.5976 15.7071 22.2071C16.0976 21.8166 16.0976 21.1834 15.7071 20.7929L12.364 17.4497C11.3623 16.448 10.654 15.7387 10.1452 15.1394C9.644 14.549 9.39527 14.1313 9.26684 13.7361C9.00581 12.9327 9.00581 12.0673 9.26684 11.2639C9.39527 10.8687 9.644 10.451 10.1452 9.86062C10.654 9.26127 11.3622 8.55196 12.364 7.55026L15.7071 4.20711C16.0976 3.81658 16.0976 3.18342 15.7071 2.79289Z" fill="#C5C8C6"/>
</svg>
