<svg width="24" height="24" viewBox="0 0 24 24" fill="none" xmlns="http://www.w3.org/2000/svg">
<path fill-rule="evenodd" clip-rule="evenodd" d="M8.29289 2.29289C8.68342 1.90237 9.31658 1.90237 9.70711 2.29289L13.0812 5.66701C14.045 6.63081 14.8116 7.39732 15.3794 8.06627C15.961 8.7513 16.3928 9.39953 16.6353 10.1459C17.0268 11.351 17.0268 12.649 16.6353 13.8541C16.3928 14.6005 15.961 15.2487 15.3794 15.9337C14.8115 16.6027 14.045 17.3692 13.0812 18.333L9.70711 21.7071C9.31658 22.0976 8.68342 22.0976 8.29289 21.7071C7.90237 21.3166 7.90237 20.6834 8.29289 20.2929L11.636 16.9497C12.6377 15.948 13.346 15.2387 13.8548 14.6394C14.356 14.049 14.6047 13.6313 14.7332 13.2361C14.9942 12.4327 14.9942 11.5673 14.7332 10.7639C14.6047 10.3687 14.356 9.95105 13.8548 9.36062C13.346 8.76127 12.6378 8.05196 11.636 7.05026L8.29289 3.70711C7.90237 3.31658 7.90237 2.68342 8.29289 2.29289Z" fill="#313A34"/>
</svg>
