<svg width="16" height="16" viewBox="0 0 16 16" fill="none" xmlns="http://www.w3.org/2000/svg">
<path d="M3.37247 13.0568C3.53029 13.8502 4.15048 14.4704 4.94386 14.6282C5.1391 14.667 5.35766 14.6669 5.61145 14.6667L5.66738 14.6666L5.7233 14.6667C5.9771 14.6669 6.19565 14.667 6.39089 14.6282C7.18427 14.4704 7.80447 13.8502 7.96228 13.0568C8.00111 12.8616 8.00094 12.643 8.00074 12.3892L8.00071 12.1769C8.00071 11.7588 8.00232 11.6156 8.02148 11.4837C8.06934 11.1542 8.19872 10.8418 8.39789 10.575C8.47761 10.4681 8.57769 10.3658 8.87335 10.0701L10.0708 8.87265C10.3665 8.57697 10.4688 8.47689 10.5756 8.39717C10.8425 8.19798 11.1549 8.06859 11.4844 8.02072C11.6163 8.00157 11.7595 7.99996 12.1776 7.99996L12.3899 7.99999C12.6437 8.00019 12.8623 8.00037 13.0576 7.96153C13.8509 7.80371 14.4711 7.18354 14.6289 6.39018C14.6678 6.19492 14.6676 5.97634 14.6674 5.72251L14.6674 5.66659L14.6674 5.61066C14.6676 5.35685 14.6678 5.13828 14.6289 4.94304C14.4711 4.14971 13.851 3.52955 13.0577 3.3717C12.9368 3.34765 12.8071 3.33856 12.6655 3.33516C12.6621 3.19361 12.653 3.06383 12.629 2.94298C12.4711 2.14969 11.851 1.52957 11.0577 1.37175C10.8624 1.33291 10.6438 1.33308 10.39 1.33328L10.3341 1.33331L10.2781 1.33328C10.0243 1.33308 9.80571 1.33291 9.61044 1.37175C8.81712 1.52958 8.19697 2.14972 8.03913 2.94303C8.00028 3.1383 8.00045 3.35689 8.00065 3.61073L8.00067 3.82303C8.00067 4.24118 7.99905 4.38433 7.97989 4.51624C7.93202 4.84575 7.80264 5.15809 7.60349 5.42494C7.52377 5.53175 7.42369 5.63412 7.12802 5.9298L5.93055 7.12729C5.6349 7.42296 5.53254 7.52304 5.42573 7.60276C5.15886 7.80195 4.84647 7.93134 4.51692 7.97921C4.38502 7.99837 4.24188 7.99998 3.82375 7.99998L3.61145 7.99995C3.35766 7.99974 3.1391 7.99957 2.94387 8.0384C2.15048 8.19622 1.53028 8.81642 1.37247 9.6098C1.33364 9.80503 1.33381 10.0236 1.33401 10.2774L1.33404 10.3333L1.33401 10.3892C1.33381 10.643 1.33364 10.8616 1.37247 11.0568C1.53028 11.8502 2.15049 12.4704 2.94388 12.6282C3.0647 12.6522 3.19445 12.6613 3.33595 12.6647C3.33935 12.8062 3.34844 12.936 3.37247 13.0568Z" fill="#647067"/>
</svg>
