<svg width="60" height="60" viewBox="0 0 60 60" fill="none" xmlns="http://www.w3.org/2000/svg">
<rect width="60" height="60" rx="21" fill="#F43F5E"/>
<path d="M25.1142 22.125L25.1876 22.1251L25.261 22.125C25.5941 22.1248 25.8809 22.1245 26.1372 22.1755C27.1785 22.3826 27.9925 23.1967 28.1996 24.238C28.2506 24.4942 28.2504 24.7811 28.2501 25.1142V26.136C28.2504 26.4691 28.2506 26.7559 28.1996 27.0122C27.9925 28.0535 27.1785 28.8675 26.1372 29.0746C25.8809 29.1256 25.5941 29.1254 25.261 29.1251L25.1876 29.1251L25.1142 29.1251C24.7811 29.1254 24.4942 29.1256 24.238 29.0746L24.2224 29.0715C25.1208 32.3202 27.6799 34.8793 30.9287 35.7778L30.9255 35.7622C30.8745 35.5059 30.8748 35.2191 30.875 34.886L30.8751 34.8126L30.875 34.7392C30.8748 34.4061 30.8745 34.1192 30.9255 33.863C31.1326 32.8217 31.9467 32.0076 32.988 31.8005C33.2442 31.7495 33.5311 31.7498 33.8642 31.75H34.886C35.2191 31.7498 35.5059 31.7495 35.7622 31.8005C36.8035 32.0076 37.6175 32.8217 37.8246 33.863C37.8756 34.1192 37.8754 34.4061 37.8751 34.7392L37.8751 34.8126L37.8751 34.886C37.8754 35.2191 37.8756 35.5059 37.8246 35.7622C37.6175 36.8035 36.8035 37.6175 35.7622 37.8246C35.5059 37.8756 35.2191 37.8754 34.886 37.8751H33.8642C33.7553 37.8752 33.6513 37.8753 33.5518 37.8736C33.5347 37.8746 33.5174 37.8751 33.5001 37.8751C27.2178 37.8751 22.1251 32.7823 22.1251 26.5001C22.1251 26.4827 22.1256 26.4655 22.1266 26.4484C22.1249 26.3488 22.125 26.2449 22.125 26.136V25.1142C22.1248 24.7811 22.1245 24.4942 22.1755 24.238C22.3826 23.1967 23.1967 22.3826 24.238 22.1755C24.4942 22.1245 24.7811 22.1248 25.1142 22.125Z" fill="white"/>
</svg>
