<svg width="137" height="57" viewBox="0 0 137 57" fill="none" xmlns="http://www.w3.org/2000/svg">
<path opacity="0.4" d="M10.7604 29.3635H2V56H135V11.3635H126.637C126.574 11.3635 126.542 11.3635 126.515 11.3638C123.244 11.393 120.598 14.0381 120.569 17.31C120.569 17.3368 120.569 17.3684 120.569 17.4317C120.569 17.495 120.569 17.5267 120.569 17.5534C120.539 20.8253 117.894 23.4704 114.622 23.4996C114.606 23.4998 114.588 23.4998 114.563 23.4999L114.501 23.4999H112.083C111.772 23.4999 111.616 23.4999 111.485 23.5057C108.378 23.6421 105.89 26.1298 105.754 29.2367C105.748 29.3682 105.748 29.5239 105.748 29.8351C105.748 30.1464 105.748 30.302 105.742 30.4335C105.606 33.5404 103.118 36.0281 100.011 36.1646C99.8795 36.1703 99.7238 36.1703 99.4126 36.1703H98.4347C97.2148 36.1703 96.6048 36.1703 96.0955 36.2587C93.5988 36.6922 91.6435 38.6474 91.2101 41.1441C91.1217 41.6534 91.1217 42.2634 91.1217 43.4834V44.2181C91.1217 45.5288 91.1217 46.1842 91.0197 46.7302C90.5648 49.1661 88.6591 51.0717 86.2233 51.5267C85.6772 51.6287 85.0218 51.6287 83.7111 51.6287C82.4004 51.6287 81.7451 51.6287 81.199 51.5267C78.7631 51.0717 76.8575 49.1661 76.4026 46.7302C76.3006 46.1842 76.3006 45.5288 76.3006 44.2181V38.2011C76.3006 36.7997 76.3006 36.0989 76.1841 35.5163C75.709 33.1412 73.8525 31.2846 71.4773 30.8096C70.8947 30.6931 70.194 30.6931 68.7925 30.6931C67.391 30.6931 66.6903 30.6931 66.1077 30.5765C63.7326 30.1015 61.876 28.2449 61.401 25.8698C61.2845 25.2872 61.2845 24.5865 61.2845 23.185V18.6766C61.2845 17.4566 61.2845 16.8466 61.196 16.3373C60.7626 13.8406 58.8074 11.8853 56.3106 11.4519C55.8014 11.3635 55.1914 11.3635 53.9714 11.3635H52.4368C49.2454 11.3635 46.6584 13.9506 46.6584 17.1419C46.6584 20.3333 44.0713 22.9203 40.88 22.9203H39.1503C37.7488 22.9203 37.0481 22.9203 36.4655 23.0369C34.0904 23.5119 32.2338 25.3685 31.7588 27.7436C31.6422 28.3262 31.6422 29.0269 31.6422 30.4284V34.5618C31.6422 35.7818 31.6422 36.3918 31.5538 36.9011C31.1204 39.3978 29.1652 41.3531 26.6684 41.7865C26.1591 41.8749 25.5491 41.8749 24.3292 41.8749H23.2718C23.0344 41.8749 22.9157 41.8749 22.8154 41.8715C19.6592 41.7659 17.1252 39.2318 17.0195 36.0757C17.0161 35.9753 17.0161 35.8566 17.0161 35.6192C17.0161 35.3818 17.0161 35.2631 17.0128 35.1628C16.9071 32.0066 14.3731 29.4726 11.2169 29.3669C11.1165 29.3635 10.9978 29.3635 10.7604 29.3635Z" fill="url(#paint0_linear_151_1480)"/>
<path d="M2 29.3636H10.7604C10.9978 29.3636 11.1165 29.3636 11.2169 29.367C14.3731 29.4727 16.9071 32.0067 17.0128 35.1629C17.0161 35.2632 17.0161 35.3819 17.0161 35.6193V35.6193C17.0161 35.8567 17.0161 35.9754 17.0195 36.0758C17.1252 39.2319 19.6592 41.766 22.8154 41.8716C22.9157 41.875 23.0344 41.875 23.2718 41.875H24.3292C25.5491 41.875 26.1591 41.875 26.6684 41.7866C29.1652 41.3532 31.1204 39.3979 31.5538 36.9012C31.6422 36.3919 31.6422 35.7819 31.6422 34.562V30.4285C31.6422 29.0271 31.6422 28.3263 31.7588 27.7437C32.2338 25.3686 34.0904 23.512 36.4655 23.037C37.0481 22.9205 37.7488 22.9205 39.1503 22.9205H40.88C44.0713 22.9205 46.6584 20.3334 46.6584 17.1421V17.1421C46.6584 13.9507 49.2454 11.3636 52.4368 11.3636H53.9714C55.1914 11.3636 55.8014 11.3636 56.3107 11.4521C58.8074 11.8855 60.7626 13.8407 61.196 16.3375C61.2845 16.8467 61.2845 17.4567 61.2845 18.6767V23.1851C61.2845 24.5866 61.2845 25.2873 61.401 25.8699C61.876 28.2451 63.7326 30.1016 66.1077 30.5767C66.6903 30.6932 67.391 30.6932 68.7925 30.6932V30.6932C70.194 30.6932 70.8947 30.6932 71.4773 30.8097C73.8525 31.2848 75.709 33.1413 76.1841 35.5164C76.3006 36.099 76.3006 36.7998 76.3006 38.2013V44.2182C76.3006 45.5289 76.3006 46.1843 76.4026 46.7303C76.8575 49.1662 78.7631 51.0719 81.199 51.5268C81.7451 51.6288 82.4004 51.6288 83.7111 51.6288V51.6288C85.0218 51.6288 85.6772 51.6288 86.2233 51.5268C88.6591 51.0719 90.5648 49.1662 91.0197 46.7303C91.1217 46.1843 91.1217 45.5289 91.1217 44.2182V43.4835C91.1217 42.2635 91.1217 41.6536 91.2101 41.1443C91.6435 38.6475 93.5988 36.6923 96.0955 36.2589C96.6048 36.1705 97.2148 36.1705 98.4347 36.1705H99.4126C99.7238 36.1705 99.8795 36.1705 100.011 36.1647C103.118 36.0283 105.606 33.5406 105.742 30.4337C105.748 30.3021 105.748 30.1465 105.748 29.8352V29.8352C105.748 29.524 105.748 29.3683 105.754 29.2368C105.89 26.1299 108.378 23.6422 111.485 23.5058C111.616 23.5 111.772 23.5 112.083 23.5H114.501C114.564 23.5 114.596 23.5 114.622 23.4998C117.894 23.4706 120.539 20.8254 120.569 17.5536C120.569 17.5268 120.569 17.4951 120.569 17.4318V17.4318C120.569 17.3685 120.569 17.3369 120.569 17.3101C120.598 14.0383 123.244 11.3931 126.515 11.3639C126.542 11.3636 126.574 11.3636 126.637 11.3636H135" stroke="#60A5FA" stroke-width="2" stroke-linecap="round"/>
<rect x="1" y="23.5" width="10" height="10" rx="4" fill="#60A5FA"/>
<rect x="1" y="23.5" width="10" height="10" rx="4" stroke="#F5F5F5" stroke-width="2"/>
<rect x="126" y="6.5" width="10" height="10" rx="4" fill="#60A5FA"/>
<rect x="126" y="6.5" width="10" height="10" rx="4" stroke="#F5F5F5" stroke-width="2"/>
<defs>
<linearGradient id="paint0_linear_151_1480" x1="68.5" y1="56" x2="68.5" y2="11.3635" gradientUnits="userSpaceOnUse">
<stop stop-color="#3B82F6" stop-opacity="0"/>
<stop offset="1" stop-color="#3B82F6"/>
</linearGradient>
</defs>
</svg>
