<svg width="137" height="57" viewBox="0 0 137 57" fill="none" xmlns="http://www.w3.org/2000/svg">
<path d="M135 26.3636H129.584C126.224 26.3636 124.543 26.3636 123.26 27.0176C122.131 27.5928 121.213 28.5107 120.638 29.6397C119.984 30.9232 119.984 32.6033 119.984 35.9636V40.5619C119.984 41.7819 119.984 42.3919 119.895 42.9012C119.462 45.3979 117.507 47.3532 115.01 47.7866C114.501 47.875 113.891 47.875 112.671 47.875V47.875C111.451 47.875 110.841 47.875 110.332 47.7866C107.835 47.3532 105.88 45.3979 105.446 42.9012C105.358 42.3919 105.358 41.7819 105.358 40.562V28.4285C105.358 27.027 105.358 26.3263 105.241 25.7437C104.766 23.3686 102.91 21.512 100.535 21.037C99.9519 20.9205 99.2512 20.9205 97.8497 20.9205V20.9205C96.4482 20.9205 95.7475 20.9205 95.1649 21.037C92.7898 21.512 90.9332 23.3686 90.4582 25.7437C90.3416 26.3263 90.3416 27.027 90.3416 28.4285V29.1869C90.3416 30.4069 90.3416 31.0169 90.2532 31.5262C89.8198 34.0229 87.8646 35.9782 85.3678 36.4116C84.8585 36.5 84.2486 36.5 83.0286 36.5V36.5C81.8086 36.5 81.1986 36.5 80.6893 36.4116C78.1926 35.9782 76.2374 34.0229 75.804 31.5262C75.7155 31.0169 75.7155 30.4069 75.7155 29.187V26.2012C75.7155 24.7998 75.7155 24.099 75.599 23.5164C75.124 21.1413 73.2674 19.2848 70.8923 18.8097C70.3097 18.6932 69.609 18.6932 68.2075 18.6932V18.6932C66.806 18.6932 66.1053 18.6932 65.5227 18.8097C63.1475 19.2848 61.291 21.1413 60.8159 23.5164C60.6994 24.099 60.6994 24.7998 60.6994 26.2012V40.2182C60.6994 41.5289 60.6994 42.1843 60.5974 42.7303C60.1425 45.1662 58.2369 47.0718 55.801 47.5268C55.2549 47.6288 54.5996 47.6288 53.2889 47.6288V47.6288C51.9782 47.6288 51.3228 47.6288 50.7767 47.5268C48.3409 47.0718 46.4352 45.1662 45.9803 42.7303C45.8783 42.1843 45.8783 41.5289 45.8783 40.2182V21.4835C45.8783 20.2635 45.8783 19.6535 45.7899 19.1443C45.3565 16.6475 43.4012 14.6923 40.9045 14.2589C40.3952 14.1705 39.7852 14.1705 38.5653 14.1705V14.1705C37.3453 14.1705 36.7353 14.1705 36.226 14.2589C33.7293 14.6923 31.774 16.6475 31.3406 19.1443C31.2522 19.6535 31.2522 20.2635 31.2522 21.4835V44.0895C31.2522 45.4002 31.2522 46.0555 31.1502 46.6016C30.6953 49.0374 28.7896 50.9431 26.3538 51.398C25.8077 51.5 25.1523 51.5 23.8416 51.5V51.5C22.5309 51.5 21.8756 51.5 21.3295 51.398C18.8936 50.9431 16.988 49.0374 16.5331 46.6016C16.4311 46.0555 16.4311 45.4002 16.4311 44.0894V43.9318C16.4311 42.4744 16.4311 41.7456 16.3051 41.1406C15.8184 38.8029 13.9918 36.9763 11.6541 36.4896C11.0491 36.3636 10.3204 36.3636 8.86291 36.3636H2" stroke="#3B82F6" stroke-width="2" stroke-linecap="round"/>
<path opacity="0.4" d="M129.584 26.3636H135V55.5H2V36.3636H8.86292C10.3204 36.3636 11.0491 36.3636 11.6541 36.4896C13.9918 36.9763 15.8184 38.8029 16.3051 41.1406C16.4311 41.7456 16.4311 42.4744 16.4311 43.9318V44.0894C16.4311 45.4002 16.4311 46.0555 16.5331 46.6016C16.988 49.0374 18.8936 50.9431 21.3295 51.398C21.8756 51.5 22.5309 51.5 23.8416 51.5C25.1523 51.5 25.8077 51.5 26.3538 51.398C28.7896 50.9431 30.6953 49.0374 31.1502 46.6016C31.2522 46.0555 31.2522 45.4002 31.2522 44.0895V21.4835C31.2522 20.2635 31.2522 19.6535 31.3406 19.1443C31.774 16.6475 33.7293 14.6923 36.226 14.2589C36.7353 14.1705 37.3453 14.1705 38.5652 14.1705C39.7852 14.1705 40.3952 14.1705 40.9045 14.2589C43.4012 14.6923 45.3565 16.6475 45.7899 19.1443C45.8783 19.6535 45.8783 20.2635 45.8783 21.4835V40.2182C45.8783 41.5289 45.8783 42.1843 45.9803 42.7303C46.4352 45.1662 48.3409 47.0718 50.7767 47.5268C51.3228 47.6288 51.9782 47.6288 53.2889 47.6288C54.5996 47.6288 55.2549 47.6288 55.801 47.5268C58.2369 47.0718 60.1425 45.1662 60.5974 42.7303C60.6994 42.1843 60.6994 41.5289 60.6994 40.2182V26.2012C60.6994 24.7998 60.6994 24.099 60.8159 23.5164C61.291 21.1413 63.1475 19.2848 65.5227 18.8097C66.1053 18.6932 66.806 18.6932 68.2075 18.6932C69.609 18.6932 70.3097 18.6932 70.8923 18.8097C73.2674 19.2848 75.124 21.1413 75.599 23.5164C75.7155 24.099 75.7155 24.7998 75.7155 26.2012V29.187C75.7155 30.4069 75.7155 31.0169 75.804 31.5262C76.2374 34.0229 78.1926 35.9782 80.6894 36.4116C81.1986 36.5 81.8086 36.5 83.0286 36.5C84.2486 36.5 84.8585 36.5 85.3678 36.4116C87.8646 35.9782 89.8198 34.0229 90.2532 31.5262C90.3416 31.0169 90.3416 30.4069 90.3416 29.1869V28.4285C90.3416 27.027 90.3416 26.3263 90.4582 25.7437C90.9332 23.3686 92.7898 21.512 95.1649 21.037C95.7475 20.9205 96.4482 20.9205 97.8497 20.9205C99.2512 20.9205 99.9519 20.9205 100.535 21.037C102.91 21.512 104.766 23.3686 105.241 25.7437C105.358 26.3263 105.358 27.027 105.358 28.4285V40.562C105.358 41.7819 105.358 42.3919 105.446 42.9012C105.88 45.3979 107.835 47.3532 110.332 47.7866C110.841 47.875 111.451 47.875 112.671 47.875C113.891 47.875 114.501 47.875 115.01 47.7866C117.507 47.3532 119.462 45.3979 119.895 42.9012C119.984 42.3919 119.984 41.7819 119.984 40.5619V35.9636C119.984 32.6033 119.984 30.9232 120.638 29.6397C121.213 28.5107 122.131 27.5928 123.26 27.0176C124.543 26.3636 126.224 26.3636 129.584 26.3636Z" fill="url(#paint0_linear_151_1606)"/>
<rect x="1" y="30.5" width="10" height="10" rx="4" fill="#3B82F6"/>
<rect x="1" y="30.5" width="10" height="10" rx="4" stroke="#F5F5F5" stroke-width="2"/>
<rect x="126" y="20.5" width="10" height="10" rx="4" fill="#3B82F6"/>
<rect x="126" y="20.5" width="10" height="10" rx="4" stroke="#F5F5F5" stroke-width="2"/>
<defs>
<linearGradient id="paint0_linear_151_1606" x1="68.5" y1="55.5" x2="68.5" y2="14.1705" gradientUnits="userSpaceOnUse">
<stop stop-color="#3B82F6" stop-opacity="0"/>
<stop offset="1" stop-color="#3B82F6"/>
</linearGradient>
</defs>
</svg>
