<svg width="137" height="58" viewBox="0 0 137 58" fill="none" xmlns="http://www.w3.org/2000/svg">
<path d="M135 21.6364H124.228C121.884 21.6364 119.984 23.5366 119.984 25.8807V25.8807C119.984 28.2248 118.084 30.125 115.74 30.125H108.835C106.915 30.125 105.358 31.6818 105.358 33.6023V33.6023C105.358 35.5227 103.801 37.0795 101.88 37.0795H97.5519C96.4275 37.0795 95.8654 37.0795 95.3951 37.1547C92.8341 37.5638 90.8259 39.572 90.4168 42.133C90.3416 42.6033 90.3416 43.1655 90.3416 44.2898V44.2898C90.3416 45.4141 90.3416 45.9762 90.2665 46.4465C89.8574 49.0075 87.8491 51.0157 85.2882 51.4249C84.8179 51.5 84.2387 51.5 83.0804 51.5V51.5C81.8259 51.5 81.1986 51.5 80.6893 51.4116C78.1926 50.9782 76.2374 49.0229 75.804 46.5262C75.7155 46.0169 75.7155 45.4069 75.7155 44.1869V36.8149C75.7155 35.4134 75.7155 34.7127 75.599 34.1301C75.124 31.7549 73.2674 29.8984 70.8923 29.4233C70.3097 29.3068 69.609 29.3068 68.2075 29.3068V29.3068C66.806 29.3068 66.1053 29.3068 65.5227 29.1903C63.1475 28.7152 61.291 26.8587 60.8159 24.4836C60.6994 23.901 60.6994 23.2002 60.6994 21.7987V17.7818C60.6994 16.4711 60.6994 15.8157 60.5974 15.2697C60.1425 12.8338 58.2369 10.9282 55.801 10.4732C55.2549 10.3712 54.5996 10.3712 53.2889 10.3712V10.3712C51.9782 10.3712 51.3228 10.3712 50.7767 10.4732C48.3408 10.9282 46.4352 12.8338 45.9803 15.2697C45.8783 15.8157 45.8783 16.4711 45.8783 17.7818V36.5165C45.8783 37.7365 45.8783 38.3464 45.7899 38.8557C45.3565 41.3525 43.4012 43.3077 40.9045 43.7411C40.3952 43.8295 39.7852 43.8295 38.5652 43.8295V43.8295C37.3453 43.8295 36.7353 43.8295 36.226 43.7411C33.7293 43.3077 31.774 41.3525 31.3406 38.8557C31.2522 38.3464 31.2522 37.7365 31.2522 36.5165V13.9105C31.2522 12.5998 31.2522 11.9445 31.1502 11.3984C30.6953 8.96255 28.7896 7.05693 26.3538 6.60199C25.8077 6.5 25.1523 6.5 23.8416 6.5V6.5C22.5309 6.5 21.8756 6.5 21.3295 6.60199C18.8936 7.05693 16.988 8.96255 16.5331 11.3984C16.4311 11.9445 16.4311 12.5998 16.4311 13.9106V14.0682C16.4311 15.5256 16.4311 16.2544 16.3051 16.8594C15.8184 19.1971 13.9918 21.0237 11.6541 21.5104C11.0491 21.6364 10.3204 21.6364 8.86291 21.6364H2" stroke="#F43F5E" stroke-width="2" stroke-linecap="round"/>
<path opacity="0.4" d="M124.228 21.6364H135V57.5H2V21.6364H8.86292C10.3204 21.6364 11.0491 21.6364 11.6541 21.5104C13.9918 21.0237 15.8184 19.1971 16.3051 16.8594C16.4311 16.2544 16.4311 15.5256 16.4311 14.0682V13.9106C16.4311 12.5998 16.4311 11.9445 16.5331 11.3984C16.988 8.96255 18.8936 7.05693 21.3295 6.60199C21.8756 6.5 22.5309 6.5 23.8416 6.5C25.1523 6.5 25.8077 6.5 26.3538 6.60199C28.7896 7.05693 30.6953 8.96255 31.1502 11.3984C31.2522 11.9445 31.2522 12.5998 31.2522 13.9105V36.5165C31.2522 37.7365 31.2522 38.3465 31.3406 38.8557C31.774 41.3525 33.7293 43.3077 36.226 43.7411C36.7353 43.8295 37.3453 43.8295 38.5652 43.8295C39.7852 43.8295 40.3952 43.8295 40.9045 43.7411C43.4012 43.3077 45.3565 41.3525 45.7899 38.8557C45.8783 38.3465 45.8783 37.7365 45.8783 36.5165V17.7818C45.8783 16.4711 45.8783 15.8157 45.9803 15.2697C46.4352 12.8338 48.3409 10.9282 50.7767 10.4732C51.3228 10.3712 51.9782 10.3712 53.2889 10.3712C54.5996 10.3712 55.2549 10.3712 55.801 10.4732C58.2369 10.9282 60.1425 12.8338 60.5974 15.2697C60.6994 15.8157 60.6994 16.4711 60.6994 17.7818V21.7988C60.6994 23.2002 60.6994 23.901 60.8159 24.4836C61.291 26.8587 63.1475 28.7152 65.5227 29.1903C66.1053 29.3068 66.806 29.3068 68.2075 29.3068C69.609 29.3068 70.3097 29.3068 70.8923 29.4233C73.2674 29.8984 75.124 31.7549 75.599 34.1301C75.7155 34.7127 75.7155 35.4134 75.7155 36.8149V44.187C75.7155 45.4069 75.7155 46.0169 75.804 46.5262C76.2374 49.0229 78.1926 50.9782 80.6894 51.4116C81.1986 51.5 81.8259 51.5 83.0804 51.5C84.2387 51.5 84.8179 51.5 85.2882 51.4249C87.8491 51.0157 89.8574 49.0075 90.2665 46.4465C90.3416 45.9763 90.3416 45.4141 90.3416 44.2898C90.3416 43.1655 90.3416 42.6033 90.4168 42.133C90.8259 39.572 92.8341 37.5638 95.3951 37.1547C95.8654 37.0795 96.4275 37.0795 97.5519 37.0795H101.881C103.801 37.0795 105.358 35.5227 105.358 33.6023C105.358 31.6818 106.915 30.125 108.835 30.125H115.74C118.084 30.125 119.984 28.2248 119.984 25.8807C119.984 23.5366 121.884 21.6364 124.228 21.6364Z" fill="url(#paint0_linear_151_1203)"/>
<rect x="1" y="16.5" width="10" height="10" rx="4" fill="#F43F5E"/>
<rect x="1" y="16.5" width="10" height="10" rx="4" stroke="#F5F5F5" stroke-width="2"/>
<rect x="126" y="16.5" width="10" height="10" rx="4" fill="#F43F5E"/>
<rect x="126" y="16.5" width="10" height="10" rx="4" stroke="#F5F5F5" stroke-width="2"/>
<defs>
<linearGradient id="paint0_linear_151_1203" x1="68.5" y1="6.5" x2="68.5" y2="57.5" gradientUnits="userSpaceOnUse">
<stop stop-color="#F43F5E"/>
<stop offset="1" stop-color="#F43F5E" stop-opacity="0"/>
</linearGradient>
</defs>
</svg>
