<svg width="60" height="60" viewBox="0 0 60 60" fill="none" xmlns="http://www.w3.org/2000/svg">
<rect width="60" height="60" rx="21" fill="white" fill-opacity="0.32"/>
<path fill-rule="evenodd" clip-rule="evenodd" d="M28.1735 21.25H31.8265C32.5663 21.2499 33.0257 21.2499 33.4245 21.3024C36.173 21.6643 38.3358 23.827 38.6976 26.5755C38.7501 26.9743 38.7501 27.4337 38.75 28.1735V28.3265C38.7501 29.0663 38.7501 29.5257 38.6976 29.9245C38.3358 32.673 36.173 34.8358 33.4245 35.1976C33.0257 35.2501 32.5663 35.2501 31.8265 35.25L27.307 35.25C26.4621 35.25 25.6518 35.5856 25.0544 36.1831C23.6505 37.587 21.25 36.5927 21.25 34.6072L21.25 28.1735C21.2499 27.4337 21.2499 26.9743 21.3024 26.5755C21.6643 23.827 23.827 21.6643 26.5755 21.3024C26.9743 21.2499 27.4337 21.2499 28.1735 21.25ZM26.5 29.125C26.9833 29.125 27.375 28.7332 27.375 28.25C27.375 27.7668 26.9833 27.375 26.5 27.375C26.0168 27.375 25.625 27.7668 25.625 28.25C25.625 28.7332 26.0168 29.125 26.5 29.125ZM30.875 28.25C30.875 28.7332 30.4833 29.125 30 29.125C29.5168 29.125 29.125 28.7332 29.125 28.25C29.125 27.7668 29.5168 27.375 30 27.375C30.4833 27.375 30.875 27.7668 30.875 28.25ZM33.5 29.125C33.9833 29.125 34.375 28.7332 34.375 28.25C34.375 27.7668 33.9833 27.375 33.5 27.375C33.0168 27.375 32.625 27.7668 32.625 28.25C32.625 28.7332 33.0168 29.125 33.5 29.125Z" fill="white"/>
</svg>
