<svg width="56" height="56" viewBox="0 0 56 56" fill="none" xmlns="http://www.w3.org/2000/svg">
<rect width="56" height="56" rx="21" fill="white"/>
<path d="M26.25 32.375C26.25 31.8918 26.6418 31.5 27.125 31.5H28.875C29.3582 31.5 29.75 31.8918 29.75 32.375C29.75 32.8582 29.3582 33.25 28.875 33.25H27.125C26.6418 33.25 26.25 32.8582 26.25 32.375Z" fill="#A2A9A4"/>
<path fill-rule="evenodd" clip-rule="evenodd" d="M27.9689 19.25H28.0311C28.8201 19.25 29.4566 19.25 29.9746 19.2853C30.5073 19.3217 30.9783 19.3983 31.4242 19.583C32.4962 20.0271 33.3479 20.8788 33.792 21.9508C33.9767 22.3967 34.0533 22.8677 34.0897 23.4004C34.125 23.9184 34.125 24.5549 34.125 25.3439V30.6561C34.125 31.4451 34.125 32.0816 34.0897 32.5996C34.0533 33.1323 33.9767 33.6033 33.792 34.0492C33.3479 35.1212 32.4962 35.9729 31.4242 36.417C30.9783 36.6017 30.5073 36.6783 29.9746 36.7147C29.4566 36.75 28.8201 36.75 28.0311 36.75H27.9689C27.1799 36.75 26.5434 36.75 26.0254 36.7147C25.4927 36.6783 25.0217 36.6017 24.5758 36.417C23.5038 35.9729 22.6521 35.1212 22.208 34.0492C22.0233 33.6033 21.9467 33.1323 21.9103 32.5996C21.875 32.0816 21.875 31.4451 21.875 30.6561V25.3439C21.875 24.5549 21.875 23.9184 21.9103 23.4004C21.9467 22.8677 22.0233 22.3967 22.208 21.9508C22.6521 20.8788 23.5038 20.0271 24.5758 19.583C25.0217 19.3983 25.4927 19.3217 26.0254 19.2853C26.5434 19.25 27.1799 19.25 27.9689 19.25ZM25.3876 21.149C25.3363 21.1647 25.2894 21.1816 25.2455 21.1998C24.6023 21.4662 24.0912 21.9773 23.8248 22.6205C23.7431 22.8177 23.6865 23.076 23.6563 23.5195C23.6255 23.9709 23.625 24.5476 23.625 25.375V30.625C23.625 31.4524 23.6255 32.0291 23.6563 32.4805C23.6865 32.924 23.7431 33.1823 23.8248 33.3795C24.0912 34.0227 24.6023 34.5338 25.2455 34.8002C25.4427 34.8819 25.701 34.9385 26.1445 34.9687C26.5959 34.9995 27.1726 35 28 35C28.8274 35 29.4041 34.9995 29.8555 34.9687C30.299 34.9385 30.5573 34.8819 30.7545 34.8002C31.3977 34.5338 31.9088 34.0227 32.1752 33.3795C32.2569 33.1823 32.3135 32.924 32.3437 32.4805C32.3745 32.0291 32.375 31.4524 32.375 30.625V25.375C32.375 24.5476 32.3745 23.9709 32.3437 23.5195C32.3135 23.076 32.2569 22.8177 32.1752 22.6205C31.9088 21.9773 31.3977 21.4662 30.7545 21.1998C30.7106 21.1816 30.6637 21.1647 30.6124 21.149C30.5416 21.5613 30.1825 21.875 29.75 21.875H26.25C25.8175 21.875 25.4584 21.5613 25.3876 21.149Z" fill="#A2A9A4"/>
</svg>
