<svg width="56" height="56" viewBox="0 0 56 56" fill="none" xmlns="http://www.w3.org/2000/svg">
<rect width="56" height="56" rx="21" fill="white"/>
<path fill-rule="evenodd" clip-rule="evenodd" d="M23.625 21.984C23.3457 22.0316 23.0816 22.102 22.8258 22.208C21.7538 22.6521 20.9021 23.5038 20.458 24.5758C20.2733 25.0217 20.1967 25.4927 20.1603 26.0254C20.1386 26.3444 20.1302 26.7082 20.127 27.125H20.125C19.6418 27.125 19.25 27.5168 19.25 28C19.25 28.4832 19.6418 28.875 20.125 28.875H20.127C20.1302 29.2918 20.1386 29.6556 20.1603 29.9746C20.1967 30.5073 20.2733 30.9783 20.458 31.4242C20.9021 32.4962 21.7538 33.3479 22.8258 33.792C23.2717 33.9767 23.7427 34.0533 24.2754 34.0897C24.7934 34.125 25.4298 34.125 26.2188 34.125H29.7811C30.5701 34.125 31.2066 34.125 31.7246 34.0897C32.2573 34.0533 32.7283 33.9767 33.1742 33.792C34.2462 33.3479 35.0979 32.4962 35.542 31.4242C35.7267 30.9783 35.8033 30.5073 35.8397 29.9746C35.8614 29.6556 35.8698 29.2918 35.873 28.875H35.875C36.3582 28.875 36.75 28.4832 36.75 28C36.75 27.5168 36.3582 27.125 35.875 27.125H35.873C35.8698 26.7082 35.8614 26.3444 35.8397 26.0254C35.8033 25.4927 35.7267 25.0217 35.542 24.5758C35.0979 23.5038 34.2462 22.6521 33.1742 22.208C32.9184 22.102 32.6543 22.0316 32.375 21.984C32.3749 22.3336 32.3737 22.6375 32.3563 22.8921C32.3366 23.1807 32.2933 23.4694 32.1752 23.7545C31.9088 24.3977 31.3977 24.9088 30.7545 25.1752C30.4694 25.2933 30.1807 25.3366 29.8921 25.3563C29.618 25.375 29.2868 25.375 28.903 25.375H27.097C26.7132 25.375 26.382 25.375 26.1079 25.3563C25.8193 25.3366 25.5306 25.2933 25.2455 25.1752C24.6023 24.9088 24.0912 24.3977 23.8248 23.7545C23.7067 23.4694 23.6634 23.1807 23.6437 22.8921C23.6263 22.6375 23.6251 22.3336 23.625 21.984ZM26.25 28C26.25 28.4832 25.8582 28.875 25.375 28.875C24.8918 28.875 24.5 28.4832 24.5 28C24.5 27.5168 24.8918 27.125 25.375 27.125C25.8582 27.125 26.25 27.5168 26.25 28ZM30.625 28.875C31.1082 28.875 31.5 28.4832 31.5 28C31.5 27.5168 31.1082 27.125 30.625 27.125C30.1418 27.125 29.75 27.5168 29.75 28C29.75 28.4832 30.1418 28.875 30.625 28.875Z" fill="#A2A9A4"/>
<path d="M30.625 21.877C30.365 21.875 30.0843 21.875 29.7812 21.875H26.2189C25.9158 21.875 25.635 21.875 25.375 21.877C25.375 22.2955 25.3755 22.5659 25.3896 22.773C25.4032 22.9725 25.4265 23.0484 25.4416 23.0848C25.5304 23.2992 25.7008 23.4696 25.9152 23.5584C25.9516 23.5735 26.0275 23.5968 26.227 23.6104C26.4344 23.6245 26.7053 23.625 27.125 23.625H28.875C29.2947 23.625 29.5656 23.6245 29.773 23.6104C29.9725 23.5968 30.0484 23.5735 30.0848 23.5584C30.2992 23.4696 30.4696 23.2992 30.5584 23.0848C30.5735 23.0484 30.5968 22.9725 30.6104 22.773C30.6245 22.5659 30.625 22.2955 30.625 21.877Z" fill="#A2A9A4"/>
</svg>
