<svg width="56" height="57" viewBox="0 0 56 57" fill="none" xmlns="http://www.w3.org/2000/svg">
<rect y="0.5" width="56" height="56" rx="21" fill="white"/>
<path d="M20.125 28.5H21.315C22.1946 28.5 22.6344 28.5 23.018 28.6034C23.7666 28.8053 24.408 29.289 24.8077 29.9534C25.0125 30.2938 25.1333 30.7167 25.375 31.5625L26.0433 33.9015C26.1656 34.3297 26.5571 34.625 27.0025 34.625V34.625C27.5534 34.625 28 34.1784 28 33.6275V23.3725C28 22.8216 28.4466 22.375 28.9975 22.375V22.375C29.4429 22.375 29.8344 22.6703 29.9567 23.0985L30.625 25.4375C30.8667 26.2833 30.9875 26.7062 31.1923 27.0466C31.592 27.711 32.2334 28.1947 32.982 28.3966C33.3656 28.5 33.8054 28.5 34.685 28.5H35.875" stroke="#F43F5E" stroke-width="2" stroke-linecap="round" stroke-linejoin="round"/>
</svg>
