<svg width="56" height="56" viewBox="0 0 56 56" fill="none" xmlns="http://www.w3.org/2000/svg">
<rect width="56" height="56" rx="21" fill="white"/>
<path d="M21.741 21.6789C23.3482 20.3733 25.6507 20.3733 27.258 21.6789C27.434 21.8219 27.6149 22.0029 27.8806 22.2686L27.9182 22.3062C27.9581 22.3462 27.98 22.368 27.9963 22.3837L27.9995 22.3868L28.0027 22.3837C28.019 22.368 28.0408 22.3462 28.0808 22.3062L28.1184 22.2686C28.3841 22.0029 28.565 21.8219 28.741 21.6789C30.3482 20.3733 32.6507 20.3733 34.258 21.6789C34.434 21.8219 34.6149 22.0029 34.8806 22.2686L35.2487 22.6367C35.7292 23.117 36.0567 23.4444 36.2882 23.7836C36.9736 24.7877 37.1963 26.0062 36.9564 27.1496C36.89 27.1335 36.8208 27.125 36.7495 27.125H31.9972C31.1209 27.125 30.8651 27.116 30.6458 27.0494C30.4257 26.9826 30.2209 26.873 30.0431 26.7269C29.8661 26.5814 29.7168 26.3735 29.2307 25.6443L28.7275 24.8896C28.5136 24.5688 28.1149 24.4258 27.7459 24.5375C27.3769 24.6492 27.1245 24.9894 27.1245 25.375V27.9697C27.1055 27.9532 27.0864 27.937 27.067 27.921C26.7115 27.6289 26.3019 27.4097 25.8617 27.276C25.3617 27.1242 24.8264 27.1245 24.1171 27.1249L19.2495 27.125C19.1782 27.125 19.1089 27.1335 19.0426 27.1496C18.8026 26.0062 19.0253 24.7877 19.7107 23.7836C19.9422 23.4444 20.2697 23.1171 20.7502 22.6368L21.1184 22.2686C21.3841 22.0029 21.565 21.8219 21.741 21.6789Z" fill="#F43F5E"/>
<path d="M19.8263 28.875C20.0482 29.1615 20.3447 29.4578 20.7502 29.8632L23.4475 32.5604C24.118 33.2309 24.6588 33.7718 25.1326 34.174C25.6204 34.5881 26.0943 34.9063 26.6475 35.0861C27.5262 35.3716 28.4727 35.3716 29.3514 35.0861C29.9046 34.9063 30.3785 34.5881 30.8663 34.174C31.3401 33.7718 31.881 33.2309 32.5515 32.5603L35.2487 29.8632C35.6542 29.4579 35.9508 29.1614 36.1726 28.875L31.8819 28.875C31.1725 28.8754 30.6372 28.8757 30.1373 28.7239C29.697 28.5902 29.2874 28.371 28.932 28.0789C28.9126 28.0629 28.8934 28.0467 28.8745 28.0302V30.625C28.8745 31.0105 28.6221 31.3507 28.253 31.4624C27.884 31.5741 27.4853 31.4311 27.2714 31.1103L26.7683 30.3556C26.2822 29.6265 26.1328 29.4185 25.9558 29.273C25.7781 29.1269 25.5733 29.0173 25.3531 28.9505C25.1338 28.8839 24.878 28.875 24.0017 28.875H19.8263Z" fill="#F43F5E"/>
</svg>
