<svg width="56" height="57" viewBox="0 0 56 57" fill="none" xmlns="http://www.w3.org/2000/svg">
<rect width="56" height="56" rx="21" transform="matrix(1 0 0 -1 0 56.5)" fill="white"/>
<path d="M18.8684 18.0215C18.5487 18.0596 18.186 18.2398 17.9561 18.4754C17.7586 18.6729 17.5718 18.9986 17.5251 19.2238L17.5 19.3381H21.6878H25.8756V19.2584C25.8756 19.1337 25.6493 18.7145 25.4841 18.5378C25.3081 18.3437 25.0639 18.1878 24.7766 18.0839L24.5646 18.0042L21.8171 18.0007C20.305 17.9973 18.9797 18.0076 18.8684 18.0215Z" fill="#3B82F6"/>
<path d="M32.5553 18.0458C32.1853 18.0804 31.6394 18.174 31.3593 18.2502C29.664 18.7041 28.2992 19.844 27.642 21.3478C27.3367 22.0476 27.2146 22.6228 27.2074 23.4266C27.193 24.8195 27.6096 25.949 28.5614 27.1063C28.9816 27.6121 29.7071 28.1561 30.4147 28.4853C30.8744 28.7001 31.1976 28.804 31.7831 28.9218C32.7672 29.1193 34.0422 29.0188 34.9257 28.6724C36.7107 27.9759 37.9893 26.5069 38.4167 24.6705C38.4886 24.3483 38.4993 24.2235 38.4993 23.5133C38.4957 22.7787 38.4886 22.6886 38.4024 22.3352C38.1689 21.3893 37.7523 20.5959 37.1094 19.8925C36.5958 19.3278 36.0391 18.9259 35.31 18.5932C34.6348 18.2883 34.1607 18.1601 33.3454 18.07C32.9036 18.0215 32.8103 18.0215 32.5553 18.0458ZM33.6363 19.4629C35.1699 19.7435 36.3983 20.7414 36.8939 22.11C37.0986 22.6782 37.1345 22.9035 37.1309 23.5652C37.1273 24.1265 37.1202 24.2028 37.016 24.5873C36.8795 25.0897 36.5994 25.6614 36.2941 26.053C35.3675 27.2345 33.8446 27.8443 32.3254 27.6398C30.5116 27.3938 29.154 26.2366 28.6907 24.5354C28.5542 24.0399 28.5327 23.34 28.6404 22.803C28.9816 21.0636 30.2207 19.844 32.0165 19.4733C32.4152 19.3936 33.2233 19.3867 33.6363 19.4629Z" fill="#3B82F6"/>
<path d="M32.7103 20.0311L32.5918 20.1004V20.4988C32.5918 20.88 32.5954 20.9042 32.6816 20.9839C32.8324 21.1329 33.0515 21.0809 33.1305 20.8834C33.17 20.7795 33.1808 20.2702 33.1449 20.142C33.1234 20.0657 32.9653 19.9618 32.8719 19.9618C32.8468 19.9618 32.7714 19.993 32.7103 20.0311Z" fill="#3B82F6"/>
<path d="M30.29 20.8938C30.2074 20.9735 30.1859 21.0254 30.1859 21.1398C30.1859 21.3061 30.132 21.2437 31.3998 22.5014L32.0894 23.184V23.3746C32.0894 23.6899 32.3085 24.0225 32.5815 24.123C32.7287 24.175 33.0663 24.1576 33.2244 24.0883C33.4506 23.9879 33.6338 23.7072 33.6338 23.4647C33.6338 23.0766 33.2531 22.7024 32.8616 22.6989C32.7251 22.6989 32.6928 22.6747 32.287 22.2866C32.0499 22.0614 31.5938 21.6352 31.2705 21.3338C30.7138 20.8176 30.6815 20.7933 30.5414 20.7933C30.4301 20.7933 30.3726 20.8176 30.29 20.8938Z" fill="#3B82F6"/>
<path d="M34.8473 21.1087C34.5959 21.3616 34.5312 21.4482 34.5312 21.5279C34.5312 21.6665 34.5851 21.7531 34.7144 21.8155C34.815 21.8675 34.8329 21.8675 34.9335 21.8086C34.9946 21.7739 35.1598 21.6249 35.2963 21.4759C35.5189 21.2403 35.5513 21.1884 35.5477 21.0775C35.5441 20.9874 35.5153 20.9285 35.4471 20.8731C35.2747 20.7275 35.1921 20.7587 34.8473 21.1087Z" fill="#3B82F6"/>
<path d="M29.2328 23.34C29.1286 23.437 29.1214 23.5271 29.1968 23.6657C29.2651 23.7939 29.3082 23.8077 29.6673 23.8077C29.9439 23.8077 29.9798 23.8008 30.0588 23.7211C30.1845 23.6033 30.1809 23.4231 30.0552 23.3261C29.9726 23.2638 29.908 23.2534 29.6386 23.2534C29.3477 23.2534 29.3118 23.2603 29.2328 23.34Z" fill="#3B82F6"/>
<path d="M35.6524 23.3331C35.5447 23.4439 35.5483 23.6137 35.6632 23.7211C35.7422 23.8008 35.7781 23.8077 36.0583 23.8077C36.2307 23.8077 36.3995 23.7939 36.4354 23.7731C36.5288 23.7246 36.5898 23.5271 36.5467 23.4162C36.4929 23.2846 36.4031 23.2534 36.0475 23.2534C35.7602 23.2534 35.7207 23.2603 35.6524 23.3331Z" fill="#3B82F6"/>
<path d="M30.8109 25.2802C30.6816 25.3322 30.2435 25.7688 30.2076 25.8796C30.1465 26.0598 30.3692 26.2954 30.5559 26.2504C30.6565 26.2261 31.0911 25.8103 31.1701 25.6648C31.2491 25.5158 31.1557 25.3149 30.9726 25.256C30.9438 25.2456 30.872 25.256 30.8109 25.2802Z" fill="#3B82F6"/>
<path d="M34.6354 25.3286C34.5636 25.4014 34.5312 25.4637 34.5312 25.5434C34.5312 25.6404 34.5779 25.7028 34.8473 25.9627C35.052 26.1602 35.1921 26.2676 35.2424 26.2676C35.3465 26.2676 35.5297 26.1013 35.5584 25.98C35.58 25.8899 35.5513 25.8518 35.2424 25.5538C34.8653 25.1935 34.8042 25.1692 34.6354 25.3286Z" fill="#3B82F6"/>
<path d="M32.6852 26.0979C32.5954 26.1672 32.5918 26.1811 32.5918 26.5483C32.5918 26.9052 32.5954 26.9329 32.6816 27.0126C32.8001 27.127 32.933 27.1235 33.0623 26.9988C33.1629 26.8983 33.1665 26.8879 33.1665 26.5449C33.1665 26.2192 33.1593 26.188 33.0767 26.1118C32.9689 26.0044 32.8145 26.0009 32.6852 26.0979Z" fill="#3B82F6"/>
<path d="M17.5078 20.7414V21.3096L19.2425 21.32L20.9737 21.3304L21.1748 21.4205C21.4226 21.5348 21.631 21.7254 21.7459 21.9541L21.8357 22.1273L21.8464 23.7488C21.8536 24.861 21.8464 25.4327 21.8177 25.5609C21.7172 26.0183 21.3688 26.4653 20.9665 26.6489C20.5678 26.8325 20.5678 26.8325 18.9911 26.8498L17.5078 26.8637V27.6883C17.5078 28.6169 17.5437 28.8802 17.7269 29.2371C17.9604 29.7014 18.2836 29.982 18.7469 30.1241C18.9983 30.2003 19.0055 30.2003 21.71 30.2003C24.2384 30.2003 24.436 30.1969 24.6371 30.138C24.9639 30.0409 25.1794 29.9127 25.3913 29.691C25.6176 29.4554 25.7397 29.2232 25.8403 28.8525C25.9121 28.5857 25.9121 28.4748 25.9121 24.3725V20.1697H21.71H17.5078V20.7414Z" fill="#3B82F6"/>
<path d="M17.5078 23.0627V24.0156H18.1112C18.7397 24.0156 18.9301 24.0433 19.0306 24.1507C19.1923 24.3239 19.1528 24.6011 18.948 24.7328C18.8331 24.809 18.7936 24.8125 18.1687 24.8125H17.5078V25.4188V26.0251H18.9373C19.7526 26.0251 20.417 26.0113 20.4888 25.9905C20.6648 25.9455 20.8803 25.7618 20.9593 25.5955C21.0204 25.4638 21.0276 25.3322 21.0276 23.78V22.1099H19.2677H17.5078V23.0627Z" fill="#3B82F6"/>
<path d="M30.5694 29.4415C30.5371 29.4727 30.5407 31.3333 30.573 31.5169C30.5945 31.6348 30.6197 31.6659 30.7382 31.7214C30.8926 31.7941 31.3703 31.9154 31.8552 32.0055C32.2539 32.0817 33.4067 32.0921 33.8126 32.0228C34.258 31.9501 34.9224 31.7699 35.0445 31.6937L35.1594 31.6174L35.1702 30.5364C35.1774 29.6841 35.1702 29.4554 35.1343 29.4554C35.1092 29.4554 34.9835 29.4866 34.8542 29.5247C33.7982 29.8365 32.4837 29.8885 31.4422 29.6598C31.1656 29.5974 30.7921 29.4935 30.6484 29.4415C30.6197 29.4277 30.5838 29.4311 30.5694 29.4415Z" fill="#3B82F6"/>
<path d="M20.4531 31.4614C20.4531 31.8599 20.4603 31.9153 20.5285 31.9985C20.6291 32.1232 20.78 32.1925 20.9488 32.1925H21.0888L21.1104 32.8404C21.1714 34.7184 21.8143 36.1667 23.1181 37.3724C24.0196 38.2074 25.0539 38.7133 26.3254 38.935C26.821 39.0217 28.0888 39.0217 28.5342 38.935C30.0462 38.6371 31.156 38.048 32.0791 37.0433C32.8046 36.2567 33.2428 35.4183 33.4547 34.4031C33.5552 33.9353 33.5624 33.8868 33.5876 33.3255L33.6091 32.8508H32.8836H32.1617V33.1003C32.1617 34.1813 31.8205 35.1965 31.2099 35.9345C30.506 36.7834 29.5686 37.3343 28.4624 37.5491C28.1248 37.6149 27.0796 37.6357 26.6666 37.5872C26.1853 37.5318 25.6861 37.3689 25.1222 37.0918C24.0555 36.5651 23.2366 35.6435 22.8272 34.5035C22.644 33.9942 22.5722 33.568 22.547 32.8508L22.5255 32.2029L22.7158 32.1856C22.881 32.1683 22.9277 32.1475 23.0283 32.0401L23.1468 31.9153V31.4649V31.0145H21.8H20.4531V31.4614Z" fill="#3B82F6"/>
</svg>
