<svg width="56" height="57" viewBox="0 0 56 57" fill="none" xmlns="http://www.w3.org/2000/svg">
<rect y="0.5" width="56" height="56" rx="21" fill="white"/>
<path fill-rule="evenodd" clip-rule="evenodd" d="M33.6518 22.2448C31.9355 20.6847 29.3145 20.6847 27.5982 22.2448C27.5185 22.3172 27.4329 22.4028 27.3118 22.524L27.2929 22.5429L23.7929 26.0429L23.774 26.0618L23.774 26.0618C23.6528 26.1829 23.5673 26.2684 23.4948 26.3481C22.0658 27.9203 21.9457 30.2514 23.1346 31.9511L20.2929 34.7929C19.9024 35.1834 19.9024 35.8165 20.2929 36.2071C20.6834 36.5976 21.3166 36.5976 21.7071 36.2071L24.5489 33.3653C26.2485 34.5542 28.5797 34.4342 30.1518 33.0051C30.2315 32.9327 30.3171 32.8471 30.4382 32.7259L30.4571 32.7071L33.9571 29.2071L33.976 29.1882C34.0971 29.0671 34.1827 28.9815 34.2552 28.9018C35.8153 27.1855 35.8153 24.5645 34.2552 22.8481C34.1827 22.7684 34.0972 22.6829 33.9761 22.5618L33.976 22.5617L33.9571 22.5429L33.9382 22.5239L33.9381 22.5239C33.817 22.4028 33.7315 22.3172 33.6518 22.2448ZM31.3321 26.5821C31.7226 26.1916 31.7226 25.5584 31.3321 25.1679C30.9416 24.7774 30.3084 24.7774 29.9179 25.1679L26.4179 28.6679C26.0274 29.0584 26.0274 29.6916 26.4179 30.0821C26.8084 30.4726 27.4416 30.4726 27.8321 30.0821L31.3321 26.5821Z" fill="#8B5CF6"/>
</svg>
