<svg width="56" height="57" viewBox="0 0 56 57" fill="none" xmlns="http://www.w3.org/2000/svg">
<rect y="0.5" width="56" height="56" rx="21" fill="white"/>
<g clip-path="url(#clip0_151_1491)">
<path d="M28.1654 18.0707C27.9382 18.2128 27.0738 19.2719 25.8239 20.9357C23.6163 23.8657 22.1635 26.1017 21.3844 27.7614C20.5525 29.5348 20.3171 31.1215 20.6377 32.7772C21.0232 34.7779 22.2893 36.7379 23.9531 37.931C25.69 39.1728 27.8651 39.6922 29.7846 39.327C32.0003 38.9009 33.8386 37.6591 35.1859 35.6706C35.8109 34.7535 36.3222 33.3738 36.4642 32.2253C36.5373 31.6612 36.4926 30.5169 36.3831 29.9974C36.0584 28.4756 35.1251 26.5765 33.5262 24.1984C32.1058 22.0801 29.4153 18.5455 28.9 18.1194C28.7376 17.9855 28.344 17.9571 28.1654 18.0707ZM26.1405 23.8251C26.25 23.8981 26.319 24.0523 26.319 24.2268C26.319 24.3445 26.2744 24.4176 26.0552 24.657C25.2964 25.4848 24.7648 26.3005 24.3468 27.2866C24.1317 27.802 24.0343 27.8994 23.7381 27.8994C23.4215 27.8994 23.2592 27.591 23.3769 27.2258C23.4986 26.8605 24.0505 25.7892 24.3549 25.3387C24.643 24.9045 25.2599 24.1376 25.4952 23.9144C25.7022 23.7155 25.9254 23.6871 26.1405 23.8251ZM28.6402 28.9991C28.7579 29.0235 29.0095 29.1168 29.2003 29.2061C30.6409 29.896 30.9046 31.8479 29.7116 32.9639C28.8229 33.7917 27.4228 33.7796 26.5787 32.9314C26.2865 32.6392 26.0999 32.343 25.9741 31.9697L25.8807 31.6937L24.4077 31.6815C22.9589 31.6734 22.9346 31.6694 22.8412 31.5841C22.6424 31.3975 22.6464 31.0525 22.8534 30.8577L22.9589 30.7604L24.4279 30.7482L25.901 30.736L25.9497 30.5656C26.0918 30.0867 26.5584 29.5023 27.017 29.2467C27.4593 28.9951 28.1249 28.8936 28.6402 28.9991ZM33.1122 29.7621C33.4369 29.9203 33.6885 30.1719 33.8427 30.4966C33.9563 30.7319 33.9685 30.8009 33.9685 31.1296C33.9685 31.4705 33.9563 31.5152 33.8184 31.7992C33.6844 32.0671 33.587 32.1847 33.0554 32.7001L32.4467 33.2967H33.1082C33.6885 33.2967 33.7818 33.3048 33.8955 33.3778C33.9644 33.4184 34.0456 33.4955 34.07 33.5442C34.1511 33.6903 34.0943 33.9419 33.9523 34.0839L33.8265 34.2097L32.6415 34.2219C31.3551 34.2341 31.2699 34.2219 31.1684 34.0231C31.0913 33.8729 31.0913 33.4955 31.1684 33.3088C31.209 33.2114 31.5174 32.8746 32.0409 32.3633C32.8769 31.5436 32.9743 31.4137 32.9743 31.1175C32.9743 30.6508 32.5117 30.4519 31.9516 30.6792C31.6229 30.8131 31.4971 30.809 31.351 30.663C31.0507 30.3667 31.1806 29.965 31.6351 29.7742C32.1221 29.5713 32.7146 29.5632 33.1122 29.7621Z" fill="#60A5FA"/>
<path d="M27.9097 29.9366C27.792 29.9529 27.6297 30.0056 27.5445 30.0462C27.3334 30.1558 27.0615 30.4398 26.9357 30.6793C26.8383 30.8578 26.8262 30.9309 26.8262 31.2677C26.8262 31.6288 26.8343 31.6694 26.9641 31.9089C27.2726 32.4729 27.865 32.7448 28.4697 32.5906C29.1109 32.4283 29.5248 31.9129 29.5248 31.2677C29.5248 30.4114 28.7943 29.8068 27.9097 29.9366Z" fill="#60A5FA"/>
</g>
<defs>
<clipPath id="clip0_151_1491">
<rect width="21" height="21" fill="white" transform="translate(17.5 18)"/>
</clipPath>
</defs>
</svg>
