<svg width="64" height="64" viewBox="0 0 64 64" fill="none" xmlns="http://www.w3.org/2000/svg">
<rect width="64" height="64" rx="24" fill="#3B82F6"/>
<path d="M31 23.3378C31.0001 23.0056 31.0001 22.8395 30.9167 22.6484C30.8536 22.5036 30.6714 22.2903 30.5382 22.2052C30.3625 22.093 30.2575 22.0764 30.0476 22.0431C29.7734 21.9997 29.4658 21.9998 29.0758 22H28.9243C28.5343 21.9998 28.2267 21.9997 27.9525 22.0431C26.4549 22.2803 25.2803 23.4549 25.0431 24.9525C24.9997 25.2267 24.9998 25.5343 25 25.9243C25 26.0191 25.0645 26.1011 25.1547 26.1304C26.1001 26.437 26.8107 27.2522 26.968 28.2573C27.0005 28.4652 27.0003 28.6944 27.0001 28.9407L27.0001 29C27.0001 29.3443 27.0031 29.4015 27.0081 29.4336C27.0531 29.7213 27.2788 29.9469 27.5665 29.9919C27.5986 29.997 27.6557 30 28.0001 30C28.5523 30 29.0001 30.4477 29.0001 31C29.0001 31.5523 28.5523 32 28.0001 32L27.9407 32C27.6945 32.0002 27.4652 32.0004 27.2573 31.9679C26.1109 31.7885 25.2115 30.8892 25.0322 29.7427C24.9996 29.5349 24.9998 29.3056 25 29.0593L25.0001 29C25.0001 28.6557 24.997 28.5985 24.992 28.5664C24.943 28.2533 25.0655 29.0362 24.9712 28.8739C24.8932 28.7396 24.2298 28.3718 24.0745 28.3767C23.8869 28.3827 24.2865 28.2123 24.1267 28.2805C23.0368 28.7453 22.2346 29.7437 22.0431 30.9525C21.9997 31.2267 21.9998 31.5343 22 31.9243L22 32.0758C21.9998 32.4657 21.9997 32.7734 22.0431 33.0476C22.0764 33.2574 22.093 33.3624 22.2052 33.5381C22.2902 33.6713 22.5036 33.8535 22.6485 33.9167C22.8396 34 23.0056 34 23.3378 34L27.0594 34C27.3056 33.9998 27.5349 33.9996 27.7428 34.0321C28.8892 34.2115 29.7886 35.1108 29.968 36.2573C30.0005 36.4652 30.0003 36.6944 30.0001 36.9407L30.0001 37C30.0001 37.5523 29.5523 38 29.0001 38C28.4478 38 28.0001 37.5523 28.0001 37C28.0001 36.6557 27.997 36.5985 27.992 36.5664C27.947 36.2787 27.7213 36.0531 27.4336 36.0081C27.4015 36.003 27.3444 36 27.0001 36H26.6C26.04 36 25.76 36 25.546 36.109C25.3579 36.2049 25.2049 36.3578 25.109 36.546C25 36.7599 25 37.0399 25 37.6L25 38.0758C24.9998 38.4658 24.9997 38.7734 25.0431 39.0476C25.2803 40.5452 26.4549 41.7198 27.9525 41.957C28.2267 42.0004 28.5343 42.0002 28.9243 42.0001H29.0758C29.4658 42.0002 29.7734 42.0004 30.0476 41.957C30.2484 41.9251 30.4434 41.8765 30.6312 41.8124C31.3909 41.5532 31.7708 41.4236 31.8689 41.4107C32.081 41.3826 31.9191 41.3826 32.1312 41.4107C32.2293 41.4236 32.6091 41.5532 33.3689 41.8124C33.5566 41.8765 33.7517 41.9251 33.9525 41.957C34.2267 42.0004 34.5343 42.0002 34.9243 42.0001H35.0758C35.4658 42.0002 35.7734 42.0004 36.0476 41.957C37.5452 41.7198 38.7198 40.5452 38.957 39.0476C39.0004 38.7734 39.0002 38.4658 39.0001 38.0758L39.0001 37.6C39.0001 37.0399 39.0001 36.7599 38.8911 36.546C38.7952 36.3578 38.6422 36.2049 38.454 36.109C38.2401 36 37.9601 36 37.4001 36H37.0001C36.6557 36 36.5986 36.003 36.5665 36.0081C36.2788 36.0531 36.0531 36.2787 36.0081 36.5664C36.0031 36.5985 36.0001 36.6557 36.0001 37C36.0001 37.5523 35.5523 38 35.0001 38C34.4478 38 34.0001 37.5523 34.0001 37L34 36.9407C33.9998 36.6944 33.9996 36.4651 34.0322 36.2573C34.2115 35.1108 35.1109 34.2115 36.2573 34.0321C36.4652 33.9996 36.6945 33.9998 36.9407 34L40.6623 34C40.9945 34 41.1605 34 41.3516 33.9167C41.4965 33.8535 41.7099 33.6713 41.7949 33.5381C41.9071 33.3624 41.9237 33.2574 41.957 33.0476C42.0004 32.7734 42.0002 32.4658 42.0001 32.0758V31.9243C42.0002 31.5343 42.0004 31.2267 41.957 30.9525C41.7655 29.7437 40.9633 28.7453 39.8734 28.2805C39.7135 28.2123 40.1133 28.3828 39.9257 28.3767C39.7704 28.3718 39.1069 28.7396 39.0289 28.874C38.9346 29.0363 39.0571 28.2532 39.0081 28.5664C39.0031 28.5985 39.0001 28.6557 39.0001 29L39.0001 29.0593C39.0003 29.3056 39.0005 29.5349 38.968 29.7427C38.7886 30.8892 37.8893 31.7885 36.7428 31.9679C36.5349 32.0004 36.3056 32.0002 36.0594 32L36.0001 32C35.4478 32 35.0001 31.5523 35.0001 31C35.0001 30.4477 35.4478 30 36.0001 30C36.3444 30 36.4015 29.997 36.4336 29.9919C36.7213 29.9469 36.947 29.7213 36.992 29.4336C36.997 29.4015 37.0001 29.3443 37.0001 29L37 28.9406C36.9998 28.6944 36.9996 28.4651 37.0322 28.2573C37.1894 27.2522 37.9 26.437 38.8454 26.1304C38.9356 26.1011 39.0001 26.0191 39.0001 25.9243C39.0002 25.5343 39.0004 25.2267 38.957 24.9525C38.7198 23.4549 37.5452 22.2803 36.0476 22.0431C35.7734 21.9997 35.4658 21.9998 35.0758 22H34.9243C34.5343 21.9998 34.2267 21.9997 33.9525 22.0431C33.7426 22.0764 33.6377 22.093 33.4619 22.2052C33.3287 22.2902 33.1466 22.5036 33.0834 22.6484C33.0001 22.8396 33.0001 23.0056 33.0001 23.3378L33.0001 25.0577C33.0004 25.3509 33.0034 25.4033 33.0081 25.4336C33.0531 25.7213 33.2788 25.9469 33.5665 25.9919C33.5986 25.997 33.6557 26 34.0001 26C34.5523 26 35.0001 26.4477 35.0001 27C35.0001 27.5523 34.5523 28 34.0001 28L33.9407 28C33.6945 28.0002 33.4652 28.0004 33.2573 27.9679C33.2221 27.9624 33.1871 27.9562 33.1523 27.9493C32.475 27.8157 32.1363 27.7488 32.0779 27.7442C31.8971 27.7301 32.103 27.7301 31.9222 27.7442C31.8638 27.7488 31.5252 27.8157 30.8478 27.9493C30.813 27.9562 30.778 27.9624 30.7428 27.9679C30.5349 28.0004 30.3057 28.0002 30.0594 28L30.0001 28C29.4478 28 29.0001 27.5523 29.0001 27C29.0001 26.4477 29.4478 26 30.0001 26C30.3444 26 30.4015 25.997 30.4336 25.9919C30.7213 25.9469 30.947 25.7213 30.992 25.4336C30.9967 25.4033 30.9997 25.3509 31 25.0577L31 23.3378Z" fill="white"/>
</svg>
