<svg width="64" height="64" viewBox="0 0 64 64" fill="none" xmlns="http://www.w3.org/2000/svg">
<rect width="64" height="64" rx="24" fill="#EAB308"/>
<path fill-rule="evenodd" clip-rule="evenodd" d="M27.5355 23C25.0306 23 23 25.0306 23 27.5355V29.5858C23 30.7565 23.4651 31.8793 24.2929 32.7071C24.7456 33.1599 25 33.7739 25 34.4142V39.1459C25 40.7222 26.2778 42 27.8541 42C28.9352 42 29.9234 41.3892 30.4069 40.4223L31.5528 38.1305C31.7516 37.7329 31.8754 37.4868 31.977 37.3173C31.9853 37.3035 31.9929 37.2911 32 37.2798C32.0071 37.2911 32.0147 37.3035 32.023 37.3173C32.1246 37.4868 32.2484 37.7329 32.4472 38.1305L33.5931 40.4223C34.0766 41.3892 35.0648 42 36.1459 42C37.7222 42 39 40.7222 39 39.1459V34.4142C39 33.7739 39.2544 33.1599 39.7071 32.7071C40.5349 31.8793 41 30.7565 41 29.5858V27.5355C41 25.0306 38.9694 23 36.4645 23C35.2616 23 34.1079 23.4778 33.2574 24.3284L32.9336 24.6521C32.7016 24.8841 32.65 24.9329 32.6128 24.9618C32.2521 25.2415 31.7479 25.2415 31.3872 24.9618C31.35 24.9329 31.2984 24.8841 31.0664 24.6521L30.7426 24.3284C29.8921 23.4779 28.7384 23 27.5355 23ZM32 32C32.5523 32 33 31.5523 33 31C33 30.4477 32.5523 30 32 30C31.4477 30 31 30.4477 31 31C31 31.5523 31.4477 32 32 32ZM29 29C29 29.5523 28.5523 30 28 30C27.4477 30 27 29.5523 27 29C27 28.4477 27.4477 28 28 28C28.5523 28 29 28.4477 29 29ZM36 30C36.5523 30 37 29.5523 37 29C37 28.4477 36.5523 28 36 28C35.4477 28 35 28.4477 35 29C35 29.5523 35.4477 30 36 30Z" fill="white"/>
</svg>
