<svg width="64" height="64" viewBox="0 0 64 64" fill="none" xmlns="http://www.w3.org/2000/svg">
<rect width="64" height="64" rx="24" fill="#F43F5E"/>
<path fill-rule="evenodd" clip-rule="evenodd" d="M33.0002 26C33.0002 24.8954 33.8956 24 35.0002 24C35.5524 24 36.0002 23.5523 36.0002 23C36.0002 22.4477 35.5524 22 35.0002 22C32.791 22 31.0002 23.7909 31.0002 26V27C31.0002 27.299 31.1314 27.5674 31.3394 27.7506C30.8486 27.6333 30.3831 27.3831 30.0001 27.0001C28.8956 25.8955 27.1047 25.8955 26.0001 27.0001L25.0056 27.9946C24.8987 28.1015 24.8453 28.1549 24.798 28.2056C23.7608 29.3173 23.4435 30.921 23.9793 32.3439C24.0038 32.4088 24.0328 32.4785 24.091 32.618L24.091 32.618L26.6971 38.8727C27.3182 40.3634 29.2538 40.7464 30.3958 39.6044C31.2818 38.7183 32.7184 38.7184 33.6045 39.6044C34.7464 40.7464 36.6821 40.3634 37.3032 38.8727L39.9093 32.618C39.9674 32.4785 39.9965 32.4088 40.0209 32.3439C40.5567 30.921 40.2395 29.3173 39.2023 28.2056C39.155 28.1549 39.1016 28.1015 38.9947 27.9946L38.0001 27.0001C36.8956 25.8955 35.1047 25.8955 34.0001 27.0001C33.6172 27.383 33.1517 27.6332 32.6609 27.7506C32.8689 27.5674 33.0002 27.299 33.0002 27V26ZM35.0002 33C35.0002 33.5523 34.5524 34 34.0002 34C33.4479 34 33.0002 33.5523 33.0002 33C33.0002 32.4477 33.4479 32 34.0002 32C34.5524 32 35.0002 32.4477 35.0002 33ZM30.0002 34C30.5524 34 31.0002 33.5523 31.0002 33C31.0002 32.4477 30.5524 32 30.0002 32C29.4479 32 29.0002 32.4477 29.0002 33C29.0002 33.5523 29.4479 34 30.0002 34Z" fill="white"/>
</svg>
