<svg width="64" height="64" viewBox="0 0 64 64" fill="none" xmlns="http://www.w3.org/2000/svg">
<rect width="64" height="64" rx="24" fill="#60A5FA"/>
<path d="M25.0577 39.5854C25.2945 40.7754 26.2247 41.7057 27.4148 41.9424C27.7077 42.0007 28.0355 42.0004 28.4162 42.0001L28.5001 42.0001L28.584 42.0001C28.9647 42.0004 29.2925 42.0007 29.5854 41.9424C30.7754 41.7057 31.7057 40.7754 31.9424 39.5854C32.0007 39.2925 32.0004 38.9647 32.0001 38.584L32.0001 38.2655C32.0001 37.6383 32.0025 37.4235 32.0312 37.2257C32.103 36.7314 32.2971 36.2629 32.5959 35.8626C32.7154 35.7023 32.8656 35.5488 33.3091 35.1053L35.1052 33.3091C35.5487 32.8656 35.7022 32.7155 35.8625 32.5959C36.2628 32.2971 36.7313 32.103 37.2257 32.0312C37.4235 32.0025 37.6382 32.0001 38.2655 32.0001L38.5839 32.0001C38.9646 32.0004 39.2925 32.0007 39.5854 31.9424C40.7754 31.7057 41.7057 30.7754 41.9424 29.5854C42.0007 29.2925 42.0004 28.9646 42.0001 28.5839L42.0001 28.5L42.0001 28.4161C42.0004 28.0354 42.0007 27.7075 41.9424 27.4147C41.7057 26.2247 40.7755 25.2944 39.5855 25.0577C39.4043 25.0216 39.2096 25.008 38.9973 25.0029C38.9922 24.7905 38.9786 24.5959 38.9425 24.4146C38.7057 23.2247 37.7755 22.2945 36.5855 22.0577C36.2926 21.9995 35.9648 21.9997 35.584 22L35.5001 22.0001L35.4162 22C35.0355 21.9997 34.7076 21.9995 34.4147 22.0578C33.2247 22.2945 32.2945 23.2247 32.0577 24.4147C31.9994 24.7076 31.9997 25.0355 32 25.4162L32 25.7347C32 26.3619 31.9976 26.5766 31.9689 26.7745C31.8971 27.2687 31.703 27.7373 31.4043 28.1375C31.2847 28.2978 31.1346 28.4513 30.691 28.8948L28.8949 30.6911C28.4514 31.1346 28.2978 31.2847 28.1376 31.4043C27.7373 31.703 27.2687 31.8971 26.7744 31.9689C26.5766 31.9977 26.3618 32.0001 25.7347 32.0001L25.4162 32C25.0355 31.9997 24.7077 31.9995 24.4148 32.0577C23.2247 32.2944 22.2944 33.2247 22.0577 34.4148C21.9995 34.7077 21.9997 35.0355 22 35.4162L22.0001 35.5001L22 35.584C21.9997 35.9647 21.9995 36.2925 22.0577 36.5853C22.2944 37.7754 23.2248 38.7057 24.4148 38.9424C24.5961 38.9785 24.7907 38.9921 25.003 38.9972C25.008 39.2095 25.0217 39.4041 25.0577 39.5854Z" fill="white"/>
</svg>
