<svg width="48" height="48" viewBox="0 0 48 48" fill="none" xmlns="http://www.w3.org/2000/svg">
<rect width="48" height="48" rx="18" fill="#E3E4E3"/>
<path d="M25.5946 16.0467C27.0191 14.9747 28.9811 14.9747 30.4055 16.0467C30.6312 16.2166 30.8542 16.4397 31.1551 16.7408L31.2593 16.845C31.5604 17.1459 31.7835 17.3689 31.9534 17.5946C33.0254 19.019 33.0254 20.981 31.9534 22.4055C31.814 22.5906 31.6388 22.7739 31.4142 22.9999L25.0002 16.5859C25.2262 16.3613 25.4095 16.1861 25.5946 16.0467Z" fill="#313A34"/>
<path d="M23.5859 18L15.6268 25.9591C15.1776 26.4079 14.8381 26.747 14.5895 27.1527C14.3702 27.5106 14.2086 27.9007 14.1106 28.3089C13.9995 28.7716 13.9997 29.2514 14 29.8864L14.0001 31.4319C14 31.6843 14 31.9301 14.017 32.1383C14.0357 32.3669 14.0798 32.6366 14.2181 32.908C14.4098 33.2843 14.7158 33.5903 15.0921 33.782C15.3635 33.9203 15.6332 33.9644 15.8618 33.9831C16.0699 34.0001 16.3157 34.0001 16.568 34L18.1137 34.0001C18.7487 34.0004 19.2285 34.0006 19.6912 33.8895C20.0993 33.7915 20.4895 33.6299 20.8474 33.4106C21.2531 33.162 21.5922 32.8225 22.041 32.3733L30.0001 24.4142L23.5859 18Z" fill="#313A34"/>
</svg>
