<svg width="48" height="48" viewBox="0 0 48 48" fill="none" xmlns="http://www.w3.org/2000/svg">
<rect width="48" height="48" rx="18" fill="#F5F5F5"/>
<path d="M23 16C23.5523 16 24 15.5523 24 15C24 14.4477 23.5523 14 23 14H21.3572C20.2734 14 19.3993 14 18.6914 14.0578C17.9625 14.1174 17.3223 14.2432 16.73 14.545C15.7892 15.0243 15.0243 15.7892 14.545 16.73C14.2432 17.3223 14.1174 17.9625 14.0578 18.6914C14 19.3993 14 20.2734 14 21.3572V26.6428C14 27.7266 14 28.6007 14.0578 29.3086C14.1174 30.0375 14.2432 30.6777 14.545 31.27C15.0243 32.2108 15.7892 32.9757 16.73 33.455C17.3223 33.7568 17.9625 33.8826 18.6914 33.9422C19.3992 34 20.2733 34 21.3571 34H23C23.5523 34 24 33.5523 24 33C24 32.4477 23.5523 32 23 32H21.4C20.2634 32 19.4711 31.9992 18.8542 31.9488C18.2491 31.8994 17.9014 31.8072 17.638 31.673C17.0735 31.3854 16.6146 30.9265 16.327 30.362C16.1928 30.0986 16.1006 29.7509 16.0512 29.1458C16.0008 28.5289 16 27.7366 16 26.6L16 21.4C16 20.2634 16.0008 19.4711 16.0512 18.8542C16.1006 18.2491 16.1928 17.9014 16.327 17.638C16.6146 17.0735 17.0735 16.6146 17.638 16.327C17.9014 16.1928 18.2491 16.1006 18.8542 16.0512C19.4711 16.0008 20.2634 16 21.4 16H23Z" fill="#313A34"/>
<path d="M32.0312 25.332C32.0849 25.2236 32.1317 25.1127 32.1716 25L20 25C19.4477 25 19 24.5523 19 24C19 23.4477 19.4477 23 20 23L32.1716 23C32.1317 22.8873 32.0849 22.7764 32.0312 22.668C31.831 22.2639 31.4405 21.8547 30.2929 20.7071C29.9024 20.3166 29.9024 19.6834 30.2929 19.2929C30.6834 18.9024 31.3166 18.9024 31.7071 19.2929L31.8429 19.4286C32.8021 20.387 33.4575 21.0419 33.8232 21.7799C34.5164 23.1788 34.5164 24.8212 33.8232 26.2201C33.4575 26.9581 32.8021 27.613 31.8429 28.5714L31.7071 28.7071C31.3166 29.0976 30.6834 29.0976 30.2929 28.7071C29.9024 28.3166 29.9024 27.6834 30.2929 27.2929C31.4405 26.1453 31.831 25.7361 32.0312 25.332Z" fill="#313A34"/>
</svg>
