<svg width="376" height="162" viewBox="0 0 376 162" fill="none" xmlns="http://www.w3.org/2000/svg">
<g filter="url(#filter0_d_264_7543)">
<rect x="16.2734" y="8" width="343" height="130" rx="32" fill="white"/>
<rect x="32.7734" y="24.5" width="125" height="23" rx="8.5" stroke="#C5C8C6"/>
<path d="M41.6055 30C41.9737 30 42.2721 30.2985 42.2721 30.6667V31.3362C42.4456 31.3333 42.6443 31.3333 42.8805 31.3333H45.6638C45.9 31.3333 46.0986 31.3333 46.2721 31.3362V30.6667C46.2721 30.2985 46.5706 30 46.9388 30C47.307 30 47.6055 30.2985 47.6055 30.6667V31.5276C48.8823 31.9076 49.9268 32.8151 50.489 34H38.0553C38.6175 32.8151 39.662 31.9076 40.9388 31.5276V30.6667C40.9388 30.2985 41.2373 30 41.6055 30Z" fill="#A2A9A4"/>
<path fill-rule="evenodd" clip-rule="evenodd" d="M37.6533 35.3333H50.8909C50.8937 35.3525 50.8964 35.3717 50.8989 35.3909C50.9389 35.6947 50.9389 36.0447 50.9388 36.6084V36.725C50.9389 37.2886 50.9389 37.6386 50.8989 37.9425C50.6232 40.0366 48.9754 41.6844 46.8813 41.9601C46.5774 42.0001 46.2274 42.0001 45.6638 42H42.8805C42.3169 42.0001 41.9669 42.0001 41.663 41.9601C39.5689 41.6844 37.9211 40.0366 37.6454 37.9425C37.6054 37.6386 37.6054 37.2886 37.6055 36.725V36.6084C37.6054 36.0448 37.6054 35.6947 37.6454 35.3909C37.6479 35.3717 37.6506 35.3525 37.6533 35.3333ZM44.2721 37.3333C43.9039 37.3333 43.6055 37.6318 43.6055 38C43.6055 38.3682 43.9039 38.6667 44.2721 38.6667C44.6403 38.6667 44.9388 38.3682 44.9388 38C44.9388 37.6318 44.6403 37.3333 44.2721 37.3333ZM46.2721 38C46.2721 37.6318 46.5706 37.3333 46.9388 37.3333C47.307 37.3333 47.6055 37.6318 47.6055 38C47.6055 38.3682 47.307 38.6667 46.9388 38.6667C46.5706 38.6667 46.2721 38.3682 46.2721 38ZM41.6055 37.3333C41.2373 37.3333 40.9388 37.6318 40.9388 38C40.9388 38.3682 41.2373 38.6667 41.6055 38.6667C41.9737 38.6667 42.2721 38.3682 42.2721 38C42.2721 37.6318 41.9737 37.3333 41.6055 37.3333Z" fill="#A2A9A4"/>
<path d="M57.9654 39C58.0134 37.428 57.9414 35.82 57.7734 34.548C57.5814 33.096 57.2574 32.004 56.8734 31.128L58.2054 30.324C58.7454 31.428 59.0574 32.82 59.2254 34.32C59.3694 35.7 59.3934 37.38 59.3454 39H57.9654ZM62.0893 39C62.1373 37.428 62.0653 35.82 61.8973 34.548C61.7053 33.096 61.3813 32.004 60.9973 31.128L62.3293 30.324C62.5573 30.792 62.7493 31.32 62.9053 31.884C63.0133 32.208 63.1333 32.472 63.2773 32.712C63.4453 31.5 64.4293 30.456 65.6653 30.336C66.5893 30.252 67.4173 30.684 68.1133 31.248L67.5133 32.472C66.9853 32.244 66.3733 32.076 65.8093 32.136C65.0533 32.196 64.5013 32.628 64.5493 33.192C64.6093 33.888 65.8813 34.488 67.9213 33.624L68.2933 35.196C67.0453 35.832 64.9933 36.216 63.4093 35.04C63.5053 36.264 63.5053 37.656 63.4693 39H62.0893ZM71.3239 38.652C70.1839 38.652 69.2239 37.692 69.2239 36.552C69.2239 35.4 70.1839 34.452 71.3239 34.452C72.4879 34.452 73.4479 35.388 73.4479 36.552C73.4479 37.692 72.4879 38.652 71.3239 38.652ZM71.3239 37.344C71.7559 37.344 72.0919 36.996 72.0919 36.552C72.0919 36.108 71.7559 35.772 71.3239 35.772C70.9159 35.772 70.5679 36.12 70.5679 36.552C70.5679 36.996 70.9159 37.344 71.3239 37.344ZM79.8503 30.828C79.9823 32.052 80.1863 32.616 80.6423 32.616C81.0503 32.616 81.2663 31.956 80.9663 30.684L82.1903 30.276C82.7783 32.448 82.1063 34.344 80.6543 34.344C80.0903 34.344 79.6583 34.008 79.3343 33.492C79.0103 34.092 78.5303 34.476 77.9303 34.476C77.6543 34.476 77.4023 34.428 77.1743 34.332C77.3183 35.712 77.3423 37.392 77.2943 39H75.9143C75.9623 37.428 75.8903 35.82 75.7223 34.548C75.5303 33.096 75.2063 32.004 74.8223 31.128L76.1543 30.324C76.2863 30.588 76.4063 30.876 76.5143 31.176C76.8983 32.184 77.1623 32.7 77.8103 32.7C78.3143 32.7 78.7463 32.196 78.6503 31.08V31.032L79.8503 30.828ZM90.3274 39.144C87.4474 39.156 85.7554 38.22 85.6114 36.648C85.5394 35.868 85.7914 34.848 86.0914 34.176L87.2434 34.728C87.1114 35.136 86.8954 35.856 86.9314 36.3C87.0394 36.876 88.1794 37.344 90.2914 37.356C93.3634 37.344 94.1794 36.816 94.7674 35.22L96.0154 35.364C95.7994 36.012 95.7394 36.468 95.8354 36.768C95.9194 37.08 96.1834 37.212 96.5794 37.212L96.6754 38.112L96.5794 39C95.7034 39 94.9234 38.448 94.7794 37.584C93.7594 38.784 92.3434 39.132 90.3274 39.144ZM88.6114 33.96C88.9474 33.624 89.2834 33.288 89.6314 32.952L90.6394 33.96C90.3034 34.296 89.9674 34.632 89.6314 34.98L88.6114 33.96ZM90.7234 33.96C91.0594 33.624 91.3954 33.288 91.7434 32.952L92.7514 33.96C92.4154 34.296 92.0794 34.632 91.7434 34.98L90.7234 33.96ZM106.254 39C105.606 39 105.078 38.724 104.682 38.208C104.298 38.688 103.758 38.988 103.158 39H103.122H103.086C102.342 38.988 101.814 38.616 101.526 37.98C101.106 38.604 100.602 38.988 99.9297 39H99.8697C99.1857 39 98.6337 38.604 98.4297 37.992C97.9137 38.652 97.2417 39 96.4857 39H96.4497L96.3537 38.112L96.4497 37.212H96.5097C97.0137 37.212 97.5417 36.96 97.7817 36.648C98.1777 36.192 98.3457 35.46 98.4057 35.232L99.6537 35.364C99.5817 35.616 99.4257 36.156 99.4017 36.54C99.3897 36.984 99.5457 37.212 99.9057 37.212H99.9297C100.374 37.212 100.674 36.972 100.89 36.552C101.13 36.072 101.25 35.4 101.286 35.148L102.534 35.208C102.486 35.424 102.402 36 102.402 36.336C102.402 36.876 102.606 37.212 103.122 37.212C103.506 37.212 103.878 37.056 104.07 36.828C103.998 36.516 103.902 36.036 103.746 35.208L104.982 34.872C105.222 36.132 105.27 36.372 105.366 36.66C105.486 37.02 105.75 37.212 106.254 37.212H106.326L106.422 38.112L106.314 39H106.254ZM99.9657 33L100.914 32.052C101.238 32.364 101.562 32.688 101.874 33C101.562 33.324 101.238 33.636 100.914 33.96C100.602 33.636 100.278 33.324 99.9657 33ZM102.222 33C102.546 32.688 102.858 32.364 103.182 32.052L104.13 33C103.818 33.324 103.494 33.636 103.182 33.96L102.222 33ZM101.202 31.584C101.478 31.296 101.766 31.02 102.042 30.744C102.33 31.02 102.606 31.296 102.882 31.584L102.042 32.436C101.766 32.148 101.478 31.86 101.202 31.584ZM106.163 39.012V37.212H106.991C107.267 34.884 108.131 33.564 108.335 33.24L109.295 32.964C110.423 33.576 111.179 34.848 111.179 36.06C111.179 36.48 111.095 36.852 110.951 37.188C111.323 37.212 111.743 37.212 112.235 37.212L112.331 38.112L112.235 39C111.899 39 111.599 38.988 111.323 38.976C111.767 39.852 111.767 40.848 111.059 41.436C109.847 42.444 107.387 41.748 106.979 39.012H106.715H106.163ZM108.251 37.14C109.403 36.984 109.991 36.564 110.015 36.06C110.039 35.664 109.619 35.004 109.055 34.704C108.707 35.196 108.395 36.156 108.251 37.14ZM108.311 38.868C108.647 39.9 109.559 40.428 110.303 40.128C110.435 39.9 110.243 39.132 109.259 38.616C108.971 38.724 108.659 38.808 108.311 38.868ZM112.044 39V37.212H112.116C113.352 37.212 113.832 36.972 113.916 36.396C113.976 36 113.892 35.472 113.808 34.956L115.056 34.716C115.2 35.532 115.212 36.42 115.212 36.696C115.26 36.912 115.512 37.212 116.112 37.212H116.184L116.28 38.112L116.184 39H116.112C115.452 39 114.888 38.652 114.516 38.172C114.048 38.748 113.256 39 112.116 39H112.044ZM112.488 41.04C112.872 40.668 113.232 40.296 113.604 39.936C113.976 40.296 114.336 40.668 114.708 41.04L113.604 42.144C113.232 41.772 112.872 41.412 112.488 41.04ZM116.04 39L115.944 38.112L116.04 37.212H117.048C118.68 37.212 119.22 36.924 119.22 36.384C119.208 35.976 118.668 34.584 118.56 34.368L119.832 33.672C120.06 34.164 120.552 35.52 120.552 36.468C120.54 38.088 119.472 39 117.312 39H116.04ZM120.18 41.028L119.16 42.036C118.824 41.7 118.488 41.364 118.152 41.028C118.488 40.68 118.824 40.344 119.16 40.008C119.496 40.344 119.844 40.68 120.18 41.028ZM118.068 41.028L117.048 42.036C116.712 41.7 116.376 41.364 116.04 41.028C116.376 40.68 116.712 40.344 117.048 40.008C117.384 40.344 117.732 40.68 118.068 41.028ZM124.105 39.06C122.473 39.06 121.525 38.304 121.285 38.1L121.933 36.84C122.173 36.96 122.905 37.368 123.937 37.368C124.885 37.356 125.401 37.092 125.545 36.912C125.629 36.6 125.293 35.484 123.061 33.96L123.925 32.388C126.169 33.984 127.429 36.108 126.745 37.68C126.349 38.616 125.221 39.06 124.105 39.06ZM126.245 40.992C127.865 40.332 129.113 39.288 129.113 38.676C129.113 38.172 128.525 36.156 128.417 35.76L129.761 35.232C130.145 36.348 130.385 37.704 130.385 38.676C130.385 40.296 128.981 41.676 126.977 42.504L126.245 40.992ZM131.594 38.928C131.858 37.14 131.618 31.848 131.378 30.456L132.878 30.108C133.07 31.464 133.322 36.804 133.01 39.084L131.594 38.928Z" fill="#313A34"/>
<path fill-rule="evenodd" clip-rule="evenodd" d="M150.746 34.1953C151.006 34.4556 151.006 34.8777 150.746 35.1381L149.743 36.1413C149.232 36.6522 148.82 37.0642 148.459 37.3707C148.087 37.6862 147.726 37.9287 147.305 38.0656C146.635 38.2831 145.914 38.2831 145.245 38.0656C144.823 37.9287 144.462 37.6862 144.09 37.3707C143.729 37.0642 143.317 36.6522 142.807 36.1412L141.803 35.1381C141.543 34.8777 141.543 34.4556 141.803 34.1953C142.064 33.9349 142.486 33.9349 142.746 34.1953L143.729 35.1783C144.265 35.7141 144.639 36.0872 144.953 36.3542C145.262 36.6162 145.469 36.7367 145.657 36.7975C146.058 36.9281 146.491 36.9281 146.893 36.7975C147.08 36.7367 147.288 36.6162 147.596 36.3542C147.911 36.0872 148.285 35.7141 148.82 35.1783L149.803 34.1953C150.064 33.9349 150.486 33.9349 150.746 34.1953Z" fill="#A2A9A4"/>
<path d="M187.273 60L187.273 96" stroke="#E3E4E3" stroke-width="2" stroke-linecap="round"/>
<path d="M343.273 78L31.2734 78" stroke="#E3E4E3" stroke-width="4"/>
<path d="M333.023 78H188.023" stroke="#647067" stroke-width="4"/>
<rect x="1" y="-1" width="14" height="14" rx="5.5" transform="matrix(-1 0 0 1 345.273 72)" fill="#313A34"/>
<rect x="1" y="-1" width="14" height="14" rx="5.5" transform="matrix(-1 0 0 1 345.273 72)" stroke="white" stroke-width="2"/>
<rect x="1" y="-1" width="14" height="14" rx="5.5" transform="matrix(-1 0 0 1 270.273 72)" fill="#313A34"/>
<rect x="1" y="-1" width="14" height="14" rx="5.5" transform="matrix(-1 0 0 1 270.273 72)" stroke="white" stroke-width="2"/>
<g filter="url(#filter1_d_264_7543)">
<rect width="12" height="12" rx="4.5" transform="matrix(-1 0 0 1 193.273 72)" fill="#313A34"/>
</g>
<rect x="1" y="-1" width="14" height="14" rx="5.5" transform="matrix(-1 0 0 1 120.273 72)" fill="#E3E4E3"/>
<rect x="1" y="-1" width="14" height="14" rx="5.5" transform="matrix(-1 0 0 1 120.273 72)" stroke="white" stroke-width="2"/>
<rect x="1" y="-1" width="14" height="14" rx="5.5" transform="matrix(-1 0 0 1 45.2734 72)" fill="#E3E4E3"/>
<rect x="1" y="-1" width="14" height="14" rx="5.5" transform="matrix(-1 0 0 1 45.2734 72)" stroke="white" stroke-width="2"/>
<path d="M34.9734 115.604C34.6134 115.604 34.2774 115.512 33.9654 115.328C33.6534 115.136 33.4014 114.884 33.2094 114.572C33.0254 114.26 32.9334 113.924 32.9334 113.564C32.9334 113.196 33.0254 112.856 33.2094 112.544C33.3934 112.232 33.6414 111.984 33.9534 111.8C34.2734 111.616 34.6134 111.524 34.9734 111.524C35.3494 111.524 35.6934 111.616 36.0054 111.8C36.3254 111.984 36.5774 112.232 36.7614 112.544C36.9454 112.856 37.0374 113.196 37.0374 113.564C37.0374 113.924 36.9454 114.264 36.7614 114.584C36.5774 114.896 36.3254 115.144 36.0054 115.328C35.6934 115.512 35.3494 115.604 34.9734 115.604ZM34.9734 114.404C35.2054 114.404 35.4014 114.324 35.5614 114.164C35.7214 114.004 35.8014 113.804 35.8014 113.564C35.8014 113.316 35.7214 113.112 35.5614 112.952C35.4014 112.792 35.2054 112.712 34.9734 112.712C34.7494 112.712 34.5574 112.796 34.3974 112.964C34.2374 113.124 34.1574 113.324 34.1574 113.564C34.1574 113.804 34.2374 114.004 34.3974 114.164C34.5574 114.324 34.7494 114.404 34.9734 114.404ZM40.0464 108.296C40.1904 108.68 40.3184 108.976 40.4304 109.184C40.5424 109.392 40.6904 109.56 40.8744 109.688C41.0584 109.808 41.3024 109.868 41.6064 109.868C42.0304 109.868 42.3384 109.736 42.5304 109.472C42.7224 109.208 42.8184 108.82 42.8184 108.308C42.8184 108.108 42.8064 107.896 42.7824 107.672L43.9224 107.432C43.9864 107.792 44.0184 108.128 44.0184 108.44C44.0184 109 43.9264 109.508 43.7424 109.964C43.5664 110.42 43.2984 110.784 42.9384 111.056C42.5864 111.32 42.1504 111.452 41.6304 111.452C40.9824 111.452 40.4544 111.22 40.0464 110.756C39.6384 110.284 39.2904 109.66 39.0024 108.884L40.0464 108.296ZM39.5784 115.232C39.5784 113.832 39.5064 112.612 39.3624 111.572C39.1864 110.244 38.8864 109.108 38.4624 108.164L39.6984 107.432C40.1624 108.408 40.4904 109.724 40.6824 111.38C40.7864 112.372 40.8384 113.54 40.8384 114.884C40.8384 115.388 40.8344 115.76 40.8264 116H39.5664L39.5784 115.232ZM45.4818 116.732H44.2938L47.6058 107.468H48.7818L45.4818 116.732ZM50.6981 116C50.7061 115.832 50.7101 115.576 50.7101 115.232C50.7101 113.832 50.6381 112.612 50.4941 111.572C50.3181 110.244 50.0181 109.108 49.5941 108.164L50.8301 107.432C51.2941 108.408 51.6221 109.724 51.8141 111.38C51.9181 112.372 51.9701 113.54 51.9701 114.884C51.9701 115.388 51.9661 115.76 51.9581 116H50.6981ZM55.8166 115.604C55.4566 115.604 55.1206 115.512 54.8086 115.328C54.4966 115.136 54.2446 114.884 54.0526 114.572C53.8686 114.26 53.7766 113.924 53.7766 113.564C53.7766 113.196 53.8686 112.856 54.0526 112.544C54.2366 112.232 54.4846 111.984 54.7966 111.8C55.1166 111.616 55.4566 111.524 55.8166 111.524C56.1926 111.524 56.5366 111.616 56.8486 111.8C57.1686 111.984 57.4206 112.232 57.6046 112.544C57.7886 112.856 57.8806 113.196 57.8806 113.564C57.8806 113.924 57.7886 114.264 57.6046 114.584C57.4206 114.896 57.1686 115.144 56.8486 115.328C56.5366 115.512 56.1926 115.604 55.8166 115.604ZM55.8166 114.404C56.0486 114.404 56.2446 114.324 56.4046 114.164C56.5646 114.004 56.6446 113.804 56.6446 113.564C56.6446 113.316 56.5646 113.112 56.4046 112.952C56.2446 112.792 56.0486 112.712 55.8166 112.712C55.5926 112.712 55.4006 112.796 55.2406 112.964C55.0806 113.124 55.0006 113.324 55.0006 113.564C55.0006 113.804 55.0806 114.004 55.2406 114.164C55.4006 114.324 55.5926 114.404 55.8166 114.404Z" fill="#A2A9A4"/>
<path d="M175.775 115.712C175.391 115.712 175.031 115.616 174.695 115.424C174.367 115.224 174.103 114.96 173.903 114.632C173.711 114.296 173.615 113.936 173.615 113.552C173.615 113.16 173.711 112.8 173.903 112.472C174.103 112.136 174.367 111.872 174.695 111.68C175.031 111.48 175.391 111.38 175.775 111.38C176.167 111.38 176.531 111.48 176.867 111.68C177.203 111.872 177.467 112.136 177.659 112.472C177.859 112.8 177.959 113.16 177.959 113.552C177.959 113.936 177.859 114.296 177.659 114.632C177.467 114.96 177.203 115.224 176.867 115.424C176.531 115.616 176.167 115.712 175.775 115.712ZM175.775 114.284C175.975 114.284 176.143 114.212 176.279 114.068C176.423 113.924 176.495 113.752 176.495 113.552C176.495 113.352 176.423 113.18 176.279 113.036C176.143 112.892 175.975 112.82 175.775 112.82C175.591 112.82 175.427 112.892 175.283 113.036C175.139 113.18 175.067 113.352 175.067 113.552C175.067 113.752 175.139 113.924 175.283 114.068C175.427 114.212 175.591 114.284 175.775 114.284ZM181.095 108.032C181.247 108.424 181.371 108.712 181.467 108.896C181.563 109.072 181.699 109.216 181.875 109.328C182.051 109.44 182.291 109.496 182.595 109.496C183.323 109.488 183.687 109.012 183.687 108.068C183.687 107.9 183.675 107.716 183.651 107.516L185.043 107.228C185.107 107.524 185.139 107.868 185.139 108.26C185.139 108.844 185.043 109.38 184.851 109.868C184.667 110.356 184.383 110.752 183.999 111.056C183.615 111.352 183.147 111.5 182.595 111.5C181.947 111.5 181.391 111.24 180.927 110.72C180.463 110.192 180.091 109.528 179.811 108.728L181.095 108.032ZM180.399 116C180.407 115.744 180.411 115.368 180.411 114.872C180.411 113.656 180.343 112.54 180.207 111.524C180.023 110.172 179.727 109.028 179.319 108.092L180.759 107.204C181.287 108.3 181.631 109.656 181.791 111.272C181.887 112.208 181.935 113.24 181.935 114.368C181.935 114.72 181.927 115.264 181.911 116H180.399ZM186.658 116.732H185.326L188.374 107.468H189.694L186.658 116.732ZM192.553 115.712C192.169 115.712 191.809 115.616 191.473 115.424C191.145 115.224 190.881 114.96 190.681 114.632C190.489 114.296 190.393 113.936 190.393 113.552C190.393 113.16 190.489 112.8 190.681 112.472C190.881 112.136 191.145 111.872 191.473 111.68C191.809 111.48 192.169 111.38 192.553 111.38C192.945 111.38 193.309 111.48 193.645 111.68C193.981 111.872 194.245 112.136 194.437 112.472C194.637 112.8 194.737 113.16 194.737 113.552C194.737 113.936 194.637 114.296 194.437 114.632C194.245 114.96 193.981 115.224 193.645 115.424C193.309 115.616 192.945 115.712 192.553 115.712ZM192.553 114.284C192.753 114.284 192.921 114.212 193.057 114.068C193.201 113.924 193.273 113.752 193.273 113.552C193.273 113.352 193.201 113.18 193.057 113.036C192.921 112.892 192.753 112.82 192.553 112.82C192.369 112.82 192.205 112.892 192.061 113.036C191.917 113.18 191.845 113.352 191.845 113.552C191.845 113.752 191.917 113.924 192.061 114.068C192.205 114.212 192.369 114.284 192.553 114.284ZM196.049 115.676C196.537 114.228 197.301 113.036 198.341 112.1C199.381 111.156 200.513 110.432 201.737 109.928L202.085 111.884C201.149 112.236 200.245 112.796 199.373 113.564C198.509 114.324 197.845 115.248 197.381 116.336L196.049 115.676ZM200.825 112.448C200.225 112.752 199.653 112.904 199.109 112.904C198.605 112.904 198.165 112.776 197.789 112.52C197.413 112.256 197.129 111.916 196.937 111.5C196.745 111.084 196.649 110.652 196.649 110.204C196.649 109.772 196.737 109.348 196.913 108.932C197.097 108.508 197.377 108.14 197.753 107.828C198.129 107.516 198.589 107.316 199.133 107.228C199.277 107.212 199.385 107.204 199.457 107.204C199.809 107.204 200.165 107.272 200.525 107.408C200.893 107.544 201.185 107.704 201.401 107.888L200.753 109.244C200.465 109.124 200.141 109.064 199.781 109.064C199.637 109.064 199.485 109.076 199.325 109.1C198.933 109.156 198.621 109.296 198.389 109.52C198.157 109.744 198.045 109.972 198.053 110.204C198.053 110.356 198.165 110.5 198.389 110.636C198.613 110.772 198.897 110.84 199.241 110.84C199.649 110.84 200.073 110.736 200.513 110.528L200.825 112.448Z" fill="#313A34"/>
<path d="M317.21 115.604C316.85 115.604 316.514 115.512 316.202 115.328C315.89 115.136 315.638 114.884 315.446 114.572C315.262 114.26 315.17 113.924 315.17 113.564C315.17 113.196 315.262 112.856 315.446 112.544C315.63 112.232 315.878 111.984 316.19 111.8C316.51 111.616 316.85 111.524 317.21 111.524C317.586 111.524 317.93 111.616 318.242 111.8C318.562 111.984 318.814 112.232 318.998 112.544C319.182 112.856 319.274 113.196 319.274 113.564C319.274 113.924 319.182 114.264 318.998 114.584C318.814 114.896 318.562 115.144 318.242 115.328C317.93 115.512 317.586 115.604 317.21 115.604ZM317.21 114.404C317.442 114.404 317.638 114.324 317.798 114.164C317.958 114.004 318.038 113.804 318.038 113.564C318.038 113.316 317.958 113.112 317.798 112.952C317.638 112.792 317.442 112.712 317.21 112.712C316.986 112.712 316.794 112.796 316.634 112.964C316.474 113.124 316.394 113.324 316.394 113.564C316.394 113.804 316.474 114.004 316.634 114.164C316.794 114.324 316.986 114.404 317.21 114.404ZM322.283 108.296C322.427 108.68 322.555 108.976 322.667 109.184C322.779 109.392 322.927 109.56 323.111 109.688C323.295 109.808 323.539 109.868 323.843 109.868C324.267 109.868 324.575 109.736 324.767 109.472C324.959 109.208 325.055 108.82 325.055 108.308C325.055 108.108 325.043 107.896 325.019 107.672L326.159 107.432C326.223 107.792 326.255 108.128 326.255 108.44C326.255 109 326.163 109.508 325.979 109.964C325.803 110.42 325.535 110.784 325.175 111.056C324.823 111.32 324.387 111.452 323.867 111.452C323.219 111.452 322.691 111.22 322.283 110.756C321.875 110.284 321.527 109.66 321.239 108.884L322.283 108.296ZM321.815 115.232C321.815 113.832 321.743 112.612 321.599 111.572C321.423 110.244 321.123 109.108 320.699 108.164L321.935 107.432C322.399 108.408 322.727 109.724 322.919 111.38C323.023 112.372 323.075 113.54 323.075 114.884C323.075 115.388 323.071 115.76 323.063 116H321.803L321.815 115.232ZM327.718 116.732H326.53L329.842 107.468H331.018L327.718 116.732ZM333.87 115.604C333.51 115.604 333.174 115.512 332.862 115.328C332.55 115.136 332.298 114.884 332.106 114.572C331.922 114.26 331.83 113.924 331.83 113.564C331.83 113.196 331.922 112.856 332.106 112.544C332.29 112.232 332.538 111.984 332.85 111.8C333.17 111.616 333.51 111.524 333.87 111.524C334.246 111.524 334.59 111.616 334.902 111.8C335.222 111.984 335.474 112.232 335.658 112.544C335.842 112.856 335.934 113.196 335.934 113.564C335.934 113.924 335.842 114.264 335.658 114.584C335.474 114.896 335.222 115.144 334.902 115.328C334.59 115.512 334.246 115.604 333.87 115.604ZM333.87 114.404C334.102 114.404 334.298 114.324 334.458 114.164C334.618 114.004 334.698 113.804 334.698 113.564C334.698 113.316 334.618 113.112 334.458 112.952C334.298 112.792 334.102 112.712 333.87 112.712C333.646 112.712 333.454 112.796 333.294 112.964C333.134 113.124 333.054 113.324 333.054 113.564C333.054 113.804 333.134 114.004 333.294 114.164C333.454 114.324 333.646 114.404 333.87 114.404ZM338.943 108.296C339.087 108.68 339.215 108.976 339.327 109.184C339.439 109.392 339.587 109.56 339.771 109.688C339.955 109.808 340.199 109.868 340.503 109.868C340.927 109.868 341.235 109.736 341.427 109.472C341.619 109.208 341.715 108.82 341.715 108.308C341.715 108.108 341.703 107.896 341.679 107.672L342.819 107.432C342.883 107.792 342.915 108.128 342.915 108.44C342.915 109 342.823 109.508 342.639 109.964C342.463 110.42 342.195 110.784 341.835 111.056C341.483 111.32 341.047 111.452 340.527 111.452C339.879 111.452 339.351 111.22 338.943 110.756C338.535 110.284 338.187 109.66 337.899 108.884L338.943 108.296ZM338.475 115.232C338.475 113.832 338.403 112.612 338.259 111.572C338.083 110.244 337.783 109.108 337.359 108.164L338.595 107.432C339.059 108.408 339.387 109.724 339.579 111.38C339.683 112.372 339.735 113.54 339.735 114.884C339.735 115.388 339.731 115.76 339.723 116H338.463L338.475 115.232Z" fill="#A2A9A4"/>
</g>
<defs>
<filter id="filter0_d_264_7543" x="0.273438" y="0" width="375" height="162" filterUnits="userSpaceOnUse" color-interpolation-filters="sRGB">
<feFlood flood-opacity="0" result="BackgroundImageFix"/>
<feColorMatrix in="SourceAlpha" type="matrix" values="0 0 0 0 0 0 0 0 0 0 0 0 0 0 0 0 0 0 127 0" result="hardAlpha"/>
<feOffset dy="8"/>
<feGaussianBlur stdDeviation="8"/>
<feComposite in2="hardAlpha" operator="out"/>
<feColorMatrix type="matrix" values="0 0 0 0 0.184314 0 0 0 0 0.235294 0 0 0 0 0.2 0 0 0 0.05 0"/>
<feBlend mode="normal" in2="BackgroundImageFix" result="effect1_dropShadow_264_7543"/>
<feBlend mode="normal" in="SourceGraphic" in2="effect1_dropShadow_264_7543" result="shape"/>
</filter>
<filter id="filter1_d_264_7543" x="177.273" y="68" width="20" height="20" filterUnits="userSpaceOnUse" color-interpolation-filters="sRGB">
<feFlood flood-opacity="0" result="BackgroundImageFix"/>
<feColorMatrix in="SourceAlpha" type="matrix" values="0 0 0 0 0 0 0 0 0 0 0 0 0 0 0 0 0 0 127 0" result="hardAlpha"/>
<feMorphology radius="4" operator="dilate" in="SourceAlpha" result="effect1_dropShadow_264_7543"/>
<feOffset/>
<feComposite in2="hardAlpha" operator="out"/>
<feColorMatrix type="matrix" values="0 0 0 0 0.164706 0 0 0 0 0.254902 0 0 0 0 0.25098 0 0 0 0.25 0"/>
<feBlend mode="normal" in2="BackgroundImageFix" result="effect1_dropShadow_264_7543"/>
<feBlend mode="normal" in="SourceGraphic" in2="effect1_dropShadow_264_7543" result="shape"/>
</filter>
</defs>
</svg>
