<svg width="345" height="47" viewBox="0 0 345 47" fill="none" xmlns="http://www.w3.org/2000/svg">
<rect x="1.27344" y="1" width="343" height="45" rx="17" fill="#ECFCCB"/>
<rect x="1.27344" y="1" width="343" height="45" rx="17" stroke="#84CC16"/>
<path d="M134.489 27.168C131.129 27.182 129.155 26.09 128.987 24.256C128.903 23.346 129.197 22.156 129.547 21.372L130.891 22.016C130.737 22.492 130.485 23.332 130.527 23.85C130.653 24.522 131.983 25.068 134.447 25.082C138.031 25.068 138.983 24.452 139.669 22.59L141.125 22.758C140.873 23.514 140.803 24.046 140.915 24.396C141.013 24.76 141.321 24.914 141.783 24.914L141.895 25.964L141.783 27C140.761 27 139.851 26.356 139.683 25.348C138.493 26.748 136.841 27.154 134.489 27.168ZM132.487 21.12C132.879 20.728 133.271 20.336 133.677 19.944L134.853 21.12C134.461 21.512 134.069 21.904 133.677 22.31L132.487 21.12ZM134.951 21.12C135.343 20.728 135.735 20.336 136.141 19.944L137.317 21.12C136.925 21.512 136.533 21.904 136.141 22.31L134.951 21.12ZM149.359 27C148.491 26.986 147.861 26.552 147.525 25.81C147.035 26.538 146.447 26.986 145.663 27H145.593C144.795 27 144.151 26.538 143.913 25.824C143.311 26.594 142.527 27 141.645 27H141.603L141.491 25.964L141.603 24.914H141.673C142.261 24.914 142.877 24.62 143.157 24.256C143.619 23.724 143.815 22.87 143.885 22.604L145.341 22.758C145.257 23.052 145.075 23.682 145.047 24.13C145.033 24.648 145.215 24.914 145.635 24.914H145.663C146.181 24.914 146.531 24.634 146.783 24.144C147.063 23.584 147.203 22.8 147.245 22.506L148.701 22.576C148.645 22.828 148.547 23.5 148.547 23.892C148.547 24.522 148.785 24.914 149.387 24.914H149.401C149.961 24.914 150.283 24.564 150.283 24.06C150.283 23.486 149.667 21.932 149.513 21.596L150.955 20.812C151.221 21.372 151.809 23.01 151.809 24.144C151.809 25.698 150.843 26.986 149.429 27H149.359ZM153.121 26.916C153.429 24.83 153.149 18.656 152.869 17.032L154.619 16.626C154.843 18.208 155.137 24.438 154.773 27.098L153.121 26.916ZM164.309 27.168C161.033 27.154 159.115 26.062 158.947 24.256C158.863 23.346 159.157 22.156 159.507 21.372L160.851 22.016C160.697 22.492 160.445 23.332 160.487 23.85C160.613 24.522 161.929 25.068 164.379 25.082C167.151 25.068 168.313 24.508 168.355 24.326C168.187 23.29 167.613 21.862 167.501 21.596L168.971 20.784C169.405 21.75 169.853 23.276 169.811 24.326C169.713 26.244 167.459 27.14 164.449 27.168C164.407 27.168 164.365 27.168 164.323 27.168H164.309ZM163.035 29.492C163.483 29.058 163.903 28.624 164.337 28.204C164.771 28.624 165.191 29.058 165.625 29.492L164.337 30.78C163.903 30.346 163.483 29.926 163.035 29.492ZM170.701 29.282C173.221 28.736 174.621 28.064 175.083 27.014C173.333 26.986 171.821 26.79 171.261 25.6C170.449 23.864 171.751 20.882 173.669 20.882C175.181 20.882 176.315 22.758 176.595 24.914H177.183L177.295 25.964L177.183 27H176.553C176.091 29.086 174.201 30.542 171.345 31.088L170.701 29.282ZM172.549 24.424C172.829 24.802 173.865 24.9 175.111 24.914C174.873 23.808 174.327 22.884 173.641 22.758C172.815 22.59 172.199 23.934 172.549 24.424ZM176.907 27V24.914H177.957C180.015 24.914 181.751 24.536 183.851 23.472C183.543 23.346 183.221 23.192 182.857 23.01C182.143 22.646 181.359 22.38 180.715 22.38C179.931 22.38 179.371 22.94 179.133 23.318L177.957 22.464C178.643 21.106 179.595 20.364 180.799 20.378C181.625 20.392 182.227 20.658 183.501 21.302C184.523 21.834 185.181 22.114 186.133 22.31L186.203 24.186C185.811 24.298 185.167 24.662 184.439 25.054C181.849 26.412 180.253 26.986 177.537 27H176.907ZM179.665 18.11C180.099 17.69 180.519 17.256 180.953 16.822L182.241 18.11C181.821 18.558 181.387 18.978 180.953 19.412C180.519 18.978 180.099 18.558 179.665 18.11ZM189.781 29.282C192.343 28.722 193.743 28.036 194.177 26.972C192.623 27.196 190.915 26.818 190.341 25.6C189.529 23.864 190.831 20.882 192.749 20.882C194.499 20.882 195.745 23.416 195.745 25.964C195.745 28.596 193.729 30.458 190.425 31.088L189.781 29.282ZM191.629 24.424C191.979 24.872 193.099 25.068 194.205 24.984C193.967 23.85 193.421 22.884 192.721 22.758C191.895 22.59 191.265 23.948 191.629 24.424ZM203.698 30.654C201.36 30.654 199.372 29.1 199.61 26.538C199.694 25.418 200.184 24.116 200.562 23.318L201.92 23.934C201.528 24.802 201.192 25.628 201.164 26.538C201.122 27.728 202.144 28.568 203.698 28.568C205.574 28.568 206.596 27.63 206.54 25.642C206.442 22.212 206.148 18.656 205.924 17.018L207.674 16.64C207.884 18.208 207.996 21.946 208.08 25.544C208.15 28.722 206.512 30.654 203.698 30.654ZM212.482 27C210.368 27 209.584 25.768 209.584 23.43C209.57 21.33 209.458 18.656 209.22 17.018L210.956 16.64C211.166 18.208 211.292 21.358 211.264 23.164C211.236 24.508 211.404 24.914 212.482 24.914H212.552L212.664 25.964L212.552 27H212.482ZM212.333 27L212.375 24.914H212.627C213.299 24.914 213.929 24.522 214.419 23.598C215.245 22.058 216.029 21.05 217.093 20.994C219.795 20.854 220.621 25.6 218.507 26.874C217.709 27.364 216.393 26.888 214.895 25.95C214.307 26.664 213.509 27 212.599 27H212.333ZM215.791 24.298C216.869 24.956 217.737 25.306 217.989 25.124C218.605 24.732 218.213 22.87 217.163 22.87C216.799 22.87 216.351 23.22 215.791 24.298ZM224.591 27C224.283 27 224.017 26.944 223.765 26.832C223.653 28.638 222.057 30.164 219.803 31.088L218.949 29.324C220.839 28.554 222.295 27.336 222.295 26.622C222.295 26.034 221.609 23.682 221.483 23.22L223.051 22.604C223.191 22.996 223.303 23.416 223.415 23.85C223.653 24.62 223.989 24.914 224.591 24.914H224.731L224.843 25.964L224.731 27H224.591ZM224.51 27V24.914H225.252C226.624 24.914 227.142 24.592 227.142 24.018C227.142 23.556 226.512 21.89 226.386 21.596L227.856 20.784C228.122 21.358 228.71 23.024 228.696 24.13C228.696 26.02 227.45 27 225.252 27H224.51ZM225.364 18.936C225.798 18.516 226.218 18.082 226.652 17.648L227.94 18.936C227.52 19.37 227.086 19.804 226.652 20.238L225.364 18.936ZM230.852 29.324C232.742 28.554 234.198 27.336 234.198 26.622C234.198 26.034 233.512 23.682 233.386 23.22L234.954 22.604C235.402 23.906 235.682 25.488 235.682 26.622C235.682 28.512 234.044 30.122 231.706 31.088L230.852 29.324ZM240.074 27C237.96 27 237.176 25.768 237.176 23.43C237.162 21.33 237.05 18.656 236.812 17.018L238.548 16.64C238.758 18.208 238.884 21.358 238.856 23.164C238.828 24.508 238.996 24.914 240.074 24.914H240.144L240.256 25.964L240.144 27H240.074ZM239.924 27V24.914H240.218C240.89 24.914 241.506 24.522 242.01 23.598C242.864 22.058 243.69 21.022 244.768 20.994C246 20.966 246.658 21.82 247.134 23.192C247.54 24.424 247.764 24.914 248.198 24.914H248.366L248.478 25.964L248.366 27H248.198C247.61 27 247.12 26.664 246.784 26.118C246.658 26.44 246.378 26.72 246.098 26.874C245.314 27.364 244.012 26.902 242.5 25.95C241.912 26.664 241.1 27 240.19 27H239.924ZM245.986 25.264C246.084 24.522 245.664 22.87 244.754 22.87C244.362 22.87 243.9 23.304 243.382 24.298C244.6 25.194 245.734 25.348 245.986 25.264ZM248.139 27L248.153 24.914H248.237C250.449 24.914 250.995 24.634 251.093 23.962C251.163 23.5 251.065 22.884 250.981 22.282L252.423 22.002C252.605 22.954 252.619 23.99 252.619 24.312C252.675 24.564 252.941 24.914 253.669 24.914H253.739L253.851 25.964L253.739 27H253.655C252.885 27 252.227 26.594 251.807 26.034C251.261 26.72 250.267 27 248.237 27H248.139ZM251.779 29.366L250.589 30.542C250.197 30.15 249.805 29.758 249.413 29.366C249.805 28.96 250.197 28.568 250.589 28.176C250.981 28.568 251.387 28.96 251.779 29.366ZM249.315 29.366L248.125 30.542C247.733 30.15 247.341 29.758 246.949 29.366C247.341 28.96 247.733 28.568 248.125 28.176C248.517 28.568 248.923 28.96 249.315 29.366ZM253.51 27V24.914H254.252C255.624 24.914 256.142 24.592 256.142 24.018C256.142 23.556 255.512 21.89 255.386 21.596L256.856 20.784C257.122 21.358 257.71 23.024 257.696 24.13C257.696 26.02 256.45 27 254.252 27H253.51ZM253.3 29.394C253.748 28.96 254.168 28.526 254.602 28.106C255.036 28.526 255.456 28.96 255.89 29.394L254.602 30.682C254.168 30.248 253.748 29.828 253.3 29.394ZM267.049 27.168C263.689 27.182 261.715 26.09 261.547 24.256C261.463 23.346 261.757 22.156 262.107 21.372L263.451 22.016C263.297 22.492 263.045 23.332 263.087 23.85C263.213 24.522 264.543 25.068 267.007 25.082C270.591 25.068 271.543 24.452 272.229 22.59L273.685 22.758C273.433 23.514 273.363 24.046 273.475 24.396C273.573 24.76 273.881 24.914 274.343 24.914L274.455 25.964L274.343 27C273.321 27 272.411 26.356 272.243 25.348C271.053 26.748 269.401 27.154 267.049 27.168ZM265.047 21.12C265.439 20.728 265.831 20.336 266.237 19.944L267.413 21.12C267.021 21.512 266.629 21.904 266.237 22.31L265.047 21.12ZM267.511 21.12C267.903 20.728 268.295 20.336 268.701 19.944L269.877 21.12C269.485 21.512 269.093 21.904 268.701 22.31L267.511 21.12ZM274.121 27L274.135 24.914H274.219C276.431 24.914 276.977 24.634 277.075 23.962C277.145 23.5 277.047 22.884 276.963 22.282L278.405 22.002C278.587 22.954 278.601 23.99 278.601 24.312C278.657 24.564 278.923 24.914 279.651 24.914H279.721L279.833 25.964L279.721 27H279.637C278.867 27 278.209 26.594 277.789 26.034C277.243 26.72 276.249 27 274.219 27H274.121ZM277.761 29.366L276.571 30.542C276.179 30.15 275.787 29.758 275.395 29.366C275.787 28.96 276.179 28.568 276.571 28.176C276.963 28.568 277.369 28.96 277.761 29.366ZM275.297 29.366L274.107 30.542C273.715 30.15 273.323 29.758 272.931 29.366C273.323 28.96 273.715 28.568 274.107 28.176C274.499 28.568 274.905 28.96 275.297 29.366ZM279.493 27V24.914H279.871C280.571 24.914 281.187 24.858 281.733 24.774C281.243 24.284 280.739 23.696 280.193 22.996L280.249 21.61C282.153 19.706 286.465 20.028 286.997 21.988C287.207 22.856 286.661 23.878 285.653 24.788C286.101 24.872 286.591 24.914 287.137 24.914H287.571L287.683 25.964L287.571 27H287.137C285.667 27 284.547 26.762 283.497 26.174C282.405 26.678 281.145 27 279.871 27H279.493ZM282.083 22.604C282.671 23.248 283.245 23.738 283.861 24.116C284.799 23.612 285.247 23.01 285.429 22.618C285.051 21.974 283.105 21.918 282.083 22.604ZM287.338 27V24.914H287.534C288.864 24.914 289.34 24.088 289.62 22.086L291.076 22.394C290.922 23.472 290.978 24.2 291.384 24.662C292.784 22.17 294.604 20.686 296.34 20.686C298.062 20.686 299.28 21.946 299.126 23.654C298.944 25.922 296.662 27.294 293.54 27.294C291.678 27.294 290.628 26.65 290.096 25.642C289.55 26.51 288.794 27 287.534 27H287.338ZM294.506 18.348L295.794 17.06C296.228 17.494 296.662 17.914 297.082 18.348C296.662 18.782 296.228 19.202 295.794 19.65C295.36 19.202 294.94 18.782 294.506 18.348ZM292.756 25.222C292.896 25.236 293.036 25.25 293.19 25.25C295.878 25.32 297.614 24.312 297.684 23.486C297.712 23.024 297.25 22.59 296.34 22.646C295.15 22.744 293.862 23.64 292.756 25.222ZM299.735 29.282C302.297 28.722 303.697 28.036 304.131 26.972C302.577 27.196 300.869 26.818 300.295 25.6C299.483 23.864 300.785 20.882 302.703 20.882C304.453 20.882 305.699 23.416 305.699 25.964C305.699 28.596 303.683 30.458 300.379 31.088L299.735 29.282ZM301.583 24.424C301.933 24.872 303.053 25.068 304.159 24.984C303.921 23.85 303.375 22.884 302.675 22.758C301.849 22.59 301.219 23.948 301.583 24.424Z" fill="#313A34"/>
<path d="M316.311 17.48C317.842 16.2365 320.035 16.2365 321.565 17.48C321.733 17.6161 321.905 17.7885 322.158 18.0416L322.194 18.0774C322.232 18.1154 322.253 18.1362 322.269 18.1512L322.272 18.1541L322.275 18.1512C322.29 18.1362 322.311 18.1154 322.349 18.0774L322.385 18.0416C322.638 17.7885 322.81 17.6161 322.978 17.48C324.509 16.2365 326.701 16.2365 328.232 17.48C328.4 17.6161 328.572 17.7885 328.825 18.0416L329.176 18.3921C329.633 18.8496 329.945 19.1613 330.166 19.4844C330.818 20.4407 331.031 21.6011 330.802 22.6901C330.739 22.6748 330.673 22.6666 330.605 22.6666H326.079C325.244 22.6666 325.001 22.6582 324.792 22.5947C324.582 22.5311 324.387 22.4267 324.218 22.2876C324.049 22.149 323.907 21.9509 323.444 21.2565L322.965 20.5377C322.761 20.2322 322.382 20.096 322.03 20.2024C321.679 20.3088 321.438 20.6328 321.438 21V23.4712C321.42 23.4555 321.402 23.44 321.384 23.4248C321.045 23.1466 320.655 22.9378 320.236 22.8105C319.76 22.6659 319.25 22.6662 318.574 22.6666L313.938 22.6666C313.87 22.6666 313.804 22.6748 313.741 22.6901C313.513 21.6011 313.725 20.4407 314.378 19.4844C314.598 19.1614 314.91 18.8496 315.368 18.3922L315.718 18.0415C315.971 17.7885 316.144 17.6161 316.311 17.48Z" fill="#F43F5E"/>
<path d="M314.488 24.3333C314.699 24.6062 314.981 24.8884 315.368 25.2745L317.936 27.8432C318.575 28.4819 319.09 28.997 319.541 29.38C320.006 29.7744 320.457 30.0775 320.984 30.2487C321.821 30.5206 322.722 30.5206 323.559 30.2487C324.086 30.0775 324.537 29.7744 325.002 29.38C325.453 28.997 325.968 28.4818 326.607 27.8432L329.176 25.2745C329.562 24.8885 329.844 24.6062 330.056 24.3333L325.969 24.3334C325.294 24.3338 324.784 24.3341 324.308 24.1895C323.888 24.0621 323.498 23.8534 323.16 23.5751C323.141 23.5599 323.123 23.5445 323.105 23.5288V26C323.105 26.3672 322.865 26.6911 322.513 26.7976C322.162 26.904 321.782 26.7678 321.578 26.4622L321.099 25.7434C320.636 25.049 320.494 24.851 320.325 24.7124C320.156 24.5733 319.961 24.4689 319.751 24.4052C319.542 24.3418 319.299 24.3333 318.464 24.3333H314.488Z" fill="#F43F5E"/>
</svg>
