<svg width="308" height="249" viewBox="0 0 308 249" fill="none" xmlns="http://www.w3.org/2000/svg">
<rect y="0.5" width="308" height="248" rx="24" fill="#F5F5F5"/>
<path d="M187.121 103.421H97.0039V49.5832C97.0039 40.3678 104.473 32.8984 113.689 32.8984H170.533C179.749 32.8984 187.218 40.3678 187.218 49.5832V103.421H187.121ZM105.152 95.2721H179.069V49.5832C179.069 44.927 175.286 41.0468 170.533 41.0468H113.689C109.032 41.0468 105.152 44.83 105.152 49.5832V95.2721Z" fill="#313A34"/>
<path d="M179.07 103.421H88.9531V49.5832C88.9531 40.3678 96.4224 32.8984 105.638 32.8984H162.482C171.698 32.8984 179.167 40.3678 179.167 49.5832V103.421H179.07ZM97.1015 95.2721H170.922V49.5832C170.922 44.927 167.139 41.0468 162.385 41.0468H105.541C100.885 41.0468 97.0045 44.83 97.0045 49.5832V95.2721H97.1015Z" fill="#647067"/>
<path d="M272.001 89.0638V195.962C272.001 197.029 271.904 198.193 271.71 199.164C270.158 208.185 262.3 215.169 252.794 215.169H105.347C94.774 215.169 86.1406 206.536 86.1406 195.962V89.0638C86.1406 78.4903 94.774 69.8569 105.347 69.8569H252.794C258.905 69.8569 264.337 72.6701 267.83 77.1322C270.449 80.4304 272.001 84.5046 272.001 89.0638Z" fill="#C5C8C6"/>
<path d="M271.709 199.164C270.157 208.185 262.3 215.17 252.793 215.17H213.021C222.237 214.879 229.9 208.088 231.452 199.164H271.709Z" fill="#A2A9A4"/>
<path d="M222.237 199.164C220.782 208.088 213.119 214.878 203.807 215.073V199.164H222.237Z" fill="#A2A9A4"/>
<path d="M272 89.0638V92.168H228.542V89.0638C228.542 84.6016 226.99 80.4305 224.371 77.1323H267.829C270.448 80.4305 272 84.5046 272 89.0638Z" fill="white"/>
<path d="M217.58 89.0646V195.963C217.58 196.836 217.483 197.612 217.386 198.388C216.222 205.179 210.499 210.126 203.709 210.32H203.418H55.8742C48.0169 210.32 41.5176 203.918 41.5176 195.963V89.0646C41.5176 81.2073 47.9199 74.708 55.8742 74.708H203.321C207.783 74.708 211.857 76.6481 214.573 80.1402C216.513 82.6624 217.58 85.7665 217.58 89.0646Z" fill="#C5C8C6"/>
<path d="M217.582 89.0646V195.963C217.582 196.836 217.485 197.612 217.388 198.388C216.224 205.179 210.5 210.126 203.71 210.32H203.419H71.2023C63.345 210.32 56.8457 203.918 56.8457 195.963V89.0646C56.8457 81.2073 63.248 74.708 71.2023 74.708H203.322C207.784 74.708 211.858 76.6481 214.575 80.1402C216.515 82.6624 217.582 85.7665 217.582 89.0646Z" fill="#E3E4E3"/>
<path d="M203.321 79.5574C206.231 79.5574 208.947 80.9154 210.791 83.1465C211.761 84.3105 212.828 86.2506 212.828 88.9667V195.865C212.828 196.447 212.828 196.932 212.731 197.417C211.955 201.88 208.171 205.178 203.709 205.372H203.418H203.321H55.8748C50.6366 205.372 46.3684 201.104 46.3684 195.865V89.0638C46.3684 83.8255 50.6366 79.5574 55.8748 79.5574H203.321ZM203.321 69.8569H55.8748C45.3013 69.8569 36.668 78.4903 36.668 89.0638V195.962C36.668 206.536 45.3013 215.169 55.8748 215.169H203.321C203.515 215.169 203.709 215.169 203.903 215.169C213.119 214.878 220.782 208.088 222.334 199.261C222.528 198.193 222.625 197.126 222.625 196.059V89.0638C222.625 84.6016 221.073 80.4304 218.454 77.1322C214.865 72.6701 209.432 69.8569 203.321 69.8569Z" fill="white"/>
<path d="M174.511 142.513C174.511 165.891 156.663 185.098 133.867 187.232C132.509 187.329 131.054 187.426 129.599 187.426C104.765 187.426 84.6855 167.346 84.6855 142.513C84.6855 117.68 104.765 97.6001 129.599 97.6001C131.054 97.6001 132.412 97.6971 133.867 97.7941C156.663 99.9282 174.511 119.135 174.511 142.513Z" fill="#E11D3A"/>
<path d="M133.865 187.232C156.313 187.232 174.51 167.211 174.51 142.513C174.51 117.816 156.313 97.7944 133.865 97.7944C111.418 97.7944 93.2207 117.816 93.2207 142.513C93.2207 167.211 111.418 187.232 133.865 187.232Z" fill="#F43F5E"/>
<path d="M140.074 117.098H120.867V167.734H140.074V117.098Z" fill="#C5C8C6"/>
<path d="M155.789 132.91H105.152V152.117H155.789V132.91Z" fill="#C5C8C6"/>
<path d="M135.031 117.098H115.824V167.734H135.031V117.098Z" fill="white"/>
<path d="M150.746 132.91H100.109V152.117H150.746V132.91Z" fill="white"/>
</svg>
