<svg width="64" height="64" viewBox="0 0 64 64" fill="none" xmlns="http://www.w3.org/2000/svg">
<rect width="64" height="64" rx="24" fill="#FECDD3"/>
<path d="M24.8468 24.7759C26.6837 23.2837 29.3151 23.2837 31.152 24.7759C31.3531 24.9393 31.5599 25.1461 31.8635 25.4498L31.9065 25.4928C31.9522 25.5384 31.9771 25.5633 31.9957 25.5813L31.9994 25.5848L32.0031 25.5813C32.0217 25.5633 32.0466 25.5384 32.0923 25.4928L32.1353 25.4498C32.4389 25.1461 32.6457 24.9393 32.8468 24.7759C34.6837 23.2837 37.3151 23.2837 39.152 24.7759C39.3531 24.9393 39.5599 25.1461 39.8635 25.4498L40.2842 25.8705C40.8334 26.4194 41.2077 26.7935 41.4723 27.1811C42.2556 28.3288 42.5101 29.7213 42.2359 31.028C42.1601 31.0096 42.0809 30.9999 41.9994 30.9999H36.5683C35.5668 30.9999 35.2744 30.9897 35.0238 30.9136C34.7722 30.8372 34.5381 30.7119 34.335 30.545C34.1327 30.3787 33.962 30.141 33.4065 29.3077L32.8314 28.4452C32.587 28.0785 32.1314 27.9151 31.7096 28.0428C31.2878 28.1705 30.9994 28.5592 30.9994 28.9999V31.9653C30.9777 31.9465 30.9559 31.9279 30.9337 31.9097C30.5274 31.5758 30.0593 31.3253 29.5562 31.1725C28.9849 30.999 28.373 30.9993 27.5624 30.9998L21.9994 30.9999C21.9179 30.9999 21.8387 31.0096 21.7629 31.028C21.4887 29.7212 21.7432 28.3288 22.5265 27.1811C22.7911 26.7935 23.1654 26.4194 23.7145 25.8705L24.1353 25.4498C24.4389 25.1461 24.6457 24.9392 24.8468 24.7759Z" fill="#F43F5E"/>
<path d="M22.6587 32.9999C22.9122 33.3273 23.2511 33.666 23.7145 34.1293L26.7971 37.2118C27.5634 37.9781 28.1815 38.5963 28.723 39.0559C29.2805 39.5292 29.8221 39.8929 30.4543 40.0983C31.4585 40.4246 32.5403 40.4246 33.5445 40.0983C34.1767 39.8929 34.7183 39.5292 35.2758 39.0559C35.8173 38.5963 36.4354 37.9781 37.2017 37.2117L40.2843 34.1293C40.7477 33.6661 41.0866 33.3273 41.3401 32.9999L36.4364 32.9999C35.6257 33.0004 35.0139 33.0008 34.4426 32.8273C33.9394 32.6745 33.4713 32.424 33.0651 32.0901C33.0429 32.0718 33.021 32.0533 32.9994 32.0345V34.9999C32.9994 35.4405 32.7109 35.8293 32.2892 35.957C31.8674 36.0847 31.4118 35.9212 31.1673 35.5546L30.5923 34.692C30.0368 33.8587 29.8661 33.6211 29.6638 33.4548C29.4606 33.2878 29.2266 33.1626 28.975 33.0862C28.7244 33.0101 28.432 32.9999 27.4305 32.9999H22.6587Z" fill="#F43F5E"/>
</svg>
