<svg width="48" height="48" viewBox="0 0 48 48" fill="none" xmlns="http://www.w3.org/2000/svg">
<rect width="48" height="48" rx="18" fill="#E3E4E3"/>
<path d="M25.6577 31H22.3423C21.094 31 20.4698 31 19.9579 30.8619C18.5831 30.4909 17.5091 29.4169 17.1381 28.0421C17 27.5302 17 26.906 17 25.6577C17 25.4927 17 25.4102 17.0034 25.328C17.0123 25.1111 17.0389 24.8952 17.0828 24.6826C17.0995 24.602 17.1195 24.522 17.1595 24.362L17.7881 21.8478C18.2214 20.1144 18.4381 19.2478 18.9212 18.6025C19.3476 18.0331 19.918 17.5878 20.5737 17.3123C21.317 17 22.2113 17 24 17C25.7887 17 26.683 17 27.4263 17.3123C28.082 17.5878 28.6524 18.0331 29.0788 18.6025C29.5619 19.2478 29.7786 20.1144 30.2119 21.8478L30.8405 24.362L30.8405 24.362C30.8805 24.522 30.9005 24.6021 30.9172 24.6826C30.9611 24.8952 30.9877 25.1111 30.9966 25.328C31 25.4102 31 25.4927 31 25.6577C31 26.906 31 27.5302 30.8619 28.0421C30.4909 29.4169 29.4169 30.4909 28.0421 30.8619C27.5302 31 26.906 31 25.6577 31Z" stroke="#313A34" stroke-width="2" stroke-linecap="round" stroke-linejoin="round"/>
<path d="M31 25H27.9889C27.6299 25 27.4504 25 27.292 25.0547C27.1518 25.103 27.0242 25.1819 26.9183 25.2856C26.7986 25.4029 26.7183 25.5634 26.5578 25.8845L26.4422 26.1155C26.2817 26.4366 26.2014 26.5971 26.0817 26.7144C25.9758 26.8181 25.8482 26.897 25.708 26.9453C25.5496 27 25.3701 27 25.0111 27H22.9889C22.6299 27 22.4504 27 22.292 26.9453C22.1518 26.897 22.0242 26.8181 21.9183 26.7144C21.7986 26.5971 21.7183 26.4366 21.5578 26.1155L21.4422 25.8845C21.2817 25.5634 21.2014 25.4029 21.0817 25.2856C20.9758 25.1819 20.8482 25.103 20.708 25.0547C20.5496 25 20.3701 25 20.0111 25H17" stroke="#313A34" stroke-width="2" stroke-linecap="round" stroke-linejoin="round"/>
</svg>
