<svg width="80" height="80" viewBox="0 0 80 80" fill="none" xmlns="http://www.w3.org/2000/svg">
<g clip-path="url(#clip0_144_6881)">
<rect opacity="0.64" width="80" height="80" fill="#84CC16"/>
<path d="M43.9994 41.3334C43.9994 43.5426 42.2086 45.3334 39.9994 45.3334C37.7903 45.3334 35.9994 43.5426 35.9994 41.3334C35.9994 39.1243 37.7903 37.3334 39.9994 37.3334C42.2086 37.3334 43.9994 39.1243 43.9994 41.3334Z" fill="#313A34"/>
<path fill-rule="evenodd" clip-rule="evenodd" d="M34.6661 30.6667C34.6661 28.4576 36.457 26.6667 38.6661 26.6667H41.3328C43.5419 26.6667 45.3328 28.4576 45.3328 30.6667C49.7511 30.6667 53.3328 34.2485 53.3328 38.6667L53.3328 41.5995C53.3334 43.8248 53.3338 45.264 52.9412 46.4722C52.1499 48.9077 50.2404 50.8172 47.8049 51.6085C46.5967 52.0011 45.1575 52.0007 42.9322 52.0001H37.0667C34.8413 52.0007 33.4022 52.0011 32.194 51.6085C29.7585 50.8172 27.849 48.9077 27.0577 46.4722C26.6651 45.264 26.6655 43.8248 26.6661 41.5995L26.6661 38.6667C26.6661 34.2485 30.2478 30.6667 34.6661 30.6667ZM39.9994 34.6667C36.3175 34.6667 33.3328 37.6515 33.3328 41.3334C33.3328 45.0153 36.3175 48.0001 39.9994 48.0001C43.6813 48.0001 46.6661 45.0153 46.6661 41.3334C46.6661 37.6515 43.6813 34.6667 39.9994 34.6667Z" fill="#313A34"/>
</g>
<defs>
<clipPath id="clip0_144_6881">
<rect width="80" height="80" rx="30" fill="white"/>
</clipPath>
</defs>
</svg>
