<svg width="48" height="48" viewBox="0 0 48 48" fill="none" xmlns="http://www.w3.org/2000/svg">
<rect width="48" height="48" rx="18" fill="#E3E4E3"/>
<path d="M15 19C15 18.4477 15.4477 18 16 18H32C32.5523 18 33 18.4477 33 19C33 19.5523 32.5523 20 32 20H16C15.4477 20 15 19.5523 15 19Z" fill="#313A34"/>
<path d="M18 24C18 23.4477 18.4477 23 19 23H29C29.5523 23 30 23.4477 30 24C30 24.5523 29.5523 25 29 25H19C18.4477 25 18 24.5523 18 24Z" fill="#313A34"/>
<path d="M22 28C21.4477 28 21 28.4477 21 29C21 29.5523 21.4477 30 22 30H26C26.5523 30 27 29.5523 27 29C27 28.4477 26.5523 28 26 28H22Z" fill="#313A34"/>
</svg>
