<svg width="56" height="56" viewBox="0 0 56 56" fill="none" xmlns="http://www.w3.org/2000/svg">
<path d="M27.9243 19H28.0757C28.4657 18.9998 28.7734 18.9997 29.0475 19.0431C30.5452 19.2803 31.7197 20.4549 31.9569 21.9525C32.0003 22.2267 32.0002 22.5343 32 22.9243V23.0758C32.0002 23.4658 32.0003 23.7734 31.9569 24.0476C31.7197 25.5452 30.5452 26.7198 29.0475 26.957C28.7734 27.0004 28.4657 27.0002 28.0757 27.0001H27.9243C27.5343 27.0002 27.2266 27.0004 26.9525 26.957C25.4549 26.7198 24.2803 25.5452 24.0431 24.0476C23.9997 23.7734 23.9998 23.4658 24 23.0758V22.9243C23.9998 22.5343 23.9997 22.2267 24.0431 21.9525C24.2803 20.4549 25.4549 19.2803 26.9525 19.0431C27.2266 18.9997 27.5343 18.9998 27.9243 19Z" fill="#647067"/>
<path d="M26.3572 28H29.6428C30.7266 28 31.6008 28 32.3086 28.0578C33.0375 28.1174 33.6777 28.2432 34.27 28.545C35.2108 29.0243 35.9757 29.7892 36.455 30.73C36.7568 31.3223 36.8826 31.9625 36.9422 32.6914C37 33.3992 37 34.2733 37 35.3571V36C37 36.5523 36.5523 37 36 37H20C19.4477 37 19 36.5523 19 36V35.3572C19 34.2734 19 33.3993 19.0578 32.6914C19.1174 31.9625 19.2432 31.3223 19.545 30.73C20.0243 29.7892 20.7892 29.0243 21.73 28.545C22.3223 28.2432 22.9625 28.1174 23.6914 28.0578C24.3992 28 25.2734 28 26.3572 28Z" fill="#647067"/>
</svg>
