<svg width="57" height="56" viewBox="0 0 57 56" fill="none" xmlns="http://www.w3.org/2000/svg">
<path fill-rule="evenodd" clip-rule="evenodd" d="M30.7443 18.8055C29.4246 18.2025 27.9082 18.2025 26.5885 18.8055C25.7228 19.201 25.063 19.9527 24.4274 20.9004C23.7929 21.8464 23.0888 23.1372 22.1955 24.7749L20.9259 27.1025C20.097 28.6222 19.4414 29.8242 19.0175 30.805C18.5908 31.7924 18.3308 32.7014 18.4416 33.6069C18.6115 34.9967 19.3564 36.2516 20.4952 37.0663C21.2371 37.5972 22.1596 37.8042 23.2308 37.9024C24.2948 38 25.664 38 27.395 38H29.9378C31.6688 38 33.038 38 34.102 37.9024C35.1732 37.8042 36.0957 37.5972 36.8377 37.0663C37.9764 36.2516 38.7213 34.9967 38.8913 33.6069C39.002 32.7014 38.742 31.7924 38.3153 30.805C37.8914 29.8242 37.2358 28.6222 36.4069 27.1026L35.1373 24.775C34.244 23.1372 33.5399 21.8464 32.9054 20.9004C32.2699 19.9527 31.61 19.201 30.7443 18.8055ZM28.6664 23C29.2187 23 29.6664 23.4477 29.6664 24V30C29.6664 30.5523 29.2187 31 28.6664 31C28.1141 31 27.6664 30.5523 27.6664 30V24C27.6664 23.4477 28.1141 23 28.6664 23ZM28.6664 34C29.2187 34 29.6664 33.5523 29.6664 33C29.6664 32.4477 29.2187 32 28.6664 32C28.1141 32 27.6664 32.4477 27.6664 33C27.6664 33.5523 28.1141 34 28.6664 34Z" fill="#F43F5E"/>
</svg>
