<svg width="57" height="56" viewBox="0 0 57 56" fill="none" xmlns="http://www.w3.org/2000/svg">
<rect x="0.666016" width="56" height="56" rx="21" fill="#48524B"/>
<path fill-rule="evenodd" clip-rule="evenodd" d="M30.7443 18.8057C29.4246 18.2028 27.9082 18.2028 26.5885 18.8057C25.7228 19.2013 25.063 19.9529 24.4274 20.9006C23.7929 21.8466 23.0888 23.1375 22.1955 24.7751L20.9259 27.1028C20.097 28.6224 19.4414 29.8244 19.0175 30.8052C18.5908 31.7926 18.3308 32.7017 18.4416 33.6072C18.6115 34.997 19.3564 36.2518 20.4952 37.0666C21.2371 37.5974 22.1596 37.8045 23.2308 37.9027C24.2948 38.0002 25.664 38.0002 27.395 38.0002H29.9378C31.6688 38.0002 33.038 38.0002 34.102 37.9027C35.1732 37.8045 36.0957 37.5974 36.8377 37.0666C37.9764 36.2518 38.7213 34.997 38.8913 33.6072C39.002 32.7017 38.742 31.7926 38.3153 30.8052C37.8914 29.8244 37.2358 28.6224 36.4069 27.1028L35.1373 24.7752C34.244 23.1375 33.5399 21.8466 32.9054 20.9006C32.2699 19.9529 31.61 19.2013 30.7443 18.8057ZM28.6664 23.0002C29.2187 23.0002 29.6664 23.448 29.6664 24.0002V30.0002C29.6664 30.5525 29.2187 31.0002 28.6664 31.0002C28.1141 31.0002 27.6664 30.5525 27.6664 30.0002V24.0002C27.6664 23.448 28.1141 23.0002 28.6664 23.0002ZM28.6664 34.0002C29.2187 34.0002 29.6664 33.5525 29.6664 33.0002C29.6664 32.448 29.2187 32.0002 28.6664 32.0002C28.1141 32.0002 27.6664 32.448 27.6664 33.0002C27.6664 33.5525 28.1141 34.0002 28.6664 34.0002Z" fill="#F43F5E"/>
<path d="M20.416 56C20.416 55.07 20.416 54.605 20.5182 54.2235C20.7956 53.1883 21.6043 52.3796 22.6396 52.1022C23.0211 52 23.486 52 24.416 52H32.416C33.346 52 33.811 52 34.1925 52.1022C35.2277 52.3796 36.0364 53.1883 36.3138 54.2235C36.416 54.605 36.416 55.07 36.416 56H20.416Z" fill="#60A5FA"/>
</svg>
