<svg width="57" height="56" viewBox="0 0 57 56" fill="none" xmlns="http://www.w3.org/2000/svg">
<path d="M28.2583 19H28.4097C28.7997 18.9998 29.1073 18.9997 29.3815 19.0431C30.8791 19.2803 32.0537 20.4549 32.2909 21.9525C32.3343 22.2267 32.3342 22.5343 32.334 22.9243V23.0758C32.3342 23.4658 32.3343 23.7734 32.2909 24.0476C32.0537 25.5452 30.8791 26.7198 29.3815 26.957C29.1073 27.0004 28.7997 27.0002 28.4097 27.0001H28.2583C27.8683 27.0002 27.5606 27.0004 27.2864 26.957C25.7888 26.7198 24.6143 25.5452 24.3771 24.0476C24.3336 23.7734 24.3338 23.4658 24.3339 23.0758V22.9243C24.3338 22.5343 24.3336 22.2267 24.3771 21.9525C24.6143 20.4549 25.7888 19.2803 27.2864 19.0431C27.5606 18.9997 27.8683 18.9998 28.2583 19Z" fill="#647067"/>
<path fill-rule="evenodd" clip-rule="evenodd" d="M26.6912 28H29.9768C31.0606 28 31.9347 28 32.6426 28.0578C33.3715 28.1174 34.0116 28.2432 34.6039 28.545C35.5447 29.0243 36.3097 29.7892 36.789 30.73C37.0908 31.3223 37.2166 31.9625 37.2762 32.6914C37.334 33.3992 37.334 34.2733 37.334 35.3571V36C37.334 36.5523 36.8863 37 36.334 37H20.334C19.7817 37 19.334 36.5523 19.334 36V35.3572C19.334 34.2734 19.334 33.3992 19.3918 32.6914C19.4514 31.9625 19.5772 31.3223 19.879 30.73C20.3583 29.7892 21.1232 29.0243 22.064 28.545C22.6563 28.2432 23.2965 28.1174 24.0254 28.0578C24.7332 28 25.6074 28 26.6912 28ZM25.334 33C25.334 32.4477 25.7817 32 26.334 32H27.334V31C27.334 30.4477 27.7817 30 28.334 30C28.8863 30 29.334 30.4477 29.334 31V32H30.334C30.8863 32 31.334 32.4477 31.334 33C31.334 33.5523 30.8863 34 30.334 34H29.334V35C29.334 35.5523 28.8863 36 28.334 36C27.7817 36 27.334 35.5523 27.334 35V34H26.334C25.7817 34 25.334 33.5523 25.334 33Z" fill="#647067"/>
</svg>
