<svg width="56" height="56" viewBox="0 0 56 56" fill="none" xmlns="http://www.w3.org/2000/svg">
<rect width="56" height="56" rx="21" fill="#48524B"/>
<path d="M19.2929 26.2929C18.9024 26.6834 18.9024 27.3166 19.2929 27.7071C19.6834 28.0976 20.3166 28.0976 20.7071 27.7071L21 27.4142L21 30.0355C21 30.9373 21 31.6647 21.0404 32.2567C21.0819 32.8654 21.1695 33.4037 21.3806 33.9134C21.8881 35.1386 22.8614 36.1119 24.0866 36.6194C24.5963 36.8305 25.1346 36.9181 25.7433 36.9596C25.8262 36.9653 25.9117 36.9701 26 36.9743V33C26 32.6934 26 32.5401 26.0201 32.4119C26.1323 31.6948 26.6948 31.1323 27.4119 31.0201C27.5401 31 27.6934 31 28 31C28.3066 31 28.4599 31 28.5881 31.0201C29.3052 31.1323 29.8677 31.6948 29.9799 32.4119C30 32.5401 30 32.6934 30 33V36.9743C30.0883 36.9701 30.1738 36.9653 30.2567 36.9596C30.8654 36.9181 31.4037 36.8305 31.9134 36.6194C33.1386 36.1119 34.1119 35.1386 34.6194 33.9134C34.8305 33.4037 34.9181 32.8654 34.9596 32.2567C35 31.6647 35 30.9373 35 30.0355L35 27.4142L35.2929 27.7071C35.6834 28.0976 36.3166 28.0976 36.7071 27.7071C37.0976 27.3166 37.0976 26.6834 36.7071 26.2929L32.9247 22.5105C32.2871 21.8729 31.7726 21.3584 31.3255 20.9684C30.8657 20.5673 30.4231 20.2486 29.9134 20.0375C29.3162 19.7901 28.683 19.6633 28.0489 19.6571L28 19.6569C27.3496 19.6569 26.6992 19.7837 26.0866 20.0375C25.5769 20.2486 25.1343 20.5673 24.6745 20.9684C24.2274 21.3584 23.713 21.8728 23.0754 22.5104L19.2929 26.2929Z" fill="white"/>
<path d="M28.1846 37H27.8154C27.8646 37 27.9143 37 27.9645 37H28.0355C28.0857 37 28.1354 37 28.1846 37Z" fill="white"/>
<path d="M20 56C20 55.07 20 54.605 20.1022 54.2235C20.3796 53.1883 21.1883 52.3796 22.2235 52.1022C22.605 52 23.07 52 24 52H32C32.93 52 33.395 52 33.7765 52.1022C34.8117 52.3796 35.6204 53.1883 35.8978 54.2235C36 54.605 36 55.07 36 56H20Z" fill="#60A5FA"/>
</svg>
