<svg width="56" height="56" viewBox="0 0 56 56" fill="none" xmlns="http://www.w3.org/2000/svg">
<path d="M19.2929 26.2928C18.9024 26.6833 18.9024 27.3165 19.2929 27.707C19.6834 28.0975 20.3166 28.0975 20.7071 27.707L21 27.4141L21 30.0354C21 30.9372 21 31.6646 21.0404 32.2566C21.0819 32.8653 21.1695 33.4036 21.3806 33.9133C21.8881 35.1384 22.8614 36.1118 24.0866 36.6193C24.5963 36.8304 25.1346 36.918 25.7433 36.9595C25.8262 36.9652 25.9117 36.97 26 36.9742V32.9999C26 32.6933 26 32.54 26.0201 32.4117C26.1323 31.6947 26.6948 31.1321 27.4119 31.0199C27.5401 30.9999 27.6934 30.9999 28 30.9999C28.3066 30.9999 28.4599 30.9999 28.5881 31.0199C29.3052 31.1321 29.8677 31.6947 29.9799 32.4117C30 32.54 30 32.6933 30 32.9999V36.9742C30.0883 36.97 30.1738 36.9652 30.2567 36.9595C30.8654 36.918 31.4037 36.8304 31.9134 36.6193C33.1386 36.1118 34.1119 35.1384 34.6194 33.9133C34.8305 33.4036 34.9181 32.8653 34.9596 32.2566C35 31.6646 35 30.9372 35 30.0354L35 27.4141L35.2929 27.707C35.6834 28.0975 36.3166 28.0975 36.7071 27.707C37.0976 27.3165 37.0976 26.6833 36.7071 26.2928L32.9247 22.5103C32.2871 21.8727 31.7726 21.3583 31.3255 20.9682C30.8657 20.5672 30.4231 20.2485 29.9134 20.0373C29.3162 19.79 28.683 19.6632 28.0489 19.657L28 19.6567C27.3496 19.6567 26.6992 19.7836 26.0866 20.0373C25.5769 20.2485 25.1343 20.5672 24.6745 20.9682C24.2274 21.3583 23.713 21.8726 23.0754 22.5103L19.2929 26.2928Z" fill="#647067"/>
<path d="M28.1846 36.9999H27.8154C27.8646 36.9999 27.9143 36.9999 27.9645 36.9999H28.0355C28.0857 36.9999 28.1354 36.9999 28.1846 36.9999Z" fill="#647067"/>
</svg>
