<svg width="56" height="56" viewBox="0 0 56 56" fill="none" xmlns="http://www.w3.org/2000/svg">
<rect width="56" height="56" rx="21" fill="white" fill-opacity="0.32"/>
<path fill-rule="evenodd" clip-rule="evenodd" d="M28 20.125C28.4832 20.125 28.875 20.5168 28.875 21V21.8805C29.2044 21.8888 29.4776 21.9091 29.7285 21.9591C31.464 22.3043 32.8207 23.661 33.1659 25.3965C33.2503 25.8207 33.2502 26.3083 33.25 27.0237L33.25 32.375H34.125C34.6082 32.375 35 32.7668 35 33.25C35 33.7332 34.6082 34.125 34.125 34.125H30.625L30.625 34.1769C30.6252 34.3924 30.6254 34.593 30.5969 34.7749C30.44 35.778 29.653 36.565 28.6499 36.7219C28.468 36.7504 28.2674 36.7502 28.0519 36.75L28 36.75L27.9481 36.75C27.7326 36.7502 27.532 36.7504 27.3501 36.7219C26.347 36.565 25.56 35.778 25.4031 34.7749C25.3746 34.593 25.3748 34.3924 25.375 34.1769L25.375 34.125H21.875C21.3918 34.125 21 33.7332 21 33.25C21 32.7668 21.3918 32.375 21.875 32.375H22.75L22.75 27.0237C22.7498 26.3083 22.7497 25.8207 22.8341 25.3965C23.1793 23.661 24.536 22.3043 26.2715 21.9591C26.5224 21.9091 26.7956 21.8888 27.125 21.8805V21C27.125 20.5168 27.5168 20.125 28 20.125ZM27.125 34.125C27.125 34.4263 27.1277 34.4763 27.132 34.5044C27.1714 34.7561 27.3689 34.9536 27.6206 34.993C27.6487 34.9973 27.6987 35 28 35C28.3013 35 28.3513 34.9973 28.3794 34.993C28.6311 34.9536 28.8286 34.7561 28.868 34.5044C28.8723 34.4763 28.875 34.4263 28.875 34.125H27.125Z" fill="white"/>
</svg>
