<svg width="375" height="60" viewBox="0 0 375 60" fill="none" xmlns="http://www.w3.org/2000/svg">
<rect x="81.75" width="24" height="24" rx="9" fill="#60A5FA"/>
<rect x="89.75" y="8" width="8" height="8" rx="3" fill="white"/>
<path d="M113.75 12H187.5" stroke="#60A5FA" stroke-width="2"/>
<path d="M55.9674 58.208C52.7354 58.224 50.1114 56.368 50.3994 53.184C50.6714 50.224 53.2794 48.224 57.4394 47.472C56.1114 46.544 55.2634 46.096 54.3834 46.096C53.4714 46.096 52.8474 46.736 52.5754 47.184L51.2314 46.208C52.0154 44.656 53.0874 43.792 54.4634 43.808C55.7114 43.792 56.7194 44.384 58.5434 45.712C59.5194 46.416 59.9834 46.72 60.6874 46.976L60.4154 49.264H60.0154C60.3194 49.504 60.7834 49.616 61.4074 49.616H61.6794L61.8074 50.816L61.6794 52H61.4074C59.6474 52 58.4634 50.976 58.0794 49.424C54.4634 49.936 52.3674 51.664 52.1274 53.344C51.9994 54.704 53.6794 55.76 55.9674 55.84C57.8394 55.92 59.5514 55.312 59.9834 55.136L60.8474 56.96C60.5114 57.152 58.8314 58.208 55.9674 58.208ZM52.5114 41.344C53.0234 40.848 53.5034 40.352 53.9994 39.872C54.4954 40.352 54.9754 40.848 55.4714 41.344L53.9994 42.816C53.5034 42.32 53.0234 41.84 52.5114 41.344ZM61.4264 52L61.2984 50.816L61.4264 49.616H62.7704C64.9464 49.616 65.6664 49.232 65.6664 48.512C65.6504 47.968 64.9304 46.112 64.7864 45.824L66.4824 44.896C66.7864 45.552 67.4424 47.36 67.4424 48.624C67.4264 50.784 66.0024 52 63.1224 52H61.4264ZM66.9464 54.704L65.5864 56.048C65.1384 55.6 64.6904 55.152 64.2424 54.704C64.6904 54.24 65.1384 53.792 65.5864 53.344C66.0344 53.792 66.4984 54.24 66.9464 54.704ZM64.1304 54.704L62.7704 56.048C62.3224 55.6 61.8744 55.152 61.4264 54.704C61.8744 54.24 62.3224 53.792 62.7704 53.344C63.2184 53.792 63.6824 54.24 64.1304 54.704ZM67.2996 54.656C69.4596 53.776 71.1236 52.384 71.1236 51.568C71.1236 50.896 70.3396 48.208 70.1956 47.68L71.9876 46.976C72.4996 48.464 72.8196 50.272 72.8196 51.568C72.8196 53.728 70.9476 55.568 68.2756 56.672L67.2996 54.656ZM77.8074 52C75.3914 52 74.4954 50.592 74.4954 47.92C74.4794 45.52 74.3514 42.464 74.0794 40.592L76.0634 40.16C76.3034 41.952 76.4474 45.552 76.4154 47.616C76.3834 49.152 76.5754 49.616 77.8074 49.616H77.8874L78.0154 50.816L77.8874 52H77.8074ZM77.6042 52L77.5882 49.616H78.3722C80.5482 49.616 81.2682 49.232 81.2682 48.512C81.2522 47.968 80.5322 46.112 80.3882 45.824L82.0842 44.896C82.3882 45.552 83.0442 47.36 83.0442 48.624C83.0282 50.784 81.6042 52 78.7242 52H77.6042ZM77.7322 42.944C78.1962 42.496 78.6442 42.048 79.0922 41.6L80.4362 42.944C79.9882 43.392 79.5402 43.856 79.0922 44.304C78.6442 43.856 78.1962 43.392 77.7322 42.944ZM80.5482 42.944C81.0122 42.496 81.4602 42.048 81.9082 41.6L83.2522 42.944C82.8042 43.392 82.3562 43.856 81.9082 44.304C81.4602 43.856 81.0122 43.392 80.5482 42.944ZM87.2374 54.608C90.1654 53.968 91.7654 53.184 92.2614 51.968C90.4854 52.224 88.5334 51.792 87.8774 50.4C86.9494 48.416 88.4374 45.008 90.6294 45.008C92.6294 45.008 94.0534 47.904 94.0534 50.816C94.0534 53.824 91.7494 55.952 87.9734 56.672L87.2374 54.608ZM89.3494 49.056C89.7494 49.568 91.0294 49.792 92.2934 49.696C92.0214 48.4 91.3974 47.296 90.5974 47.152C89.6534 46.96 88.9334 48.512 89.3494 49.056ZM104.663 52.192C100.823 52.208 98.5671 50.96 98.3751 48.864C98.2791 47.824 98.6151 46.464 99.0151 45.568L100.551 46.304C100.375 46.848 100.087 47.808 100.135 48.4C100.279 49.168 101.799 49.792 104.615 49.808C108.711 49.792 109.799 49.088 110.583 46.96L112.247 47.152C111.959 48.016 111.879 48.624 112.007 49.024C112.119 49.44 112.471 49.616 112.999 49.616L113.127 50.816L112.999 52C111.831 52 110.791 51.264 110.599 50.112C109.239 51.712 107.351 52.176 104.663 52.192ZM102.375 45.28C102.823 44.832 103.271 44.384 103.735 43.936L105.079 45.28C104.631 45.728 104.183 46.176 103.735 46.64L102.375 45.28ZM105.191 45.28C105.639 44.832 106.087 44.384 106.551 43.936L107.895 45.28C107.447 45.728 106.999 46.176 106.551 46.64L105.191 45.28ZM112.714 52V49.616H112.906C113.386 49.616 113.85 49.616 114.298 49.6C114.042 49.168 113.882 48.688 113.85 48.128C113.722 46.224 115.178 44.464 117.066 44.24C118.282 44.112 119.466 44.672 120.346 45.456L119.578 47.056C118.826 46.736 117.994 46.528 117.242 46.624C116.218 46.72 115.482 47.392 115.53 47.968C115.578 48.688 116.586 49.376 117.802 49.36C118.826 49.216 119.674 49.024 120.41 48.768L120.858 50.88C119.226 51.536 116.81 52 112.906 52H112.714ZM125.693 52C123.277 52 122.381 50.592 122.381 47.92C122.365 45.52 122.237 42.464 121.965 40.592L123.949 40.16C124.189 41.952 124.333 45.552 124.301 47.616C124.269 49.152 124.461 49.616 125.693 49.616H125.773L125.901 50.816L125.773 52H125.693ZM134.401 52C133.409 51.984 132.689 51.488 132.305 50.64C131.745 51.472 131.073 51.984 130.177 52H130.097C129.185 52 128.449 51.472 128.177 50.656C127.489 51.536 126.593 52 125.585 52H125.537L125.409 50.816L125.537 49.616H125.617C126.289 49.616 126.993 49.28 127.313 48.864C127.841 48.256 128.065 47.28 128.145 46.976L129.809 47.152C129.713 47.488 129.505 48.208 129.473 48.72C129.457 49.312 129.665 49.616 130.145 49.616H130.177C130.769 49.616 131.169 49.296 131.457 48.736C131.777 48.096 131.937 47.2 131.985 46.864L133.649 46.944C133.585 47.232 133.473 48 133.473 48.448C133.473 49.168 133.745 49.616 134.433 49.616H134.449C135.089 49.616 135.457 49.216 135.457 48.64C135.457 47.984 134.753 46.208 134.577 45.824L136.225 44.928C136.529 45.568 137.201 47.44 137.201 48.736C137.201 50.512 136.097 51.984 134.481 52H134.401Z" fill="#313A34"/>
<path d="M187.5 12H261.25" stroke="#60A5FA" stroke-width="2"/>
<rect x="269.25" width="24" height="24" rx="9" fill="#60A5FA"/>
<path d="M276.584 12.5833L276.861 12.8601C277.785 13.7842 278.247 14.2462 278.78 14.4193C279.248 14.5716 279.753 14.5716 280.222 14.4193C280.754 14.2462 281.216 13.7842 282.141 12.8601L286.501 8.5" stroke="white" stroke-width="2" stroke-linecap="round" stroke-linejoin="round"/>
<path d="M256.418 52.192C252.674 52.176 250.482 50.928 250.29 48.864C250.194 47.824 250.53 46.464 250.93 45.568L252.466 46.304C252.29 46.848 252.002 47.808 252.05 48.4C252.194 49.168 253.698 49.792 256.498 49.808C259.666 49.792 260.994 49.152 261.042 48.944C260.85 47.76 260.194 46.128 260.066 45.824L261.746 44.896C262.242 46 262.754 47.744 262.706 48.944C262.594 51.136 260.018 52.16 256.578 52.192C256.53 52.192 256.482 52.192 256.434 52.192H256.418ZM253.714 45.232C254.162 44.784 254.61 44.336 255.074 43.888L256.418 45.232C255.97 45.68 255.522 46.144 255.074 46.592C254.61 46.144 254.162 45.68 253.714 45.232ZM256.53 45.232C256.978 44.784 257.426 44.336 257.89 43.888L259.234 45.232C258.786 45.68 258.338 46.144 257.89 46.592C257.426 46.144 256.978 45.68 256.53 45.232ZM267.689 52C265.273 52 264.377 50.592 264.377 47.92C264.361 45.52 264.233 42.464 263.961 40.592L265.945 40.16C266.185 41.952 266.329 45.552 266.297 47.616C266.265 49.152 266.457 49.616 267.689 49.616H267.769L267.897 50.816L267.769 52H267.689ZM279.582 52C277.502 51.984 276.206 51.296 275.55 50.048C272.894 51.408 271.102 51.984 268.19 52H267.47V49.616H268.67C271.022 49.616 273.006 49.184 275.406 47.968C275.054 47.824 274.686 47.648 274.27 47.44C273.454 47.024 272.558 46.72 271.822 46.72C270.926 46.72 270.286 47.36 270.014 47.792L268.67 46.816C269.454 45.264 270.542 44.416 271.918 44.432C272.862 44.448 273.55 44.752 275.006 45.488C276.174 46.096 276.926 46.416 278.014 46.64L278.094 48.784C277.87 48.848 277.582 48.976 277.23 49.152C277.662 49.424 278.238 49.616 278.958 49.616H279.742L279.87 50.816L279.742 52H279.582ZM279.467 52L279.483 49.616H279.579C282.107 49.616 282.731 49.296 282.843 48.528C282.923 48 282.811 47.296 282.715 46.608L284.363 46.288C284.571 47.376 284.587 48.56 284.587 48.928C284.651 49.216 284.955 49.616 285.787 49.616H285.867L285.995 50.816L285.867 52H285.771C284.891 52 284.139 51.536 283.659 50.896C283.035 51.68 281.899 52 279.579 52H279.467ZM283.627 54.704L282.267 56.048C281.819 55.6 281.371 55.152 280.923 54.704C281.371 54.24 281.819 53.792 282.267 53.344C282.715 53.792 283.179 54.24 283.627 54.704ZM280.811 54.704L279.451 56.048C279.003 55.6 278.555 55.152 278.107 54.704C278.555 54.24 279.003 53.792 279.451 53.344C279.899 53.792 280.363 54.24 280.811 54.704ZM285.557 52V49.616H285.781C287.301 49.616 287.845 48.672 288.165 46.384L289.829 46.736C289.653 47.968 289.717 48.8 290.181 49.328C291.781 46.48 293.861 44.784 295.845 44.784C297.813 44.784 299.205 46.224 299.029 48.176C298.821 50.768 296.213 52.336 292.645 52.336C290.517 52.336 289.317 51.6 288.709 50.448C288.085 51.44 287.221 52 285.781 52H285.557ZM293.749 42.112L295.221 40.64C295.717 41.136 296.213 41.616 296.693 42.112C296.213 42.608 295.717 43.088 295.221 43.6C294.725 43.088 294.245 42.608 293.749 42.112ZM291.749 49.968C291.909 49.984 292.069 50 292.245 50C295.317 50.08 297.301 48.928 297.381 47.984C297.413 47.456 296.885 46.96 295.845 47.024C294.485 47.136 293.013 48.16 291.749 49.968ZM299.694 54.608C302.574 53.984 304.174 53.216 304.702 52.016C302.702 51.984 300.974 51.76 300.334 50.4C299.406 48.416 300.894 45.008 303.086 45.008C304.814 45.008 306.11 47.152 306.43 49.616H307.102L307.23 50.816L307.102 52H306.382C305.854 54.384 303.694 56.048 300.43 56.672L299.694 54.608ZM301.806 49.056C302.126 49.488 303.31 49.6 304.734 49.616C304.462 48.352 303.838 47.296 303.054 47.152C302.11 46.96 301.406 48.496 301.806 49.056ZM306.77 52L306.754 49.616H307.538C309.714 49.616 310.434 49.232 310.434 48.512C310.418 47.968 309.698 46.112 309.554 45.824L311.25 44.896C311.554 45.552 312.21 47.36 312.21 48.624C312.194 50.784 310.77 52 307.89 52H306.77ZM306.898 42.944C307.362 42.496 307.81 42.048 308.258 41.6L309.602 42.944C309.154 43.392 308.706 43.856 308.258 44.304C307.81 43.856 307.362 43.392 306.898 42.944ZM309.714 42.944C310.178 42.496 310.626 42.048 311.074 41.6L312.418 42.944C311.97 43.392 311.522 43.856 311.074 44.304C310.626 43.856 310.178 43.392 309.714 42.944Z" fill="#313A34"/>
</svg>
