<svg width="96" height="96" viewBox="0 0 96 96" fill="none" xmlns="http://www.w3.org/2000/svg">
<g filter="url(#filter0_d_211_7169)">
<rect x="16" y="8" width="64" height="64" rx="24" fill="#3B82F6"/>
<path d="M49 32C49 31.4477 48.5523 31 48 31C47.4477 31 47 31.4477 47 32V39H40C39.4477 39 39 39.4477 39 40C39 40.5523 39.4477 41 40 41H47V48C47 48.5523 47.4477 49 48 49C48.5523 49 49 48.5523 49 48V41H56C56.5523 41 57 40.5523 57 40C57 39.4477 56.5523 39 56 39H49V32Z" fill="white"/>
</g>
<defs>
<filter id="filter0_d_211_7169" x="0" y="0" width="96" height="96" filterUnits="userSpaceOnUse" color-interpolation-filters="sRGB">
<feFlood flood-opacity="0" result="BackgroundImageFix"/>
<feColorMatrix in="SourceAlpha" type="matrix" values="0 0 0 0 0 0 0 0 0 0 0 0 0 0 0 0 0 0 127 0" result="hardAlpha"/>
<feOffset dy="8"/>
<feGaussianBlur stdDeviation="8"/>
<feComposite in2="hardAlpha" operator="out"/>
<feColorMatrix type="matrix" values="0 0 0 0 0.376471 0 0 0 0 0.647059 0 0 0 0 0.980392 0 0 0 0.25 0"/>
<feBlend mode="normal" in2="BackgroundImageFix" result="effect1_dropShadow_211_7169"/>
<feBlend mode="normal" in="SourceGraphic" in2="effect1_dropShadow_211_7169" result="shape"/>
</filter>
</defs>
</svg>
