<svg width="48" height="48" viewBox="0 0 48 48" fill="none" xmlns="http://www.w3.org/2000/svg">
<rect width="48" height="48" rx="18" fill="#F5F5F5"/>
<path d="M18 21H19.4C19.9601 21 20.2401 21 20.454 20.891C20.6422 20.7951 20.7951 20.6422 20.891 20.454C21 20.2401 21 19.9601 21 19.4V18C21 17.5355 21 17.3032 21.0308 17.1089C21.2002 16.0392 22.0392 15.2002 23.1089 15.0308C23.3032 15 23.5355 15 24 15C24.4645 15 24.6968 15 24.8911 15.0308C25.9608 15.2002 26.7998 16.0392 26.9692 17.1089C27 17.3032 27 17.5355 27 18V19.4C27 19.9601 27 20.2401 27.109 20.454C27.2049 20.6422 27.3578 20.7951 27.546 20.891C27.7599 21 28.0399 21 28.6 21H30C30.4645 21 30.6968 21 30.8911 21.0308C31.9608 21.2002 32.7998 22.0392 32.9692 23.1089C33 23.3032 33 23.5355 33 24C33 24.4645 33 24.6968 32.9692 24.8911C32.7998 25.9608 31.9608 26.7998 30.8911 26.9692C30.6968 27 30.4645 27 30 27H28.6C28.0399 27 27.7599 27 27.546 27.109C27.3578 27.2049 27.2049 27.3578 27.109 27.546C27 27.7599 27 28.0399 27 28.6V30C27 30.4645 27 30.6968 26.9692 30.8911C26.7998 31.9608 25.9608 32.7998 24.8911 32.9692C24.6968 33 24.4645 33 24 33C23.5355 33 23.3032 33 23.1089 32.9692C22.0392 32.7998 21.2002 31.9608 21.0308 30.8911C21 30.6968 21 30.4645 21 30V28.6C21 28.0399 21 27.7599 20.891 27.546C20.7951 27.3578 20.6422 27.2049 20.454 27.109C20.2401 27 19.9601 27 19.4 27H18C17.5355 27 17.3032 27 17.1089 26.9692C16.0392 26.7998 15.2002 25.9608 15.0308 24.8911C15 24.6968 15 24.4645 15 24C15 23.5355 15 23.3032 15.0308 23.1089C15.2002 22.0392 16.0392 21.2002 17.1089 21.0308C17.3032 21 17.5355 21 18 21Z" stroke="#313A34" stroke-width="2" stroke-linecap="round" stroke-linejoin="round"/>
</svg>
