<svg width="56" height="56" viewBox="0 0 56 56" fill="none" xmlns="http://www.w3.org/2000/svg">
<rect width="56" height="56" rx="21" fill="#F5F5F5"/>
<path fill-rule="evenodd" clip-rule="evenodd" d="M27.097 19.25H28.903C29.2868 19.25 29.618 19.25 29.8921 19.2687C30.1807 19.2884 30.4694 19.3317 30.7545 19.4498C31.3977 19.7162 31.9088 20.2273 32.1752 20.8705C32.2933 21.1556 32.3366 21.4443 32.3563 21.7329C32.375 22.007 32.375 22.3382 32.375 22.722V22.75C32.9972 23.2167 33.4893 23.845 33.792 24.5758C33.898 24.8316 33.9684 25.0957 34.016 25.375H34.125C34.6082 25.375 35 25.7668 35 26.25C35 26.7333 34.6082 27.125 34.125 27.125H34.123C34.125 27.3849 34.125 27.6655 34.125 27.9685V28.0311C34.125 28.7097 34.125 29.2754 34.1025 29.75H34.125C34.6082 29.75 35 30.1418 35 30.625C35 31.1083 34.6082 31.5 34.125 31.5H33.7598C33.455 32.1984 32.9756 32.7996 32.375 33.25V33.278C32.375 33.6618 32.375 33.993 32.3563 34.2671C32.3366 34.5557 32.2933 34.8444 32.1752 35.1295C31.9088 35.7727 31.3977 36.2838 30.7545 36.5502C30.4694 36.6683 30.1807 36.7116 29.8921 36.7313C29.618 36.75 29.2868 36.75 28.903 36.75H27.097C26.7132 36.75 26.382 36.75 26.1079 36.7313C25.8193 36.7116 25.5306 36.6683 25.2455 36.5502C24.6023 36.2838 24.0912 35.7727 23.8248 35.1295C23.7067 34.8444 23.6634 34.5557 23.6437 34.2671C23.625 33.993 23.625 33.6618 23.625 33.278L23.625 33.25C23.0028 32.7834 22.5107 32.155 22.208 31.4242C22.0233 30.9783 21.9467 30.5073 21.9103 29.9746C21.875 29.4566 21.875 28.8201 21.875 28.0311V27.9689C21.875 27.1799 21.875 26.5434 21.9103 26.0254C21.9467 25.4927 22.0233 25.0217 22.208 24.5758C22.5107 23.845 23.0028 23.2167 23.625 22.75L23.625 22.722C23.625 22.3382 23.625 22.007 23.6437 21.7329C23.6634 21.4443 23.7067 21.1556 23.8248 20.8705C24.0912 20.2273 24.6023 19.7162 25.2455 19.4498C25.5306 19.3317 25.8193 19.2884 26.1079 19.2687C26.382 19.25 26.7132 19.25 27.097 19.25ZM25.3828 34.0173C25.3846 34.0638 25.3868 34.1071 25.3896 34.148C25.4032 34.3475 25.4265 34.4234 25.4416 34.4598C25.5304 34.6742 25.7008 34.8446 25.9152 34.9334C25.9516 34.9485 26.0275 34.9718 26.227 34.9854C26.4344 34.9995 26.7053 35 27.125 35H28.875C29.2947 35 29.5656 34.9995 29.773 34.9854C29.9725 34.9718 30.0484 34.9485 30.0848 34.9334C30.2992 34.8446 30.4696 34.6742 30.5584 34.4598C30.5735 34.4234 30.5968 34.3475 30.6104 34.148C30.6132 34.1071 30.6154 34.0638 30.6172 34.0173C30.4121 34.0519 30.1988 34.0744 29.9746 34.0897C29.4566 34.125 28.8202 34.125 28.0311 34.125H27.9689C27.1799 34.125 26.5434 34.125 26.0254 34.0897C25.8012 34.0744 25.5879 34.0519 25.3828 34.0173ZM30.6104 21.852C30.6132 21.8929 30.6154 21.9362 30.6173 21.9827C30.4121 21.9481 30.1988 21.9256 29.9746 21.9103C29.4566 21.875 28.8201 21.875 28.0311 21.875H27.9689C27.1799 21.875 26.5434 21.875 26.0254 21.9103C25.8012 21.9256 25.5879 21.9481 25.3827 21.9827C25.3846 21.9362 25.3868 21.8929 25.3896 21.852C25.4032 21.6525 25.4265 21.5766 25.4416 21.5402C25.5304 21.3258 25.7008 21.1554 25.9152 21.0666C25.9516 21.0515 26.0275 21.0282 26.227 21.0146C26.4344 21.0005 26.7053 21 27.125 21L28.875 21C29.2947 21 29.5656 21.0005 29.773 21.0146C29.9725 21.0282 30.0484 21.0515 30.0848 21.0666C30.2992 21.1554 30.4696 21.3258 30.5584 21.5402C30.5735 21.5766 30.5968 21.6525 30.6104 21.852ZM25.375 28C25.375 27.5168 25.7668 27.125 26.25 27.125H27.125V26.25C27.125 25.7668 27.5168 25.375 28 25.375C28.4832 25.375 28.875 25.7668 28.875 26.25V27.125H29.75C30.2332 27.125 30.625 27.5168 30.625 28C30.625 28.4832 30.2332 28.875 29.75 28.875H28.875V29.75C28.875 30.2332 28.4832 30.625 28 30.625C27.5168 30.625 27.125 30.2332 27.125 29.75V28.875H26.25C25.7668 28.875 25.375 28.4832 25.375 28Z" fill="#647067"/>
</svg>
