<svg width="48" height="48" viewBox="0 0 48 48" fill="none" xmlns="http://www.w3.org/2000/svg">
<g filter="url(#filter0_b_151_6055)">
<rect width="48" height="48" rx="18" fill="white" fill-opacity="0.32"/>
<path d="M22.0185 24.7347C22.0031 24.6376 22 24.5027 22 24C22 23.4973 22.0031 23.3624 22.0185 23.2653C22.1201 22.6235 22.6235 22.1201 23.2653 22.0185C23.3624 22.0031 23.4973 22 24 22C24.5027 22 24.6376 22.0031 24.7347 22.0185C25.3765 22.1201 25.8799 22.6235 25.9815 23.2653C25.9969 23.3624 26 23.4973 26 24C26 24.5027 25.9969 24.6376 25.9815 24.7347C25.8799 25.3765 25.3765 25.8799 24.7347 25.9815C24.6376 25.9969 24.5027 26 24 26C23.4973 26 23.3624 25.9969 23.2653 25.9815C22.6235 25.8799 22.1201 25.3765 22.0185 24.7347Z" fill="white"/>
<path fill-rule="evenodd" clip-rule="evenodd" d="M21.0004 16.222C21.0004 14.9948 21.9952 14 23.2224 14H24.7787C26.0058 14 27.0004 14.9948 27.0004 16.2217C27.0004 16.2852 27.0175 16.3226 27.0355 16.3481C27.0567 16.3781 27.0912 16.4075 27.1373 16.4266C27.1834 16.4457 27.2285 16.4493 27.2647 16.4431C27.2955 16.4377 27.334 16.4234 27.3788 16.3785C28.2464 15.5109 29.6531 15.5109 30.5207 16.3785L31.6213 17.4792C32.489 18.3468 32.489 19.7536 31.6213 20.6213C31.5764 20.6662 31.5621 20.7047 31.5567 20.7355C31.5505 20.7718 31.5541 20.8169 31.5732 20.8631C31.5924 20.9092 31.6217 20.9437 31.6518 20.9649C31.6773 20.9829 31.7147 21 31.7782 21C33.0053 21 34 21.9947 34 23.2218V24.7782C34 26.0053 33.0052 27 31.7782 27C31.7147 27 31.6773 27.0171 31.6517 27.0351C31.6217 27.0563 31.5923 27.0908 31.5732 27.1369C31.5541 27.1831 31.5504 27.2282 31.5567 27.2645C31.5621 27.2953 31.5764 27.3338 31.6213 27.3787C32.489 28.2463 32.489 29.6531 31.6213 30.5208L30.5207 31.6214C29.6531 32.489 28.2464 32.489 27.3788 31.6214C27.3339 31.5766 27.2955 31.5622 27.2647 31.5569C27.2285 31.5507 27.1834 31.5543 27.1373 31.5734C27.0912 31.5925 27.0567 31.6218 27.0355 31.6519C27.0175 31.6774 27.0004 31.7148 27.0004 31.7783C27.0004 33.0052 26.0058 34 24.7787 34H23.2224C21.9952 34 21.0004 33.0052 21.0004 31.778C21.0004 31.7146 20.9833 31.6771 20.9653 31.6516C20.9441 31.6215 20.9096 31.5922 20.8634 31.573C20.8172 31.5539 20.7721 31.5502 20.7358 31.5565C20.705 31.5619 20.6664 31.5762 20.6215 31.6212C19.7538 32.4889 18.3469 32.4889 17.4791 31.6212L16.3787 30.5208C15.511 29.6531 15.511 28.2463 16.3787 27.3787C16.4236 27.3338 16.4379 27.2953 16.4433 27.2645C16.4496 27.2282 16.4459 27.1831 16.4268 27.1369C16.4077 27.0908 16.3783 27.0563 16.3483 27.0351C16.3227 27.0171 16.2853 27 16.2218 27C14.9948 27 14 26.0053 14 24.7782V23.2218C14 21.9947 14.9947 21 16.2218 21C16.2853 21 16.3227 20.9829 16.3482 20.9649C16.3783 20.9437 16.4076 20.9092 16.4268 20.8631C16.4459 20.8169 16.4495 20.7718 16.4433 20.7355C16.4379 20.7047 16.4236 20.6662 16.3787 20.6213C15.511 19.7536 15.511 18.3468 16.3787 17.4792L17.479 16.3788C18.3468 15.511 19.7537 15.5111 20.6215 16.3788C20.6664 16.4237 20.7049 16.4381 20.7358 16.4435C20.7721 16.4497 20.8172 16.4461 20.8634 16.427C20.9096 16.4078 20.9441 16.3785 20.9653 16.3484C20.9833 16.3229 21.0004 16.2854 21.0004 16.222ZM23.9243 20C23.5343 19.9998 23.2266 19.9997 22.9525 20.0431C21.4549 20.2803 20.2803 21.4549 20.0431 22.9525C19.9997 23.2266 19.9998 23.5343 20 23.9243V24.0757C19.9998 24.4657 19.9997 24.7734 20.0431 25.0475C20.2803 26.5451 21.4549 27.7197 22.9525 27.9569C23.2266 28.0003 23.5343 28.0002 23.9243 28H24.0757C24.4657 28.0002 24.7734 28.0003 25.0475 27.9569C26.5451 27.7197 27.7197 26.5451 27.9569 25.0475C28.0003 24.7734 28.0002 24.4657 28 24.0757V23.9243C28.0002 23.5343 28.0003 23.2266 27.9569 22.9525C27.7197 21.4549 26.5451 20.2803 25.0475 20.0431C24.7734 19.9997 24.4657 19.9998 24.0757 20H23.9243Z" fill="white"/>
</g>
<defs>
<filter id="filter0_b_151_6055" x="-16" y="-16" width="80" height="80" filterUnits="userSpaceOnUse" color-interpolation-filters="sRGB">
<feFlood flood-opacity="0" result="BackgroundImageFix"/>
<feGaussianBlur in="BackgroundImageFix" stdDeviation="8"/>
<feComposite in2="SourceAlpha" operator="in" result="effect1_backgroundBlur_151_6055"/>
<feBlend mode="normal" in="SourceGraphic" in2="effect1_backgroundBlur_151_6055" result="shape"/>
</filter>
</defs>
</svg>
