<svg width="64" height="64" viewBox="0 0 64 64" fill="none" xmlns="http://www.w3.org/2000/svg">
<rect width="64" height="64" rx="24" fill="#ECFCCB"/>
<path d="M31.9632 22H32.0368C33.4035 22 34.4801 22 35.351 22.0594C36.2387 22.12 36.9853 22.2456 37.6788 22.5328C39.394 23.2433 40.7567 24.606 41.4672 26.3212C41.7544 27.0147 41.88 27.7613 41.9406 28.649C42 29.5199 42 30.5965 42 31.9631V32.0369C42 33.4035 42 34.4801 41.9406 35.351C41.88 36.2387 41.7544 36.9853 41.4672 37.6788C41.2423 38.2216 40.9521 38.7292 40.6061 39.1919L24.8081 23.3939C25.2708 23.0479 25.7784 22.7577 26.3212 22.5328C27.0147 22.2456 27.7613 22.12 28.649 22.0594C29.5199 22 30.5965 22 31.9632 22Z" fill="#84CC16"/>
<path d="M23.3939 24.8081C23.0479 25.2708 22.7577 25.7784 22.5328 26.3212C22.2456 27.0147 22.12 27.7613 22.0594 28.649C22 29.5199 22 30.5965 22 31.9631V32.0368C22 33.4035 22 34.4801 22.0594 35.351C22.12 36.2387 22.2456 36.9853 22.5328 37.6788C23.2433 39.394 24.606 40.7567 26.3212 41.4672C27.0147 41.7544 27.7613 41.88 28.649 41.9406C29.5199 42 30.5965 42 31.9631 42H32.0369C33.4035 42 34.4801 42 35.351 41.9406C36.2387 41.88 36.9853 41.7544 37.6788 41.4672C38.2216 41.2423 38.7292 40.9521 39.1919 40.6061L23.3939 24.8081Z" fill="#84CC16"/>
</svg>
