<svg width="64" height="65" viewBox="0 0 64 65" fill="none" xmlns="http://www.w3.org/2000/svg">
<rect y="0.5" width="64" height="64" rx="24" fill="#FEF9C3"/>
<path d="M34.3333 24.6135C34.854 24.4294 35.127 23.8581 34.9429 23.3374C34.7589 22.8167 34.1875 22.5438 33.6668 22.7278C32.1146 23.2765 31.0001 24.7568 31.0001 26.4999L31 29.6375C30.9996 30.4329 30.9993 31.0236 31.1364 31.5352C31.5062 32.9156 32.5844 33.9938 33.9648 34.3637C34.2723 34.446 34.6083 34.4788 35.0001 34.4917V36.5C35.0001 37.4772 34.9952 37.8198 34.9424 38.0853C34.7057 39.2753 33.7754 40.2056 32.5853 40.4424C32.3199 40.4952 31.9773 40.5 31.0001 40.5C30.0228 40.5 29.6802 40.4952 29.4148 40.4424C28.2247 40.2056 27.2944 39.2753 27.0577 38.0853C27.0049 37.8198 27.0001 37.4772 27.0001 36.5V32.5C27.0001 32.4716 26.9989 32.4434 26.9965 32.4155C28.0202 32.1521 28.8021 31.3031 28.968 30.2427C29.0005 30.0348 29.0003 29.8056 29.0001 29.5593L29.0001 29.5L29.0001 29.4407C29.0003 29.1944 29.0005 28.9651 28.968 28.7573C28.7886 27.6108 27.8893 26.7115 26.7428 26.5321C26.5349 26.4996 26.3056 26.4998 26.0594 26.5L26.0001 26.5L25.9407 26.5C25.6945 26.4998 25.4652 26.4996 25.2573 26.5321C24.1109 26.7115 23.2115 27.6108 23.0322 28.7573C22.9996 28.9651 22.9998 29.1944 23 29.4407L23.0001 29.5L23 29.5593C22.9998 29.8056 22.9996 30.0348 23.0322 30.2427C23.1981 31.3031 23.9799 32.1521 25.0036 32.4155C25.0013 32.4434 25.0001 32.4716 25.0001 32.5L25 36.6158C24.9998 37.4334 24.9997 37.9906 25.0961 38.4754C25.4907 40.4589 27.0412 42.0094 29.0246 42.4039C29.5094 42.5004 30.0667 42.5002 30.8843 42.5H31.1158C31.9334 42.5002 32.4907 42.5004 32.9755 42.4039C34.959 42.0094 36.5095 40.4589 36.904 38.4754C37.0004 37.9906 37.0003 37.4334 37.0001 36.6158L37.0001 34.4917C37.3919 34.4788 37.7279 34.446 38.0353 34.3637C39.4157 33.9938 40.4939 32.9156 40.8638 31.5352C41.0009 31.0236 41.0005 30.4329 41.0001 29.6375L41.0001 26.4999C41.0001 24.7568 39.8856 23.2765 38.3333 22.7278C37.8126 22.5438 37.2413 22.8167 37.0572 23.3374C36.8732 23.8581 37.1461 24.4294 37.6668 24.6135C38.445 24.8885 39.0001 25.6307 39.0001 26.4999V29.4999C39.0001 30.4943 38.9915 30.7953 38.9319 31.0176C38.747 31.7078 38.2079 32.2469 37.5177 32.4318C37.2954 32.4914 36.9944 32.4999 36.0001 32.4999C35.0057 32.4999 34.7047 32.4914 34.4824 32.4318C33.7922 32.2469 33.2531 31.7078 33.0682 31.0176C33.0087 30.7953 33.0001 30.4943 33.0001 29.4999V26.4999C33.0001 25.6307 33.5552 24.8885 34.3333 24.6135Z" fill="#FACC15"/>
</svg>
