<svg width="155" height="201" viewBox="0 0 155 201" fill="none" xmlns="http://www.w3.org/2000/svg">
<g clip-path="url(#clip0_132_6830)">
<rect width="155" height="201" rx="32" fill="#F43F5E"/>
<path d="M25.294 20.98C23.7632 19.7365 21.5704 19.7365 20.0397 20.98C19.872 21.1161 19.6998 21.2885 19.4467 21.5415L19.0961 21.8922C18.6385 22.3496 18.3266 22.6613 18.1061 22.9844C17.1391 24.4011 17.1391 26.2656 18.1061 27.6823C18.3266 28.0053 18.6385 28.317 19.0961 28.7745L21.6649 31.3432C22.3035 31.9819 22.8186 32.497 23.2698 32.88C23.7344 33.2744 24.1857 33.5775 24.7126 33.7487C25.5494 34.0206 26.4509 34.0206 27.2877 33.7487C27.8146 33.5775 28.2659 33.2744 28.7305 32.88C29.1817 32.497 29.6968 31.9818 30.3354 31.3432L32.9042 28.7745C33.3618 28.317 33.6737 28.0053 33.8942 27.6823C34.8612 26.2656 34.8612 24.4011 33.8942 22.9844C33.6737 22.6613 33.3618 22.3496 32.9042 21.8921L32.5536 21.5416C32.3006 21.2885 32.1283 21.1161 31.9606 20.98C30.4299 19.7365 28.2371 19.7365 26.7063 20.98C26.5387 21.1161 26.3664 21.2885 26.1134 21.5416L26.0776 21.5774C26.0395 21.6154 26.0187 21.6362 26.0032 21.6512L26.0001 21.6541L25.9971 21.6512C25.9816 21.6362 25.9608 21.6154 25.9227 21.5774L25.8869 21.5416C25.6339 21.2885 25.4616 21.1161 25.294 20.98Z" fill="#FB7185"/>
<path d="M83.076 30.168C79.716 30.182 77.742 29.09 77.574 27.256C77.49 26.346 77.784 25.156 78.134 24.372L79.478 25.016C79.324 25.492 79.072 26.332 79.114 26.85C79.24 27.522 80.57 28.068 83.034 28.082C86.618 28.068 87.57 27.452 88.256 25.59L89.712 25.758C89.46 26.514 89.39 27.046 89.502 27.396C89.6 27.76 89.908 27.914 90.37 27.914L90.482 28.964L90.37 30C89.348 30 88.438 29.356 88.27 28.348C87.08 29.748 85.428 30.154 83.076 30.168ZM81.984 32.478C82.432 32.044 82.852 31.61 83.286 31.19C83.72 31.61 84.14 32.044 84.574 32.478L83.286 33.766C82.852 33.332 82.432 32.912 81.984 32.478ZM94.3767 30C93.6487 30 92.9627 29.594 92.4727 28.95C92.0527 29.594 91.3667 30 90.4847 30H90.1487V27.914H90.4427C91.3667 27.914 91.7727 27.62 91.7727 26.78V26.752C91.7587 26.346 91.5347 21.614 91.3807 20.046L93.1307 19.654C93.2707 21.18 93.3967 25.842 93.4527 26.766C93.4947 27.62 93.8307 27.914 94.3767 27.914H94.5307L94.6427 28.964L94.5307 30H94.3767ZM94.2893 30V27.914H94.4993C96.5853 27.914 97.9573 27.76 98.6153 27.172C97.1033 27.312 95.6753 26.906 95.1433 25.828C94.3313 24.12 95.5633 21.348 97.4953 21.348C99.2453 21.348 100.449 23.728 100.379 26.164C100.309 28.53 98.5033 30 94.4713 30H94.2893ZM95.0733 19.43L96.2493 18.254C96.6553 18.646 97.0333 19.038 97.4393 19.43C97.0333 19.822 96.6553 20.228 96.2493 20.62L95.0733 19.43ZM97.5373 19.43L98.7133 18.254C99.1193 18.646 99.4973 19.038 99.9033 19.43C99.4973 19.822 99.1193 20.228 98.7133 20.62L97.5373 19.43ZM96.3893 24.68C96.7253 25.114 97.8173 25.352 98.9233 25.24C98.6993 24.19 98.1673 23.266 97.4813 23.14C96.6413 22.986 96.0393 24.19 96.3893 24.68ZM106.551 26.304C106.173 27.158 105.823 28.026 105.795 28.95C105.739 30.588 106.789 31.344 108.623 31.344C110.667 31.344 111.843 30.168 111.843 28.95C111.843 28.152 111.157 26.192 110.947 25.59L112.445 24.806C113.019 26.346 113.327 27.76 113.327 28.95C113.327 31.372 111.465 33.43 108.623 33.43C105.865 33.43 104.045 31.694 104.241 28.95C104.311 27.76 104.843 26.444 105.207 25.688L106.551 26.304ZM107.615 24.848C108.063 24.414 108.483 23.994 108.917 23.56L110.205 24.848C109.771 25.282 109.351 25.702 108.917 26.15C108.483 25.702 108.063 25.282 107.615 24.848ZM117.55 30C115.436 30 114.652 28.768 114.652 26.43C114.638 24.33 114.526 21.656 114.288 20.018L116.024 19.64C116.234 21.208 116.36 24.358 116.332 26.164C116.304 27.508 116.472 27.914 117.55 27.914H117.62L117.732 28.964L117.62 30H117.55ZM117.401 30V27.914H118.143C119.515 27.914 120.033 27.592 120.033 27.018C120.033 26.556 119.403 24.89 119.277 24.596L120.747 23.784C121.013 24.358 121.601 26.024 121.587 27.13C121.587 29.02 120.341 30 118.143 30H117.401ZM117.191 32.394C117.639 31.96 118.059 31.526 118.493 31.106C118.927 31.526 119.347 31.96 119.781 32.394L118.493 33.682C118.059 33.248 117.639 32.828 117.191 32.394ZM126.693 30C126.385 30 126.119 29.944 125.867 29.832C125.755 31.638 124.159 33.164 121.905 34.088L121.051 32.324C122.941 31.554 124.397 30.336 124.397 29.622C124.397 29.034 123.711 26.682 123.585 26.22L125.153 25.604C125.293 25.996 125.405 26.416 125.517 26.85C125.755 27.62 126.091 27.914 126.693 27.914H126.833L126.945 28.964L126.833 30H126.693ZM126.598 30V27.914H126.794C128.124 27.914 128.6 27.088 128.88 25.086L130.336 25.394C130.182 26.472 130.238 27.2 130.644 27.662C132.044 25.17 133.864 23.686 135.6 23.686C137.322 23.686 138.54 24.946 138.386 26.654C138.204 28.922 135.922 30.294 132.8 30.294C130.938 30.294 129.888 29.65 129.356 28.642C128.81 29.51 128.054 30 126.794 30H126.598ZM133.766 21.348L135.054 20.06C135.488 20.494 135.922 20.914 136.342 21.348C135.922 21.782 135.488 22.202 135.054 22.65C134.62 22.202 134.2 21.782 133.766 21.348ZM132.016 28.222C132.156 28.236 132.296 28.25 132.45 28.25C135.138 28.32 136.874 27.312 136.944 26.486C136.972 26.024 136.51 25.59 135.6 25.646C134.41 25.744 133.122 26.64 132.016 28.222Z" fill="white"/>
<path d="M25 58.208C24.184 59.048 23.128 59.504 21.976 59.504C18.928 59.504 16.984 57.248 16.984 53.744C16.984 50.264 19.456 47.696 22.792 47.696C26.296 47.696 28.624 50.528 28.648 54.56V55.904C28.648 57.896 28.288 59.6 27.544 61.016C26.104 63.728 23.392 65.192 19.84 65.192H19.528V62.288L20.248 62.264C23.128 62.168 24.736 60.848 25 58.208ZM22.912 56.864C23.896 56.864 24.64 56.36 25.048 55.52V54.032C25.048 51.704 24.136 50.504 22.768 50.504C21.496 50.504 20.584 51.896 20.584 53.744C20.584 55.592 21.448 56.864 22.912 56.864ZM42.3561 47.936V49.88L35.8281 65H32.0361L38.5641 50.72H30.2121V47.936H42.3561Z" fill="white"/>
<path d="M55.336 59.874C55.336 62.198 54.244 63.64 52.466 63.64C51.598 63.64 50.926 63.318 50.436 62.688L50.366 63.5H48.84V53H50.52V56.836C50.996 56.262 51.64 55.968 52.452 55.968C54.272 55.968 55.336 57.382 55.336 59.762V59.874ZM53.656 59.734C53.656 58.124 53.096 57.326 52.032 57.326C51.374 57.326 50.814 57.648 50.52 58.264V61.344C50.828 61.974 51.332 62.282 52.046 62.282C53.138 62.282 53.656 61.442 53.656 59.734ZM63.1133 59.874C63.1133 62.142 61.9933 63.64 60.2433 63.64C59.4313 63.64 58.7873 63.374 58.2973 62.828V66.342H56.6173V56.108H58.1713L58.2273 56.864C58.7173 56.262 59.3753 55.968 60.2293 55.968C62.0213 55.968 63.1133 57.382 63.1133 59.762V59.874ZM61.4193 59.72C61.4333 58.208 60.8173 57.326 59.7673 57.326C59.0953 57.326 58.6053 57.606 58.2973 58.166V61.456C58.6053 62.03 59.0953 62.31 59.7813 62.31C60.7893 62.31 61.3913 61.498 61.4193 59.888V59.72ZM64.3947 56.108H65.9767L66.0187 56.948C66.5647 56.29 67.2787 55.968 68.1887 55.968C69.1827 55.968 69.8547 56.36 70.2047 57.13C70.7087 56.402 71.4647 55.968 72.4867 55.968C74.0687 55.968 74.8947 56.85 74.9087 58.6V63.5H73.2147V58.698C73.2147 57.774 72.8787 57.326 71.9127 57.326C71.5767 57.326 71.2687 57.424 71.0307 57.592C70.7647 57.788 70.5687 58.096 70.4847 58.488V63.5H68.8047V58.726C68.8047 57.774 68.4127 57.326 67.5027 57.326C67.1667 57.326 66.8727 57.396 66.6347 57.536C66.3967 57.69 66.2147 57.9 66.0747 58.194V63.5H64.3947V56.108Z" fill="#FECDD3"/>
<path d="M-2 143.251C12 143.251 11.183 143.251 29.5 143.251C47.817 143.251 47 191.5 58 191.5C69 191.5 55.4107 87 65 87C74.5893 87 83.096 143.251 95 143.251C106.904 143.251 112.403 143.251 121 143.251" stroke="#FB7185" stroke-width="4" stroke-linecap="round"/>
<path d="M16 136.751C30 136.751 29.183 136.751 47.5 136.751C65.817 136.751 65 185 76 185C87 185 73.4107 80.5001 83 80.5001C92.5893 80.5001 101.096 136.751 113 136.751C124.904 136.751 130.403 136.751 139 136.751" stroke="#FFE4E7" stroke-width="4" stroke-linecap="round"/>
</g>
<defs>
<clipPath id="clip0_132_6830">
<rect width="155" height="201" rx="32" fill="white"/>
</clipPath>
</defs>
</svg>
