<svg width="155" height="201" viewBox="0 0 155 201" fill="none" xmlns="http://www.w3.org/2000/svg">
<rect width="155" height="201" rx="32" fill="#3B82F6"/>
<path d="M17.3032 17.0205C16.9988 17.0568 16.6533 17.2284 16.4344 17.4528C16.2463 17.6408 16.0684 17.951 16.0239 18.1655L16 18.2744H19.9884H23.9767V18.1985C23.9767 18.0797 23.7612 17.6804 23.6039 17.5122C23.4363 17.3274 23.2037 17.1789 22.9301 17.0799L22.7282 17.004L20.1115 17.0007C18.6715 16.9974 17.4093 17.0073 17.3032 17.0205Z" fill="#93C5FD"/>
<path d="M30.3396 17.0436C29.9873 17.0766 29.4674 17.1657 29.2006 17.2383C27.5861 17.6705 26.2863 18.7562 25.6603 20.1883C25.3696 20.8549 25.2533 21.4026 25.2464 22.1682C25.2328 23.4947 25.6295 24.5704 26.536 25.6726C26.9362 26.1544 27.6271 26.6724 28.301 26.9859C28.7388 27.1905 29.0467 27.2895 29.6042 27.4017C30.5415 27.5898 31.7558 27.4941 32.5972 27.1641C34.2972 26.5008 35.5149 25.1017 35.922 23.3528C35.9904 23.0459 36.0007 22.9271 36.0007 22.2507C35.9972 21.5511 35.9904 21.4653 35.9083 21.1287C35.686 20.2279 35.2892 19.4722 34.6769 18.8024C34.1878 18.2645 33.6576 17.8817 32.9632 17.5649C32.3201 17.2746 31.8686 17.1525 31.0922 17.0667C30.6714 17.0205 30.5825 17.0205 30.3396 17.0436ZM31.3692 18.3932C32.8298 18.6605 33.9996 19.6108 34.4717 20.9142C34.6667 21.4554 34.7009 21.6699 34.6974 22.3002C34.694 22.8347 34.6872 22.9073 34.588 23.2736C34.458 23.7521 34.1912 24.2966 33.9004 24.6694C33.0179 25.7947 31.5676 26.3754 30.1207 26.1808C28.3933 25.9465 27.1004 24.8443 26.6591 23.2241C26.5291 22.7522 26.5086 22.0857 26.6112 21.5742C26.9362 19.9177 28.1163 18.7562 29.8266 18.4031C30.2062 18.3272 30.9759 18.3206 31.3692 18.3932Z" fill="#93C5FD"/>
<path d="M30.4859 18.9343L30.373 19.0003V19.3798C30.373 19.7428 30.3765 19.7659 30.4586 19.8418C30.6022 19.9837 30.8109 19.9342 30.8861 19.7461C30.9238 19.6471 30.934 19.162 30.8998 19.0399C30.8793 18.9673 30.7288 18.8683 30.6399 18.8683C30.6159 18.8683 30.5441 18.898 30.4859 18.9343Z" fill="#93C5FD"/>
<path d="M28.1815 19.7559C28.1029 19.8318 28.0823 19.8813 28.0823 19.9902C28.0823 20.1486 28.031 20.0892 29.2385 21.287L29.8952 21.9371V22.1186C29.8952 22.4189 30.1039 22.7356 30.3639 22.8313C30.5041 22.8808 30.8256 22.8643 30.9761 22.7983C31.1916 22.7026 31.3661 22.4353 31.3661 22.2044C31.3661 21.8348 31.0035 21.4784 30.6307 21.4751C30.5007 21.4751 30.4699 21.452 30.0834 21.0824C29.8576 20.8679 29.4232 20.4621 29.1154 20.175C28.5852 19.6833 28.5544 19.6602 28.421 19.6602C28.3149 19.6602 28.2602 19.6833 28.1815 19.7559Z" fill="#93C5FD"/>
<path d="M32.5217 19.9607C32.2823 20.2016 32.2207 20.284 32.2207 20.3599C32.2207 20.4919 32.272 20.5744 32.3952 20.6338C32.4909 20.6833 32.508 20.6833 32.6038 20.6272C32.662 20.5942 32.8193 20.4523 32.9493 20.3104C33.1614 20.0861 33.1921 20.0366 33.1887 19.931C33.1853 19.8452 33.1579 19.7891 33.0929 19.7363C32.9288 19.5977 32.8501 19.6274 32.5217 19.9607Z" fill="#93C5FD"/>
<path d="M27.1759 22.0858C27.0767 22.1782 27.0699 22.264 27.1417 22.396C27.2067 22.5181 27.2477 22.5312 27.5898 22.5312C27.8532 22.5312 27.8874 22.5247 27.9626 22.4488C28.0824 22.3366 28.0789 22.165 27.9592 22.0726C27.8805 22.0132 27.819 22.0033 27.5624 22.0033C27.2854 22.0033 27.2512 22.0099 27.1759 22.0858Z" fill="#93C5FD"/>
<path d="M33.2874 22.0792C33.1848 22.1848 33.1882 22.3465 33.2976 22.4488C33.3729 22.5247 33.4071 22.5312 33.6739 22.5312C33.8381 22.5312 33.9988 22.5181 34.0331 22.4983C34.122 22.4521 34.1801 22.264 34.1391 22.1584C34.0878 22.033 34.0023 22.0033 33.6636 22.0033C33.39 22.0033 33.3524 22.0099 33.2874 22.0792Z" fill="#93C5FD"/>
<path d="M28.6763 23.9335C28.5531 23.983 28.1358 24.3988 28.1016 24.5044C28.0435 24.676 28.2555 24.9003 28.4334 24.8575C28.5292 24.8344 28.9431 24.4384 29.0183 24.2998C29.0936 24.1579 29.0046 23.9665 28.8302 23.9104C28.8028 23.9005 28.7344 23.9104 28.6763 23.9335Z" fill="#93C5FD"/>
<path d="M32.3199 23.9798C32.2515 24.0491 32.2207 24.1085 32.2207 24.1844C32.2207 24.2768 32.2652 24.3362 32.5217 24.5836C32.7167 24.7717 32.8501 24.874 32.898 24.874C32.9972 24.874 33.1716 24.7156 33.199 24.6001C33.2195 24.5143 33.1921 24.478 32.898 24.1943C32.5388 23.8511 32.4807 23.828 32.3199 23.9798Z" fill="#93C5FD"/>
<path d="M30.462 24.7123C30.3765 24.7783 30.373 24.7915 30.373 25.1413C30.373 25.4812 30.3765 25.5076 30.4586 25.5835C30.5714 25.6924 30.698 25.6891 30.8211 25.5703C30.9169 25.4746 30.9203 25.4647 30.9203 25.138C30.9203 24.8278 30.9135 24.7981 30.8348 24.7255C30.7322 24.6232 30.5851 24.6199 30.462 24.7123Z" fill="#93C5FD"/>
<path d="M16.0059 19.6109V20.1521L17.658 20.162L19.3067 20.1719L19.4982 20.2577C19.7343 20.3665 19.9327 20.548 20.0421 20.7658L20.1276 20.9308L20.1379 22.4751C20.1447 23.5344 20.1379 24.0788 20.1105 24.2009C20.0148 24.6365 19.683 25.0622 19.2999 25.2371C18.9202 25.412 18.9202 25.412 17.4185 25.4285L16.0059 25.4417V26.227C16.0059 27.1114 16.0401 27.3622 16.2145 27.702C16.4368 28.1442 16.7447 28.4115 17.186 28.5468C17.4254 28.6194 17.4322 28.6194 20.0079 28.6194C22.416 28.6194 22.6041 28.6161 22.7957 28.56C23.1069 28.4676 23.3122 28.3455 23.514 28.1343C23.7295 27.9099 23.8458 27.6888 23.9416 27.3358C24.01 27.0817 24.01 26.9761 24.01 23.0691V19.0664H20.0079H16.0059V19.6109Z" fill="#93C5FD"/>
<path d="M16.0059 21.8217V22.7292H16.5805C17.1791 22.7292 17.3604 22.7556 17.4562 22.8579C17.6101 23.0229 17.5725 23.2868 17.3775 23.4122C17.268 23.4848 17.2304 23.4881 16.6352 23.4881H16.0059V24.0656V24.6431H17.3672C18.1437 24.6431 18.7765 24.6299 18.8449 24.6101C19.0125 24.5672 19.2178 24.3923 19.293 24.2339C19.3512 24.1085 19.358 23.9831 19.358 22.5048V20.9143H17.6819H16.0059V21.8217Z" fill="#93C5FD"/>
<path d="M28.4472 27.8966C28.4164 27.9263 28.4199 29.6983 28.4507 29.8732C28.4712 29.9854 28.4951 30.0151 28.608 30.0679C28.7551 30.1372 29.21 30.2527 29.6718 30.3385C30.0515 30.4111 31.1495 30.421 31.536 30.355C31.9601 30.2857 32.5929 30.1141 32.7092 30.0415L32.8187 29.9689L32.829 28.9394C32.8358 28.1276 32.829 27.9098 32.7948 27.9098C32.7708 27.9098 32.6511 27.9395 32.528 27.9758C31.5223 28.2728 30.2704 28.3223 29.2784 28.1045C29.015 28.0451 28.6593 27.9461 28.5225 27.8966C28.4951 27.8834 28.4609 27.8867 28.4472 27.8966Z" fill="#93C5FD"/>
<path d="M18.8125 29.8204C18.8125 30.1999 18.8193 30.2527 18.8843 30.3319C18.9801 30.4507 19.1238 30.5167 19.2845 30.5167H19.4179L19.4385 31.1338C19.4966 32.9223 20.1089 34.3016 21.3506 35.4499C22.2091 36.2452 23.1942 36.7269 24.4051 36.9381C24.8771 37.0206 26.0846 37.0206 26.5088 36.9381C27.9488 36.6543 29.0058 36.0934 29.8848 35.1364C30.5758 34.3874 30.9931 33.5888 31.1949 32.622C31.2907 32.1765 31.2975 32.1303 31.3215 31.5957L31.342 31.1437H30.651H29.9635V31.3812C29.9635 32.4108 29.6386 33.3776 29.0571 34.0805C28.3866 34.8889 27.4939 35.4136 26.4403 35.6182C26.1188 35.6809 25.1234 35.7007 24.7301 35.6545C24.2717 35.6017 23.7963 35.4466 23.2592 35.1826C22.2433 34.6811 21.4634 33.8033 21.0735 32.7177C20.899 32.2326 20.8306 31.8267 20.8067 31.1437L20.7862 30.5266L20.9675 30.5101C21.1248 30.4936 21.1693 30.4738 21.265 30.3715L21.3779 30.2527V29.8237V29.3947H20.0952H18.8125V29.8204Z" fill="#93C5FD"/>
<path d="M85.912 26.304C85.534 27.158 85.184 28.026 85.156 28.95C85.1 30.588 86.15 31.344 87.984 31.344C90.028 31.344 91.204 30.168 91.204 28.95C91.204 28.152 90.518 26.192 90.308 25.59L91.806 24.806C92.38 26.346 92.688 27.76 92.688 28.95C92.688 31.372 90.826 33.43 87.984 33.43C85.226 33.43 83.406 31.694 83.602 28.95C83.672 27.76 84.204 26.444 84.568 25.688L85.912 26.304ZM86.976 24.848C87.424 24.414 87.844 23.994 88.278 23.56L89.566 24.848C89.132 25.282 88.712 25.702 88.278 26.15C87.844 25.702 87.424 25.282 86.976 24.848ZM93.5499 32.282C96.0699 31.736 97.4699 31.064 97.9319 30.014C96.1819 29.986 94.6699 29.79 94.1099 28.6C93.2979 26.864 94.5999 23.882 96.5179 23.882C98.0299 23.882 99.1639 25.758 99.4439 27.914H100.032L100.144 28.964L100.032 30H99.4019C98.9399 32.086 97.0499 33.542 94.1939 34.088L93.5499 32.282ZM95.3979 27.424C95.6779 27.802 96.7139 27.9 97.9599 27.914C97.7219 26.808 97.1759 25.884 96.4899 25.758C95.6639 25.59 95.0479 26.934 95.3979 27.424ZM99.7558 30V27.914H100.806C102.864 27.914 104.6 27.536 106.7 26.472C106.392 26.346 106.07 26.192 105.706 26.01C104.992 25.646 104.208 25.38 103.564 25.38C102.78 25.38 102.22 25.94 101.982 26.318L100.806 25.464C101.492 24.106 102.444 23.364 103.648 23.378C104.474 23.392 105.076 23.658 106.35 24.302C107.372 24.834 108.03 25.114 108.982 25.31L109.052 27.186C108.66 27.298 108.016 27.662 107.288 28.054C104.698 29.412 103.102 29.986 100.386 30H99.7558ZM102.514 21.11C102.948 20.69 103.368 20.256 103.802 19.822L105.09 21.11C104.67 21.558 104.236 21.978 103.802 22.412C103.368 21.978 102.948 21.558 102.514 21.11ZM111.047 32.324C112.937 31.554 114.393 30.336 114.393 29.622C114.393 29.034 113.707 26.682 113.581 26.22L115.149 25.604C115.597 26.906 115.877 28.488 115.877 29.622C115.877 31.512 114.239 33.122 111.901 34.088L111.047 32.324ZM120.269 30C118.155 30 117.371 28.768 117.371 26.43C117.357 24.33 117.245 21.656 117.007 20.018L118.743 19.64C118.953 21.208 119.079 24.358 119.051 26.164C119.023 27.508 119.191 27.914 120.269 27.914H120.339L120.451 28.964L120.339 30H120.269ZM131.599 30C130.843 30 130.227 29.678 129.765 29.076C129.317 29.636 128.687 29.986 127.987 30H127.945H127.903C127.035 29.986 126.419 29.552 126.083 28.81C125.593 29.538 125.005 29.986 124.221 30H124.151C123.353 30 122.709 29.538 122.471 28.824C121.869 29.594 121.085 30 120.203 30H120.161L120.049 28.964L120.161 27.914H120.231C120.819 27.914 121.435 27.62 121.715 27.256C122.177 26.724 122.373 25.87 122.443 25.604L123.899 25.758C123.815 26.052 123.633 26.682 123.605 27.13C123.591 27.648 123.773 27.914 124.193 27.914H124.221C124.739 27.914 125.089 27.634 125.341 27.144C125.621 26.584 125.761 25.8 125.803 25.506L127.259 25.576C127.203 25.828 127.105 26.5 127.105 26.892C127.105 27.522 127.343 27.914 127.945 27.914C128.393 27.914 128.827 27.732 129.051 27.466C128.967 27.102 128.855 26.542 128.673 25.576L130.115 25.184C130.395 26.654 130.451 26.934 130.563 27.27C130.703 27.69 131.011 27.914 131.599 27.914H131.683L131.795 28.964L131.669 30H131.599ZM124.263 23L125.369 21.894C125.747 22.258 126.125 22.636 126.489 23C126.125 23.378 125.747 23.742 125.369 24.12C125.005 23.742 124.627 23.378 124.263 23ZM126.895 23C127.273 22.636 127.637 22.258 128.015 21.894L129.121 23C128.757 23.378 128.379 23.742 128.015 24.12L126.895 23ZM125.705 21.348C126.027 21.012 126.363 20.69 126.685 20.368C127.021 20.69 127.343 21.012 127.665 21.348L126.685 22.342C126.363 22.006 126.027 21.67 125.705 21.348ZM131.451 30V27.914H131.661C133.747 27.914 135.119 27.76 135.777 27.172C134.265 27.312 132.837 26.906 132.305 25.828C131.493 24.12 132.725 21.348 134.657 21.348C136.407 21.348 137.611 23.728 137.541 26.164C137.471 28.53 135.665 30 131.633 30H131.451ZM133.103 19.178C133.537 18.744 133.957 18.31 134.391 17.89C134.825 18.31 135.259 18.744 135.679 19.178C135.259 19.612 134.825 20.032 134.391 20.466L133.103 19.178ZM133.551 24.68C133.887 25.114 134.979 25.352 136.085 25.24C135.861 24.19 135.329 23.266 134.643 23.14C133.803 22.986 133.201 24.19 133.551 24.68Z" fill="white"/>
<path d="M25.552 47.912V65H21.928V52.04L17.944 53.264V50.456L25.192 47.912H25.552ZM40.0041 50.576C36.7161 50.576 34.7241 52.208 34.3161 54.92C35.2041 54.008 36.3561 53.576 37.7481 53.576C40.7001 53.576 42.5961 55.904 42.5961 59.384C42.5961 62.456 40.4361 65.24 36.7641 65.24C33.4761 65.24 30.6441 62.864 30.6441 58.496V57.08C30.6441 55.424 30.9561 53.936 31.6041 52.592C32.9721 49.52 35.8761 47.744 39.4281 47.744H40.0041V50.576ZM36.5721 56.336C35.4441 56.336 34.6041 56.984 34.2201 57.824V58.904C34.2201 61.208 35.1081 62.432 36.6681 62.432C38.0361 62.432 38.9961 61.136 38.9961 59.384C38.9961 57.56 38.0361 56.336 36.5721 56.336ZM52.6323 47.912V65H49.0082V52.04L45.0242 53.264V50.456L52.2723 47.912H52.6323Z" fill="white"/>
<path d="M77.5526 54.424C77.5526 53.92 77.3706 53.57 76.9226 53.29C76.1246 52.772 75.0046 52.646 73.9406 52.114C72.7086 51.498 72.1346 50.7 72.1346 49.636C72.1346 47.956 73.7166 46.892 75.6906 46.892C77.7066 46.892 79.2886 48.082 79.2886 49.944H77.5386C77.5386 48.894 76.8526 48.264 75.6766 48.264C74.5566 48.264 73.8846 48.796 73.8846 49.636C73.8846 50.042 74.0806 50.364 74.5286 50.644C75.4106 51.204 76.5726 51.302 77.7206 51.946C78.7986 52.534 79.3026 53.332 79.3026 54.396C79.3026 56.062 77.9306 57.126 75.7466 57.126C73.7726 57.126 71.8266 56.062 71.8266 53.962H73.5766C73.5766 55.11 74.3746 55.754 75.7466 55.754C76.8946 55.754 77.5526 55.25 77.5526 54.424ZM81.7566 47.046L84.0386 51.778L86.3346 47.046H88.2666L84.9206 53.346V57H83.1566V53.346L79.8246 47.046H81.7566ZM94.4334 54.424C94.4334 53.92 94.2514 53.57 93.8034 53.29C93.0054 52.772 91.8854 52.646 90.8214 52.114C89.5894 51.498 89.0154 50.7 89.0154 49.636C89.0154 47.956 90.5974 46.892 92.5714 46.892C94.5874 46.892 96.1694 48.082 96.1694 49.944H94.4194C94.4194 48.894 93.7334 48.264 92.5574 48.264C91.4374 48.264 90.7654 48.796 90.7654 49.636C90.7654 50.042 90.9614 50.364 91.4094 50.644C92.2914 51.204 93.4534 51.302 94.6014 51.946C95.6794 52.534 96.1834 53.332 96.1834 54.396C96.1834 56.062 94.8114 57.126 92.6274 57.126C90.6534 57.126 88.7074 56.062 88.7074 53.962H90.4574C90.4574 55.11 91.2554 55.754 92.6274 55.754C93.7754 55.754 94.4334 55.25 94.4334 54.424ZM69.577 66.72H70.707L70.737 67.32C71.127 66.85 71.637 66.62 72.287 66.62C72.997 66.62 73.477 66.9 73.727 67.45C74.087 66.93 74.627 66.62 75.357 66.62C76.487 66.62 77.077 67.25 77.087 68.5V72H75.877V68.57C75.877 67.91 75.637 67.59 74.947 67.59C74.707 67.59 74.487 67.66 74.317 67.78C74.127 67.92 73.987 68.14 73.927 68.42V72H72.727V68.59C72.727 67.91 72.447 67.59 71.797 67.59C71.557 67.59 71.347 67.64 71.177 67.74C71.007 67.85 70.877 68 70.777 68.21V72H69.577V66.72ZM78.2382 66.72H79.3682L79.3982 67.32C79.7882 66.85 80.2982 66.62 80.9482 66.62C81.6582 66.62 82.1382 66.9 82.3882 67.45C82.7482 66.93 83.2882 66.62 84.0182 66.62C85.1482 66.62 85.7382 67.25 85.7482 68.5V72H84.5382V68.57C84.5382 67.91 84.2982 67.59 83.6082 67.59C83.3682 67.59 83.1482 67.66 82.9782 67.78C82.7882 67.92 82.6482 68.14 82.5882 68.42V72H81.3882V68.59C81.3882 67.91 81.1082 67.59 80.4582 67.59C80.2182 67.59 80.0082 67.64 79.8382 67.74C79.6682 67.85 79.5382 68 79.4382 68.21V72H78.2382V66.72ZM92.6693 64.89V72H91.4193V68.84H88.2593V72H87.0093V64.89H88.2593V67.85H91.4193V64.89H92.6693ZM93.7392 69.28C93.7492 67.64 94.5992 66.62 95.8592 66.62C96.4592 66.62 96.9392 66.83 97.2792 67.25L97.3292 66.72H98.4192V71.84C98.4192 72.82 97.7992 74.07 95.9992 74.08C95.2292 74.08 94.4292 73.74 94.0492 73.22L94.5992 72.51C94.9592 72.93 95.3992 73.15 95.9392 73.15C96.7592 73.15 97.2092 72.69 97.2092 71.85V71.51C96.8692 71.9 96.4092 72.1 95.8492 72.1C94.5892 72.1 93.7392 71.03 93.7392 69.34V69.28ZM94.9492 69.42C94.9492 70.48 95.3892 71.13 96.1492 71.13C96.6292 71.13 96.9892 70.93 97.2092 70.52V68.18C96.9792 67.79 96.6292 67.59 96.1592 67.59C95.3992 67.59 94.9492 68.21 94.9492 69.42Z" fill="#DBEAFE"/>
<path d="M28.384 92.472C28.384 94.152 27.52 95.448 26.056 96.216C27.712 97.008 28.744 98.424 28.744 100.32C28.744 103.344 26.536 105.24 22.936 105.24C19.312 105.24 17.056 103.344 17.056 100.32C17.056 98.496 18.064 97.008 19.768 96.216C18.304 95.448 17.416 94.152 17.416 92.472C17.416 89.52 19.552 87.696 22.888 87.696C26.272 87.696 28.384 89.52 28.384 92.472ZM25.144 100.056C25.144 98.544 24.256 97.656 22.912 97.656C21.544 97.656 20.68 98.544 20.68 100.056C20.68 101.52 21.544 102.456 22.936 102.456C24.256 102.456 25.144 101.544 25.144 100.056ZM24.784 92.664C24.784 91.344 24.112 90.504 22.888 90.504C21.712 90.504 21.016 91.296 21.016 92.664C21.016 93.984 21.688 94.872 22.936 94.872C24.136 94.872 24.784 93.984 24.784 92.664ZM40.0041 90.576C36.7161 90.576 34.7241 92.208 34.3161 94.92C35.2041 94.008 36.3561 93.576 37.7481 93.576C40.7001 93.576 42.5961 95.904 42.5961 99.384C42.5961 102.456 40.4361 105.24 36.7641 105.24C33.4761 105.24 30.6441 102.864 30.6441 98.496V97.08C30.6441 95.424 30.9561 93.936 31.6041 92.592C32.9721 89.52 35.8761 87.744 39.4281 87.744H40.0041V90.576ZM36.5721 96.336C35.4441 96.336 34.6041 96.984 34.2201 97.824V98.904C34.2201 101.208 35.1081 102.432 36.6681 102.432C38.0361 102.432 38.9961 101.136 38.9961 99.384C38.9961 97.56 38.0361 96.336 36.5721 96.336Z" fill="white"/>
<path d="M76.8419 97H73.8739V87.046H76.8419C79.5299 87.046 81.3079 88.95 81.3219 91.722V92.296C81.3219 95.096 79.5439 96.986 76.8419 97ZM76.8699 88.432H75.6239V95.614H76.7859C78.5359 95.614 79.5719 94.438 79.5719 92.268V91.75C79.5719 89.622 78.5919 88.446 76.8699 88.432ZM84.7847 87.046V97H83.0347V87.046H84.7847ZM93.1732 97L92.3752 94.69H88.5532L87.7692 97H85.9352L89.6732 87.046H91.2552L95.0212 97H93.1732ZM90.4712 89.132L89.0292 93.304H91.9132L90.4712 89.132ZM69.607 106.72H70.737L70.767 107.32C71.157 106.85 71.667 106.62 72.317 106.62C73.027 106.62 73.507 106.9 73.757 107.45C74.117 106.93 74.657 106.62 75.387 106.62C76.517 106.62 77.107 107.25 77.117 108.5V112H75.907V108.57C75.907 107.91 75.667 107.59 74.977 107.59C74.737 107.59 74.517 107.66 74.347 107.78C74.157 107.92 74.017 108.14 73.957 108.42V112H72.757V108.59C72.757 107.91 72.477 107.59 71.827 107.59C71.587 107.59 71.377 107.64 71.207 107.74C71.037 107.85 70.907 108 70.807 108.21V112H69.607V106.72ZM78.2482 106.72H79.3782L79.4082 107.32C79.7982 106.85 80.3082 106.62 80.9582 106.62C81.6682 106.62 82.1482 106.9 82.3982 107.45C82.7582 106.93 83.2982 106.62 84.0282 106.62C85.1582 106.62 85.7482 107.25 85.7582 108.5V112H84.5482V108.57C84.5482 107.91 84.3082 107.59 83.6182 107.59C83.3782 107.59 83.1582 107.66 82.9882 107.78C82.7982 107.92 82.6582 108.14 82.5982 108.42V112H81.3982V108.59C81.3982 107.91 81.1182 107.59 80.4682 107.59C80.2282 107.59 80.0182 107.64 79.8482 107.74C79.6782 107.85 79.5482 108 79.4482 108.21V112H78.2482V106.72ZM92.6593 104.89V112H91.4093V108.84H88.2493V112H86.9993V104.89H88.2493V107.85H91.4093V104.89H92.6593ZM93.7092 109.28C93.7192 107.64 94.5692 106.62 95.8292 106.62C96.4292 106.62 96.9092 106.83 97.2492 107.25L97.2992 106.72H98.3892V111.84C98.3892 112.82 97.7692 114.07 95.9692 114.08C95.1992 114.08 94.3992 113.74 94.0192 113.22L94.5692 112.51C94.9292 112.93 95.3692 113.15 95.9092 113.15C96.7292 113.15 97.1792 112.69 97.1792 111.85V111.51C96.8392 111.9 96.3792 112.1 95.8192 112.1C94.5592 112.1 93.7092 111.03 93.7092 109.34V109.28ZM94.9192 109.42C94.9192 110.48 95.3592 111.13 96.1192 111.13C96.5992 111.13 96.9592 110.93 97.1792 110.52V108.18C96.9492 107.79 96.5992 107.59 96.1292 107.59C95.3692 107.59 94.9192 108.21 94.9192 109.42Z" fill="#DBEAFE"/>
<path d="M18 185C31.0732 185 34.8423 137.321 51.4214 137.321C68.3786 137.321 64.32 172.679 81.7317 172.679C100.797 172.679 97.7761 110 116.049 110C134.322 110 135.352 144.821 152 144.821" stroke="#93C5FD" stroke-width="4" stroke-linecap="round"/>
<path d="M16 190C21 176.923 30 167.769 45.3014 167.769C63.6183 167.769 60.4935 133.769 71.4935 133.769C82.4935 133.769 80.9175 156.436 90.5068 156.436C100.096 156.436 102.384 122 114.288 122C126.192 122 131.403 157.191 140 157.191" stroke="#EFF6FF" stroke-width="4" stroke-linecap="round"/>
</svg>
