<svg width="155" height="201" viewBox="0 0 155 201" fill="none" xmlns="http://www.w3.org/2000/svg">
<rect width="155" height="201" rx="32" fill="#8B5CF6"/>
<path fill-rule="evenodd" clip-rule="evenodd" d="M22.7406 31.6742C24.4729 32.7855 26.7995 32.591 28.3238 31.0908C28.3367 31.0781 28.3511 31.0638 28.3714 31.0434L28.3744 31.0404L31.7078 27.7071L31.7111 27.7037C31.7313 27.6835 31.7456 27.6693 31.7582 27.6565C33.4818 25.9051 33.4818 23.0948 31.7582 21.3435C31.7455 21.3306 31.7312 21.3163 31.7109 21.296L31.7107 21.2958L31.7078 21.2929L31.7046 21.2897C31.6843 21.2694 31.67 21.2551 31.6572 21.2425C29.9058 19.5188 27.0955 19.5188 25.3441 21.2425C25.3313 21.2551 25.317 21.2694 25.2967 21.2897L25.2935 21.2929L21.9602 24.6262L21.9572 24.6292C21.9368 24.6496 21.9225 24.6639 21.9098 24.6768C20.4096 26.2011 20.2151 28.5277 21.3264 30.26L18.6269 32.9595C18.2364 33.35 18.2364 33.9832 18.6269 34.3737C19.0174 34.7643 19.6506 34.7643 20.0411 34.3737L22.7406 31.6742ZM29.2078 25.2071C29.5983 24.8166 29.5983 24.1834 29.2078 23.7929C28.8172 23.4024 28.1841 23.4024 27.7935 23.7929L24.4602 27.1262C24.0697 27.5167 24.0697 28.1499 24.4602 28.5404C24.8507 28.931 25.4839 28.931 25.8744 28.5404L29.2078 25.2071Z" fill="#AA8BFA"/>
<path d="M85.912 26.304C85.534 27.158 85.184 28.026 85.156 28.95C85.1 30.588 86.15 31.344 87.984 31.344C90.028 31.344 91.204 30.168 91.204 28.95C91.204 28.152 90.518 26.192 90.308 25.59L91.806 24.806C92.38 26.346 92.688 27.76 92.688 28.95C92.688 31.372 90.826 33.43 87.984 33.43C85.226 33.43 83.406 31.694 83.602 28.95C83.672 27.76 84.204 26.444 84.568 25.688L85.912 26.304ZM86.976 24.848C87.424 24.414 87.844 23.994 88.278 23.56L89.566 24.848C89.132 25.282 88.712 25.702 88.278 26.15C87.844 25.702 87.424 25.282 86.976 24.848ZM101.138 30C100.298 30 99.6819 29.692 99.1639 29.076C98.6879 29.538 97.8899 30.07 96.6299 30.07C94.9359 30.07 93.7599 29.202 93.4239 28.95L94.1799 27.48C94.4879 27.648 95.2859 28.096 96.4199 28.096C97.3299 28.096 97.9459 27.83 98.3379 27.578L96.4199 23.196L97.8619 22.412L99.7799 26.948C100.088 27.704 100.41 27.914 101.138 27.914H101.32L101.432 28.964L101.32 30H101.138ZM101.082 30V27.914H101.824C103.196 27.914 103.714 27.592 103.714 27.018C103.714 26.556 103.084 24.89 102.958 24.596L104.428 23.784C104.694 24.358 105.282 26.024 105.268 27.13C105.268 29.02 104.022 30 101.824 30H101.082ZM100.872 32.394C101.32 31.96 101.74 31.526 102.174 31.106C102.608 31.526 103.028 31.96 103.462 32.394L102.174 33.682C101.74 33.248 101.32 32.828 100.872 32.394ZM113.515 33.346C110.911 33.346 108.937 31.792 109.133 28.866C109.203 27.69 109.735 26.374 110.085 25.604L111.443 26.22C111.065 27.088 110.715 27.942 110.687 28.866C110.645 30.518 111.667 31.274 113.515 31.274C115.083 31.274 116.343 30.63 116.833 29.874C116.847 29.832 116.161 29.664 115.209 29.398C113.669 28.95 113.095 28.418 113.193 27.088C113.319 24.848 115.265 22.79 117.379 22.874C117.897 22.888 118.499 23.07 118.709 23.28L118.121 25.086C117.939 25.016 117.589 24.946 117.323 24.946C116.119 24.904 115.013 25.744 114.761 26.696C114.663 27.088 114.887 27.298 116.315 27.634C118.163 28.068 118.485 28.712 118.499 29.384C118.513 31.428 116.371 33.346 113.515 33.346ZM123.127 30C121.013 30 120.229 28.768 120.229 26.43C120.215 24.33 120.103 21.656 119.865 20.018L121.601 19.64C121.811 21.208 121.937 24.358 121.909 26.164C121.881 27.508 122.049 27.914 123.127 27.914H123.197L123.309 28.964L123.197 30H123.127ZM122.977 30L123.019 27.914H123.271C123.943 27.914 124.573 27.522 125.063 26.598C125.889 25.058 126.673 24.05 127.737 23.994C130.439 23.854 131.265 28.6 129.151 29.874C128.353 30.364 127.037 29.888 125.539 28.95C124.951 29.664 124.153 30 123.243 30H122.977ZM126.435 27.298C127.513 27.956 128.381 28.306 128.633 28.124C129.249 27.732 128.857 25.87 127.807 25.87C127.443 25.87 126.995 26.22 126.435 27.298ZM134.45 30.07C132.546 30.07 131.44 29.188 131.16 28.95L131.916 27.48C132.196 27.62 133.05 28.096 134.254 28.096C135.36 28.082 135.962 27.774 136.13 27.564C136.228 27.2 135.836 25.898 133.232 24.12L134.24 22.286C136.858 24.148 138.328 26.626 137.53 28.46C137.068 29.552 135.752 30.07 134.45 30.07Z" fill="white"/>
<path d="M20.632 57.632V54.944H22.432C24.04 54.944 24.88 54.128 24.88 52.616C24.88 51.32 24.112 50.504 22.672 50.504C21.448 50.504 20.512 51.272 20.512 52.352H16.912C16.912 50.456 18.376 47.744 22.552 47.696C26.248 47.648 28.48 49.52 28.48 52.568C28.48 54.032 27.544 55.448 25.816 56.24C27.664 56.864 28.744 58.256 28.744 60.2C28.744 63.272 26.248 65.24 22.576 65.24C19.048 65.192 16.672 63.296 16.672 60.296H20.272C20.272 61.496 21.28 62.456 22.672 62.456C24.208 62.456 25.144 61.52 25.144 60.152C25.144 58.376 24.16 57.632 22.504 57.632H20.632ZM42.3561 47.936V49.88L35.8281 65H32.0361L38.5641 50.72H30.2121V47.936H42.3561Z" fill="white"/>
<path d="M48.938 55.226C48.938 54.218 49.764 53.406 50.73 53.406C51.71 53.406 52.522 54.218 52.522 55.226C52.522 56.22 51.724 57.018 50.73 57.018C49.75 57.018 48.938 56.22 48.938 55.226ZM50.268 55.758C50.576 56.024 50.982 55.982 51.248 55.688C51.514 55.394 51.486 54.96 51.192 54.68C50.884 54.4 50.464 54.456 50.198 54.75C49.932 55.044 49.988 55.492 50.268 55.758ZM61.9948 60.252C61.8408 61.876 60.7908 63.626 58.0888 63.64C55.6248 63.64 54.0567 61.834 54.0567 58.894V58.11C54.0567 56.122 55.1067 53.42 58.1447 53.406C60.3847 53.406 61.7988 54.694 61.9948 56.85H60.2448C60.1048 55.408 59.4328 54.806 58.1447 54.806C56.6468 54.806 55.8208 55.912 55.8208 58.082V58.936C55.8208 61.078 56.5908 62.24 58.0888 62.24C59.3908 62.24 60.0908 61.694 60.2448 60.252H61.9948Z" fill="#DDD6FE"/>
<rect x="16" y="165" width="14" height="20" rx="6" fill="#AA8BFA"/>
<rect x="34" y="143" width="14" height="42" rx="6" fill="#AA8BFA"/>
<rect x="52" y="118" width="14" height="67" rx="6" fill="#EDE9FE"/>
<rect x="70" y="85" width="14" height="100" rx="6" fill="#EDE9FE"/>
<rect x="88" y="133" width="14" height="52" rx="6" fill="#EDE9FE"/>
<rect x="106" y="165" width="14" height="20" rx="6" fill="#AA8BFA"/>
<rect x="124" y="175" width="14" height="10" rx="5" fill="#AA8BFA"/>
</svg>
