<svg width="158" height="201" viewBox="0 0 158 201" fill="none" xmlns="http://www.w3.org/2000/svg">
<rect width="158" height="201" rx="32" fill="#111A14"/>
<path d="M25.7219 17.3922C25.5325 17.5105 24.8122 18.3932 23.7706 19.7797C21.9309 22.2213 20.7203 24.0846 20.071 25.4678C19.3777 26.9456 19.1816 28.2678 19.4487 29.6476C19.77 31.3148 20.8251 32.9482 22.2116 33.9424C23.659 34.9772 25.4716 35.4101 27.0712 35.1057C28.9176 34.7506 30.4495 33.7158 31.5723 32.0588C32.093 31.2945 32.5191 30.1447 32.6375 29.1877C32.6984 28.7176 32.6612 27.764 32.5699 27.3311C32.2993 26.0629 31.5215 24.4803 30.1891 22.4986C29.0055 20.7333 26.7634 17.7878 26.3339 17.4327C26.1987 17.3211 25.8706 17.2975 25.7219 17.3922ZM24.0344 22.1875C24.1257 22.2483 24.1832 22.3768 24.1832 22.5223C24.1832 22.6203 24.146 22.6812 23.9633 22.8807C23.331 23.5706 22.888 24.2503 22.5396 25.0721C22.3604 25.5016 22.2792 25.5827 22.0324 25.5827C21.7686 25.5827 21.6333 25.3257 21.7314 25.0214C21.8329 24.717 22.2928 23.8242 22.5464 23.4489C22.7865 23.087 23.3005 22.4479 23.4967 22.2619C23.6691 22.0962 23.8551 22.0725 24.0344 22.1875ZM26.1175 26.4992C26.2156 26.5195 26.4253 26.5973 26.5842 26.6717C27.7847 27.2465 28.0045 28.8732 27.0103 29.8031C26.2697 30.493 25.103 30.4829 24.3996 29.7761C24.1561 29.5326 24.0005 29.2857 23.8957 28.9746L23.8179 28.7447L22.5904 28.7345C21.3831 28.7277 21.3628 28.7244 21.285 28.6534C21.1193 28.4978 21.1227 28.2103 21.2952 28.048L21.3831 27.9669L22.6073 27.9567L23.8348 27.9466L23.8754 27.8045C23.9938 27.4055 24.3827 26.9185 24.7648 26.7055C25.1334 26.4958 25.688 26.4113 26.1175 26.4992ZM29.8442 27.135C30.1147 27.2668 30.3244 27.4765 30.4529 27.747C30.5476 27.9432 30.5577 28.0007 30.5577 28.2746C30.5577 28.5587 30.5476 28.5959 30.4326 28.8326C30.321 29.0558 30.2399 29.1538 29.7968 29.5833L29.2896 30.0804H29.8408C30.3244 30.0804 30.4022 30.0872 30.4969 30.1481C30.5544 30.1819 30.622 30.2462 30.6423 30.2867C30.7099 30.4085 30.6626 30.6181 30.5442 30.7365L30.4394 30.8413L29.4519 30.8515C28.3799 30.8616 28.3089 30.8515 28.2243 30.6858C28.1601 30.5607 28.1601 30.2462 28.2243 30.0906C28.2582 30.0094 28.5152 29.7287 28.9514 29.3026C29.648 28.6195 29.7292 28.5113 29.7292 28.2645C29.7292 27.8756 29.3437 27.7098 28.877 27.8992C28.6031 28.0108 28.4983 28.0074 28.3765 27.8857C28.1263 27.6388 28.2345 27.304 28.6132 27.1451C29.019 26.976 29.5128 26.9692 29.8442 27.135Z" fill="#BFDBFE"/>
<path d="M25.5084 27.2804C25.4103 27.2939 25.2751 27.3378 25.204 27.3717C25.0282 27.463 24.8016 27.6997 24.6968 27.8992C24.6156 28.048 24.6055 28.1089 24.6055 28.3896C24.6055 28.6905 24.6122 28.7244 24.7204 28.9239C24.9775 29.3939 25.4712 29.6205 25.9751 29.492C26.5094 29.3567 26.8543 28.9273 26.8543 28.3896C26.8543 27.676 26.2456 27.1721 25.5084 27.2804Z" fill="#BFDBFE"/>
<path d="M101.912 26.304C101.534 27.158 101.184 28.026 101.156 28.95C101.1 30.588 102.15 31.344 103.984 31.344C106.028 31.344 107.204 30.168 107.204 28.95C107.204 28.152 106.518 26.192 106.308 25.59L107.806 24.806C108.38 26.346 108.688 27.76 108.688 28.95C108.688 31.372 106.826 33.43 103.984 33.43C101.226 33.43 99.406 31.694 99.602 28.95C99.672 27.76 100.204 26.444 100.568 25.688L101.912 26.304ZM102.976 24.848C103.424 24.414 103.844 23.994 104.278 23.56L105.566 24.848C105.132 25.282 104.712 25.702 104.278 26.15C103.844 25.702 103.424 25.282 102.976 24.848ZM114.73 30C114.422 30 114.156 29.944 113.904 29.832C113.792 31.638 112.196 33.164 109.942 34.088L109.088 32.324C110.978 31.554 112.434 30.336 112.434 29.622C112.434 29.034 111.748 26.682 111.622 26.22L113.19 25.604C113.33 25.996 113.442 26.416 113.554 26.85C113.792 27.62 114.128 27.914 114.73 27.914H114.87L114.982 28.964L114.87 30H114.73ZM109.816 23.196C110.194 22.832 110.572 22.454 110.936 22.09C111.314 22.454 111.678 22.832 112.056 23.196L110.936 24.316C110.572 23.938 110.194 23.574 109.816 23.196ZM112.448 23.196L113.582 22.09C113.946 22.454 114.324 22.832 114.688 23.196C114.324 23.574 113.946 23.938 113.582 24.316L112.448 23.196ZM111.258 21.544C111.594 21.208 111.916 20.886 112.252 20.564L113.232 21.544C112.896 21.866 112.574 22.202 112.252 22.538C111.916 22.202 111.594 21.866 111.258 21.544ZM114.649 30L114.663 27.914H114.747C116.959 27.914 117.505 27.634 117.603 26.962C117.673 26.5 117.575 25.884 117.491 25.282L118.933 25.002C119.115 25.954 119.129 26.99 119.129 27.312C119.185 27.564 119.451 27.914 120.179 27.914H120.249L120.361 28.964L120.249 30H120.165C119.395 30 118.737 29.594 118.317 29.034C117.771 29.72 116.777 30 114.747 30H114.649ZM119.521 32.38L118.331 33.556C117.939 33.164 117.547 32.772 117.155 32.38C117.547 31.974 117.939 31.582 118.331 31.19C118.723 31.582 119.129 31.974 119.521 32.38ZM117.057 32.38L115.867 33.556C115.475 33.164 115.083 32.772 114.691 32.38C115.083 31.974 115.475 31.582 115.867 31.19C116.259 31.582 116.665 31.974 117.057 32.38ZM131.5 30C130.744 30 130.128 29.678 129.666 29.076C129.218 29.636 128.588 29.986 127.888 30H127.846H127.804C126.936 29.986 126.32 29.552 125.984 28.81C125.494 29.538 124.906 29.986 124.122 30H124.052C123.254 30 122.61 29.538 122.372 28.824C121.77 29.594 120.986 30 120.104 30H120.062L119.95 28.964L120.062 27.914H120.132C120.72 27.914 121.336 27.62 121.616 27.256C122.078 26.724 122.274 25.87 122.344 25.604L123.8 25.758C123.716 26.052 123.534 26.682 123.506 27.13C123.492 27.648 123.674 27.914 124.094 27.914H124.122C124.64 27.914 124.99 27.634 125.242 27.144C125.522 26.584 125.662 25.8 125.704 25.506L127.16 25.576C127.104 25.828 127.006 26.5 127.006 26.892C127.006 27.522 127.244 27.914 127.846 27.914C128.294 27.914 128.728 27.732 128.952 27.466C128.868 27.102 128.756 26.542 128.574 25.576L130.016 25.184C130.296 26.654 130.352 26.934 130.464 27.27C130.604 27.69 130.912 27.914 131.5 27.914H131.584L131.696 28.964L131.57 30H131.5ZM131.352 30V27.914H131.828C133.466 27.914 134.516 27.62 134.838 27.214C134.698 26.374 133.858 25.142 131.912 23.574L132.108 21.754L137.302 19.57L137.862 21.236L133.816 22.958C134.544 23.574 136.826 25.884 136.336 27.76C135.944 29.328 134.138 30 131.828 30H131.352ZM138.837 29.916C139.145 27.83 138.865 21.656 138.585 20.032L140.335 19.626C140.559 21.208 140.853 27.438 140.489 30.098L138.837 29.916Z" fill="white"/>
<path d="M25 58.208C24.184 59.048 23.128 59.504 21.976 59.504C18.928 59.504 16.984 57.248 16.984 53.744C16.984 50.264 19.456 47.696 22.792 47.696C26.296 47.696 28.624 50.528 28.648 54.56V55.904C28.648 57.896 28.288 59.6 27.544 61.016C26.104 63.728 23.392 65.192 19.84 65.192H19.528V62.288L20.248 62.264C23.128 62.168 24.736 60.848 25 58.208ZM22.912 56.864C23.896 56.864 24.64 56.36 25.048 55.52V54.032C25.048 51.704 24.136 50.504 22.768 50.504C21.496 50.504 20.584 51.896 20.584 53.744C20.584 55.592 21.448 56.864 22.912 56.864ZM41.9241 52.472C41.9241 54.152 41.0601 55.448 39.5961 56.216C41.2521 57.008 42.2841 58.424 42.2841 60.32C42.2841 63.344 40.0761 65.24 36.4761 65.24C32.8521 65.24 30.5961 63.344 30.5961 60.32C30.5961 58.496 31.6041 57.008 33.3081 56.216C31.8441 55.448 30.9561 54.152 30.9561 52.472C30.9561 49.52 33.0921 47.696 36.4281 47.696C39.8121 47.696 41.9241 49.52 41.9241 52.472ZM38.6841 60.056C38.6841 58.544 37.7961 57.656 36.4521 57.656C35.0841 57.656 34.2201 58.544 34.2201 60.056C34.2201 61.52 35.0841 62.456 36.4761 62.456C37.7961 62.456 38.6841 61.544 38.6841 60.056ZM38.3241 52.664C38.3241 51.344 37.6521 50.504 36.4281 50.504C35.2521 50.504 34.5561 51.296 34.5561 52.664C34.5561 53.984 35.2281 54.872 36.4761 54.872C37.6761 54.872 38.3241 53.984 38.3241 52.664Z" fill="white"/>
<path d="M48.672 55.464C48.672 54.26 49.526 53.406 50.786 53.406C52.06 53.406 52.886 54.232 52.886 55.506V55.982C52.886 57.2 52.046 58.026 50.8 58.026C49.54 58.026 48.672 57.228 48.672 55.94V55.464ZM49.834 55.982C49.834 56.598 50.212 57.046 50.8 57.046C51.374 57.046 51.738 56.64 51.738 55.926V55.464C51.738 54.848 51.374 54.4 50.786 54.4C50.198 54.4 49.834 54.834 49.834 55.492V55.982ZM53.474 61.064C53.474 59.846 54.328 59.006 55.588 59.006C56.848 59.006 57.702 59.818 57.702 61.106V61.596C57.702 62.814 56.848 63.64 55.602 63.64C54.342 63.64 53.474 62.828 53.474 61.554V61.064ZM54.636 61.596C54.636 62.184 55.028 62.66 55.602 62.66C56.162 62.66 56.512 62.268 56.526 61.652L56.54 61.064C56.54 60.434 56.162 60 55.588 60C55.028 60 54.636 60.42 54.636 61.064V61.596ZM56.008 54.974L51.136 62.744L50.282 62.268L55.14 54.484L56.008 54.974Z" fill="#BFDBFE"/>
<path d="M12 98C12 93.5817 15.5817 90 20 90C24.4183 90 28 93.5817 28 98C28 102.418 24.4183 106 20 106C15.5817 106 12 102.418 12 98Z" fill="#3B82F6"/>
<path d="M31 98C31 93.5817 34.5817 90 39 90C43.4183 90 47 93.5817 47 98C47 102.418 43.4183 106 39 106C34.5817 106 31 102.418 31 98Z" fill="#3B82F6"/>
<path d="M50 98C50 93.5817 53.5817 90 58 90C62.4183 90 66 93.5817 66 98C66 102.418 62.4183 106 58 106C53.5817 106 50 102.418 50 98Z" fill="#3B82F6"/>
<path d="M69 98C69 93.5817 72.5817 90 77 90C81.4183 90 85 93.5817 85 98C85 102.418 81.4183 106 77 106C72.5817 106 69 102.418 69 98Z" fill="#3B82F6"/>
<path d="M88 98C88 93.5817 91.5817 90 96 90C100.418 90 104 93.5817 104 98C104 102.418 100.418 106 96 106C91.5817 106 88 102.418 88 98Z" fill="#3B82F6"/>
<path d="M107 98C107 93.5817 110.582 90 115 90C119.418 90 123 93.5817 123 98C123 102.418 119.418 106 115 106C110.582 106 107 102.418 107 98Z" fill="#93C5FD"/>
<path d="M126 98C126 93.5817 129.582 90 134 90C138.418 90 142 93.5817 142 98C142 102.418 138.418 106 134 106C129.582 106 126 102.418 126 98Z" fill="#93C5FD"/>
<path d="M12 121C12 116.582 15.5817 113 20 113C24.4183 113 28 116.582 28 121C28 125.418 24.4183 129 20 129C15.5817 129 12 125.418 12 121Z" fill="#93C5FD"/>
<path d="M31 121C31 116.582 34.5817 113 39 113C43.4183 113 47 116.582 47 121C47 125.418 43.4183 129 39 129C34.5817 129 31 125.418 31 121Z" fill="#93C5FD"/>
<path d="M50 121C50 116.582 53.5817 113 58 113C62.4183 113 66 116.582 66 121C66 125.418 62.4183 129 58 129C53.5817 129 50 125.418 50 121Z" fill="#93C5FD"/>
<path d="M69 121C69 116.582 72.5817 113 77 113C81.4183 113 85 116.582 85 121C85 125.418 81.4183 129 77 129C72.5817 129 69 125.418 69 121Z" fill="#93C5FD"/>
<path d="M88 121C88 116.582 91.5817 113 96 113C100.418 113 104 116.582 104 121C104 125.418 100.418 129 96 129C91.5817 129 88 125.418 88 121Z" fill="#BFDBFE"/>
<path d="M107 121C107 116.582 110.582 113 115 113C119.418 113 123 116.582 123 121C123 125.418 119.418 129 115 129C110.582 129 107 125.418 107 121Z" fill="#BFDBFE"/>
<path d="M126 121C126 116.582 129.582 113 134 113C138.418 113 142 116.582 142 121C142 125.418 138.418 129 134 129C129.582 129 126 125.418 126 121Z" fill="#BFDBFE"/>
<path d="M12 144C12 139.582 15.5817 136 20 136C24.4183 136 28 139.582 28 144C28 148.418 24.4183 152 20 152C15.5817 152 12 148.418 12 144Z" fill="#BFDBFE"/>
<path d="M31 144C31 139.582 34.5817 136 39 136C43.4183 136 47 139.582 47 144C47 148.418 43.4183 152 39 152C34.5817 152 31 148.418 31 144Z" fill="#BFDBFE"/>
<path d="M50 144C50 139.582 53.5817 136 58 136C62.4183 136 66 139.582 66 144C66 148.418 62.4183 152 58 152C53.5817 152 50 148.418 50 144Z" fill="#EFF6FF"/>
<path d="M69 144C69 139.582 72.5817 136 77 136C81.4183 136 85 139.582 85 144C85 148.418 81.4183 152 77 152C72.5817 152 69 148.418 69 144Z" fill="#EFF6FF"/>
<path d="M88 144C88 139.582 91.5817 136 96 136C100.418 136 104 139.582 104 144C104 148.418 100.418 152 96 152C91.5817 152 88 148.418 88 144Z" fill="#BFDBFE"/>
<path d="M107 144C107 139.582 110.582 136 115 136C119.418 136 123 139.582 123 144C123 148.418 119.418 152 115 152C110.582 152 107 148.418 107 144Z" fill="#BFDBFE"/>
<path d="M126 144C126 139.582 129.582 136 134 136C138.418 136 142 139.582 142 144C142 148.418 138.418 152 134 152C129.582 152 126 148.418 126 144Z" fill="#BFDBFE"/>
<path d="M12 167C12 162.582 15.5817 159 20 159C24.4183 159 28 162.582 28 167C28 171.418 24.4183 175 20 175C15.5817 175 12 171.418 12 167Z" fill="#93C5FD"/>
<path d="M31 167C31 162.582 34.5817 159 39 159C43.4183 159 47 162.582 47 167C47 171.418 43.4183 175 39 175C34.5817 175 31 171.418 31 167Z" fill="#93C5FD"/>
<path d="M50 167C50 162.582 53.5817 159 58 159C62.4183 159 66 162.582 66 167C66 171.418 62.4183 175 58 175C53.5817 175 50 171.418 50 167Z" fill="#93C5FD"/>
<path d="M69 167C69 162.582 72.5817 159 77 159C81.4183 159 85 162.582 85 167C85 171.418 81.4183 175 77 175C72.5817 175 69 171.418 69 167Z" fill="#93C5FD"/>
<path d="M88 167C88 162.582 91.5817 159 96 159C100.418 159 104 162.582 104 167C104 171.418 100.418 175 96 175C91.5817 175 88 171.418 88 167Z" fill="#3B82F6"/>
<path d="M107 167C107 162.582 110.582 159 115 159C119.418 159 123 162.582 123 167C123 171.418 119.418 175 115 175C110.582 175 107 171.418 107 167Z" fill="#3B82F6"/>
<path d="M126 167C126 162.582 129.582 159 134 159C138.418 159 142 162.582 142 167C142 171.418 138.418 175 134 175C129.582 175 126 171.418 126 167Z" fill="#3B82F6"/>
</svg>
