<svg width="20" height="21" viewBox="0 0 20 21" fill="none" xmlns="http://www.w3.org/2000/svg">
<path fill-rule="evenodd" clip-rule="evenodd" d="M8.45364 2.71406C8.24261 2.9025 8.13709 2.99672 8.02222 3.0697C7.78481 3.22052 7.51309 3.30881 7.23237 3.32634C7.09654 3.33482 6.9558 3.32061 6.67431 3.2922C6.1271 3.23697 5.85349 3.20936 5.61734 3.25374C5.12605 3.34608 4.70214 3.65406 4.46251 4.09277C4.34732 4.30365 4.28904 4.5724 4.17247 5.10989C4.1125 5.38639 4.08252 5.52464 4.03248 5.65119C3.92906 5.91276 3.76113 6.1439 3.54432 6.32308C3.43942 6.40978 3.31721 6.48102 3.07278 6.62349C2.59761 6.90045 2.36003 7.03893 2.19507 7.21364C1.85188 7.57712 1.68996 8.07544 1.75396 8.57122C1.78472 8.80953 1.89554 9.06121 2.11716 9.56457C2.23117 9.82351 2.28817 9.95298 2.32208 10.0848C2.39215 10.3572 2.39215 10.6429 2.32208 10.9153C2.28817 11.0471 2.23117 11.1765 2.11716 11.4355C1.89554 11.9388 1.78472 12.1905 1.75396 12.4288C1.68996 12.9246 1.85188 13.4229 2.19507 13.7864C2.36003 13.9611 2.59761 14.0996 3.07278 14.3766C3.31721 14.519 3.43942 14.5903 3.54432 14.677C3.76113 14.8562 3.92906 15.0873 4.03248 15.3489C4.08252 15.4754 4.1125 15.6137 4.17247 15.8902C4.28904 16.4277 4.34732 16.6964 4.46251 16.9073C4.70215 17.346 5.12605 17.654 5.61734 17.7463C5.85349 17.7907 6.12709 17.7631 6.67429 17.7079C6.95578 17.6794 7.09654 17.6652 7.23237 17.6737C7.51309 17.6912 7.78481 17.7795 8.02222 17.9304C8.13709 18.0033 8.24261 18.0975 8.45364 18.286C8.86388 18.6523 9.069 18.8355 9.28614 18.9384C9.73788 19.1524 10.2618 19.1524 10.7136 18.9384C10.9307 18.8355 11.1358 18.6523 11.5461 18.286C11.7571 18.0976 11.8626 18.0033 11.9775 17.9304C12.2149 17.7795 12.4866 17.6912 12.7674 17.6737C12.9032 17.6652 13.0439 17.6794 13.3254 17.7079C13.8726 17.7631 14.1462 17.7907 14.3824 17.7463C14.8737 17.654 15.2976 17.346 15.5372 16.9073C15.6524 16.6964 15.7107 16.4277 15.8273 15.8902C15.8872 15.6137 15.9172 15.4754 15.9672 15.3489C16.0707 15.0873 16.2386 14.8562 16.4554 14.677C16.5603 14.5903 16.6825 14.519 16.9269 14.3766C17.4021 14.0996 17.6397 13.9611 17.8047 13.7864C18.1478 13.4229 18.3098 12.9246 18.2458 12.4288C18.215 12.1905 18.1042 11.9388 17.8826 11.4355C17.7686 11.1766 17.7116 11.0471 17.6776 10.9153C17.6076 10.6429 17.6076 10.3572 17.6776 10.0848C17.7116 9.95298 17.7686 9.82351 17.8826 9.56457C18.1042 9.06122 18.215 8.80953 18.2458 8.57122C18.3098 8.07544 18.1478 7.57712 17.8047 7.21364C17.6397 7.03893 17.4021 6.90045 16.9269 6.62349C16.6825 6.48102 16.5603 6.40978 16.4554 6.32308C16.2386 6.1439 16.0707 5.91276 15.9672 5.65119C15.9172 5.52465 15.8872 5.38641 15.8273 5.10995C15.7107 4.57246 15.6524 4.30365 15.5372 4.09277C15.2976 3.65406 14.8737 3.34608 14.3824 3.25374C14.1462 3.20936 13.8726 3.23697 13.3254 3.2922C13.0439 3.32061 12.9032 3.33482 12.7674 3.32634C12.4866 3.30881 12.2149 3.22052 11.9775 3.0697C11.8626 2.99672 11.7571 2.9025 11.5461 2.71406C11.1358 2.34774 10.9307 2.16458 10.7136 2.06168C10.2618 1.84761 9.73787 1.84761 9.28614 2.06168C9.069 2.16458 8.86388 2.34774 8.45364 2.71406ZM14.3391 9.00595C14.6646 8.68051 14.6646 8.15287 14.3391 7.82744C14.0137 7.502 13.486 7.502 13.1606 7.82744L9.62956 11.3585C9.28982 11.6982 9.07 11.9171 8.8894 12.0704C8.71624 12.2174 8.63469 12.2546 8.59071 12.2689C8.42334 12.3233 8.24305 12.3233 8.07568 12.2689C8.0317 12.2546 7.95015 12.2174 7.77699 12.0704C7.59639 11.9171 7.37657 11.6982 7.03683 11.3585L6.42245 10.7441C6.09701 10.4187 5.56938 10.4187 5.24394 10.7441C4.9185 11.0695 4.9185 11.5972 5.24394 11.9226L5.88103 12.5597C6.19164 12.8703 6.45962 13.1383 6.69836 13.341C6.95036 13.5549 7.22409 13.7446 7.56065 13.854C8.06276 14.0171 8.60363 14.0171 9.10574 13.854C9.4423 13.7446 9.71603 13.5549 9.96803 13.341C10.2068 13.1383 10.4747 12.8704 10.7853 12.5598L14.3391 9.00595Z" fill="#111A14"/>
</svg>
